<?xml version="1.0" encoding="utf-8"?>
<!-- Generator: Adobe Illustrator 15.1.0, SVG Export Plug-In . SVG Version: 6.00 Build 0)  -->
<!DOCTYPE svg PUBLIC "-//W3C//DTD SVG 1.1//EN" "http://www.w3.org/Graphics/SVG/1.1/DTD/svg11.dtd">
<svg version="1.1" id="Layer_1" xmlns="http://www.w3.org/2000/svg" xmlns:xlink="http://www.w3.org/1999/xlink" x="0px" y="0px"
	 width="192px" height="192px" viewBox="0 0 192 192" enable-background="new 0 0 192 192" xml:space="preserve">
<g>
	<linearGradient id="SVGID_1_" gradientUnits="userSpaceOnUse" x1="7.5474" y1="96.6719" x2="184.4063" y2="96.6719">
		<stop  offset="0" style="stop-color:#F05A28"/>
		<stop  offset="0.9831" style="stop-color:#930500"/>
	</linearGradient>
	<path fill="url(#SVGID_1_)" d="M184.406,163.877c0,11.723-9.504,21.223-21.224,21.223H28.771c-11.721,0-21.223-9.5-21.223-21.223
		V29.467c0-11.721,9.502-21.223,21.223-21.223h134.412c11.72,0,21.224,9.502,21.224,21.223V163.877z"/>
	
		<radialGradient id="SVGID_2_" cx="121.6416" cy="156.0918" r="133.0283" gradientTransform="matrix(1 0 0 0.4883 0 79.8703)" gradientUnits="userSpaceOnUse">
		<stop  offset="0.4444" style="stop-color:#FFFFFF;stop-opacity:0"/>
		<stop  offset="0.9215" style="stop-color:#FFFFFF;stop-opacity:0.4637"/>
		<stop  offset="1" style="stop-color:#FFFFFF;stop-opacity:0.54"/>
	</radialGradient>
	<path opacity="0.58" fill="url(#SVGID_2_)" d="M184.406,163.877c0,11.723-9.504,21.223-21.224,21.223H28.771
		c-11.721,0-21.223-9.5-21.223-21.223V29.467c0-11.721,9.502-21.223,21.223-21.223h134.412c11.72,0,21.224,9.502,21.224,21.223
		V163.877z"/>
	<g opacity="0.49">
		<path fill="#FFFFFF" d="M28.771,182.328c-15.179-1.025-18.922-12.997-18.922-25.764c0-11.887,0-23.772,0-35.659
			c0-27.727,0-55.451,0-83.176c0-12.14,2.138-23.626,16.357-26.539c6.284-1.286,13.783-0.172,20.117-0.172
			c29.169,0,58.339,0,87.508,0c17.414,0,48.273-5.445,48.273,20.629c0,24.837,0,49.672,0,74.507c0,13.829,0,27.657,0,41.488
			c0,8.292,1.243,17.687-2.585,25.301c-5.046,10.049-16.221,9.385-25.599,9.385c-12.442,0-24.881,0-37.323,0
			C87.322,182.328,58.047,182.328,28.771,182.328c-0.008,0-0.008,0.956,0,0.956c44.391,0,88.778,0,133.169,0
			c23.385,0,20.177-23.869,20.177-39.697c0-29.305,0-58.611,0-87.915c0-15.483,4.946-45.61-19.076-45.61
			c-21.719,0-43.438,0-65.162,0c-22.848,0-45.698,0-68.548,0c-23.659,0-19.49,26.997-19.49,42.585c0,28.343,0,56.684,0,85.028
			c0,16.47-4.947,43.997,18.931,45.609C28.756,183.281,28.799,182.329,28.771,182.328z"/>
	</g>
	<path fill="none" stroke="#BE1E2D" stroke-width="0.25" stroke-miterlimit="1" d="M184.406,163.877
		c0,11.723-9.504,21.223-21.224,21.223H28.771c-11.721,0-21.223-9.5-21.223-21.223V29.467c0-11.721,9.502-21.223,21.223-21.223
		h134.412c11.72,0,21.224,9.502,21.224,21.223V163.877z"/>
	<g opacity="0.58">
		<path fill="#0D003B" d="M184.4,162.727c-0.97,15.698-13.09,21.18-26.786,21.18c-11.291,0-22.578,0-33.87,0
			c-28.221,0-56.44,0-84.662,0c-9.816,0-18.489,0.563-26.178-7.129c-6.866-6.868-5.345-17.826-5.345-26.637
			c0-28.798,0-57.591,0-86.388C7.559,45.538,1.317,9.44,29.33,9.44c22.85,0,45.7,0,68.548,0c21.724,0,43.443,0,65.162,0
			c28.303,0,21.354,39.663,21.354,57.725c0,32.238,0,64.473,0,96.712c0,1.354,0.022,1.354,0.022,0c0-44.389,0-88.777,0-133.167
			c0-12.894-7.839-22.829-21.234-23.662c-6.247-0.388-12.646,0-18.902,0c-29.25,0-58.498,0-87.746,0c-18.251,0-49-4.762-49,22.419
			c0,20.5,0,41.003,0,61.505c0,23.888,0,47.775,0,71.661c0,12.894,7.84,22.832,21.235,23.666c6.249,0.385,12.647,0,18.904,0
			c27.63,0,55.261,0,82.892,0c18.829,0,52.147,6.028,53.845-21.271C184.454,164.313,184.368,163.286,184.4,162.727z"/>
	</g>
</g>
<g>
	<linearGradient id="SVGID_3_" gradientUnits="userSpaceOnUse" x1="41.9238" y1="168.0186" x2="41.9238" y2="27.2324">
		<stop  offset="0" style="stop-color:#C6C6C6"/>
		<stop  offset="0.618" style="stop-color:#B1B1B1"/>
		<stop  offset="0.6292" style="stop-color:#BEBEBE"/>
		<stop  offset="0.9831" style="stop-color:#B8B8B8"/>
	</linearGradient>
	<path fill="url(#SVGID_3_)" d="M0.375,168.019v-27.961h13.39c24.023,0,41.745-19.297,41.745-41.544
		c0-23.83-18.114-43.324-42.139-43.324H0.375V27.232h13.39c38.595,0,69.707,31.304,69.707,71.084c0,38-31.112,69.702-69.707,69.702
		H0.375z"/>
	<g opacity="0.51">
		<linearGradient id="SVGID_4_" gradientUnits="userSpaceOnUse" x1="41.9238" y1="168.0186" x2="41.9238" y2="27.2324">
			<stop  offset="0" style="stop-color:#A6A6A6"/>
			<stop  offset="0.5" style="stop-color:#838383"/>
			<stop  offset="0.5378" style="stop-color:#898989"/>
			<stop  offset="0.6652" style="stop-color:#999999"/>
			<stop  offset="0.8086" style="stop-color:#A3A3A3"/>
			<stop  offset="1" style="stop-color:#A6A6A6"/>
		</linearGradient>
		<path fill="url(#SVGID_4_)" d="M0.375,168.019v-27.961h13.39c24.023,0,41.745-19.297,41.745-41.544
			c0-23.83-18.114-43.324-42.139-43.324H0.375V27.232h13.39c38.595,0,69.707,31.304,69.707,71.084c0,38-31.112,69.702-69.707,69.702
			H0.375z"/>
	</g>
	<g opacity="0.7">
		<linearGradient id="SVGID_5_" gradientUnits="userSpaceOnUse" x1="41.9238" y1="27.2319" x2="41.9238" y2="168.019">
			<stop  offset="0" style="stop-color:#FFFFFF;stop-opacity:0.77"/>
			<stop  offset="0.2033" style="stop-color:#FFFFFF;stop-opacity:0.65"/>
			<stop  offset="0.3448" style="stop-color:#FFFFFF;stop-opacity:0.65"/>
			<stop  offset="0.3462" style="stop-color:#FFFFFF;stop-opacity:0.65"/>
			<stop  offset="0.511" style="stop-color:#FFFFFF;stop-opacity:0"/>
			<stop  offset="0.5247" style="stop-color:#E1E1E1;stop-opacity:0.0045"/>
			<stop  offset="0.5464" style="stop-color:#B8B8B8;stop-opacity:0.0116"/>
			<stop  offset="0.5708" style="stop-color:#929292;stop-opacity:0.0196"/>
			<stop  offset="0.5974" style="stop-color:#727272;stop-opacity:0.0283"/>
			<stop  offset="0.6268" style="stop-color:#565656;stop-opacity:0.0379"/>
			<stop  offset="0.6599" style="stop-color:#404040;stop-opacity:0.0487"/>
			<stop  offset="0.6986" style="stop-color:#2F2F2F;stop-opacity:0.0614"/>
			<stop  offset="0.7465" style="stop-color:#242424;stop-opacity:0.0771"/>
			<stop  offset="0.8136" style="stop-color:#1D1D1D;stop-opacity:0.099"/>
			<stop  offset="1" style="stop-color:#1B1B1B;stop-opacity:0.16"/>
		</linearGradient>
		<path fill="url(#SVGID_5_)" d="M0.375,168.019v-27.961h13.39c24.023,0,41.745-19.297,41.745-41.544
			c0-23.83-18.114-43.324-42.139-43.324H0.375V27.232h13.39c38.595,0,69.707,31.304,69.707,71.084c0,38-31.112,69.702-69.707,69.702
			H0.375z"/>
	</g>
	<g opacity="0.49">
		<path fill="#FFFFFF" d="M1.056,167.345c0-5.379,0-10.758,0-16.14c0-3.001,0-5.998,0-8.997c0-1.861,3.942-0.778,6.353-0.778
			c20.253,0,37.546-7.313,45.917-26.979c4.557-10.707,3.401-23.95-0.694-34.499C45.113,60.594,26.329,53.821,7.209,53.821
			c-1.344,0-6.154,0.172-6.154,0.016c0-2.655,0-5.309,0-7.964c0-3.69,0-7.378,0-11.069c0-1.854-0.358-6.204,0.35-6.204
			c18.097,0,34.425,1.217,50.205,11.194c17.736,11.209,28.248,30.813,30.771,51.267c3.119,25.31-9.877,49.743-30.304,63.958
			C36.6,165.788,19.152,166.65,1.049,166.65c-0.01,0-0.01,1.388,0,1.388c21.179,0,39.83-2.256,56.957-16.077
			c16.002-12.915,24.797-33.292,24.797-53.645c0-20.725-8.215-40.01-23.511-54.037C42.771,29.131,22.312,27.211,1.049,27.211
			c-0.008,0-0.007,0.658-0.007,0.693c0,8.871,0,17.741,0,26.611c0,0.035-0.001,0.695,0.007,0.695
			c10.282,0,19.976-0.339,29.708,3.653c14.332,5.875,23.006,20.138,25.122,34.956c2.44,17.084-7.838,33.081-22.189,41.264
			c-10.048,5.732-21.531,4.953-32.64,4.953c-0.008,0-0.007,0.66-0.007,0.698c0,8.869,0,17.74,0,26.61
			C1.042,168.129,1.056,168.129,1.056,167.345z"/>
	</g>
	<path fill="none" stroke="#CCCCCC" stroke-width="0.5878" stroke-miterlimit="1" d="M0.375,168.019v-27.961h13.39
		c24.023,0,41.745-19.297,41.745-41.544c0-23.83-18.114-43.324-42.139-43.324H0.375V27.232h13.39
		c38.595,0,69.707,31.304,69.707,71.084c0,38-31.112,69.702-69.707,69.702H0.375z"/>
	<g opacity="0.58">
		<path fill="#959595" d="M0.376,168.019c0-5.292,0-10.586,0-15.88c0-3.217,0-6.429,0-9.643c0-3.162,0.892-2.321,4.023-2.321
			c19.418,0,36.215-4.063,46.41-22.324c5.507-9.866,5.675-21.509,2.914-32.149C48.647,66.134,30.306,55.075,11,55.075
			c-3.164,0-6.327,0-9.491,0c-1.905,0-1.132-1.932-1.132-3.561c0-7.282,0-14.564,0-21.847c0-4.502,8.479-2.32,12.222-2.32
			c9.851,0,19.211,1.817,28.341,5.514c46.192,18.708,55.248,81.138,21.266,115.316c-17.107,17.209-38.917,19.727-61.83,19.727
			c-0.001,0-0.001,0.23,0,0.23c21.614,0,40.662-2.18,58.128-16.377c15.797-12.837,24.969-33.213,24.969-53.44
			c0-20.705-8.695-40.011-23.937-53.941C42.695,28.982,21.996,27.114,0.375,27.114c0,0,0,0.112,0,0.118c0,9.319,0,18.638,0,27.958
			c0,0.006,0,0.116,0,0.116c10.457,0,20.389-0.441,30.276,3.667c14.029,5.829,22.502,19.911,24.564,34.439
			c2.551,17.976-7.953,34.765-23.641,42.653c-9.642,4.848-20.757,3.879-31.199,3.879c0,0,0,0.108,0,0.114c0,9.32,0,18.643,0,27.961
			C0.375,168.147,0.376,168.147,0.376,168.019z"/>
	</g>
</g>
<g>
	<linearGradient id="SVGID_6_" gradientUnits="userSpaceOnUse" x1="150.1055" y1="168.0186" x2="150.1055" y2="27.2324">
		<stop  offset="0" style="stop-color:#C6C6C6"/>
		<stop  offset="0.618" style="stop-color:#B1B1B1"/>
		<stop  offset="0.6292" style="stop-color:#BEBEBE"/>
		<stop  offset="0.9831" style="stop-color:#B8B8B8"/>
	</linearGradient>
	<path fill="url(#SVGID_6_)" d="M191.651,27.232V55.19h-13.389c-24.022,0-41.747,19.301-41.747,41.547
		c0,23.83,18.116,43.321,42.137,43.321h12.999v27.961h-13.389c-38.597,0-69.704-31.307-69.704-71.083
		c0-38.005,31.107-69.704,69.704-69.704H191.651z"/>
	<g opacity="0.51">
		<linearGradient id="SVGID_7_" gradientUnits="userSpaceOnUse" x1="150.1055" y1="168.0186" x2="150.1055" y2="27.2324">
			<stop  offset="0" style="stop-color:#A6A6A6"/>
			<stop  offset="0.5" style="stop-color:#838383"/>
			<stop  offset="0.5378" style="stop-color:#898989"/>
			<stop  offset="0.6652" style="stop-color:#999999"/>
			<stop  offset="0.8086" style="stop-color:#A3A3A3"/>
			<stop  offset="1" style="stop-color:#A6A6A6"/>
		</linearGradient>
		<path fill="url(#SVGID_7_)" d="M191.651,27.232V55.19h-13.389c-24.022,0-41.747,19.301-41.747,41.547
			c0,23.83,18.116,43.321,42.137,43.321h12.999v27.961h-13.389c-38.597,0-69.704-31.307-69.704-71.083
			c0-38.005,31.107-69.704,69.704-69.704H191.651z"/>
	</g>
	<g opacity="0.7">
		<linearGradient id="SVGID_8_" gradientUnits="userSpaceOnUse" x1="150.1055" y1="27.2319" x2="150.1055" y2="168.019">
			<stop  offset="0" style="stop-color:#FFFFFF;stop-opacity:0.77"/>
			<stop  offset="0.2033" style="stop-color:#FFFFFF;stop-opacity:0.65"/>
			<stop  offset="0.3448" style="stop-color:#FFFFFF;stop-opacity:0.65"/>
			<stop  offset="0.3462" style="stop-color:#FFFFFF;stop-opacity:0.65"/>
			<stop  offset="0.511" style="stop-color:#FFFFFF;stop-opacity:0"/>
			<stop  offset="0.5247" style="stop-color:#E1E1E1;stop-opacity:0.0045"/>
			<stop  offset="0.5464" style="stop-color:#B8B8B8;stop-opacity:0.0116"/>
			<stop  offset="0.5708" style="stop-color:#929292;stop-opacity:0.0196"/>
			<stop  offset="0.5974" style="stop-color:#727272;stop-opacity:0.0283"/>
			<stop  offset="0.6268" style="stop-color:#565656;stop-opacity:0.0379"/>
			<stop  offset="0.6599" style="stop-color:#404040;stop-opacity:0.0487"/>
			<stop  offset="0.6986" style="stop-color:#2F2F2F;stop-opacity:0.0614"/>
			<stop  offset="0.7465" style="stop-color:#242424;stop-opacity:0.0771"/>
			<stop  offset="0.8136" style="stop-color:#1D1D1D;stop-opacity:0.099"/>
			<stop  offset="1" style="stop-color:#1B1B1B;stop-opacity:0.16"/>
		</linearGradient>
		<path fill="url(#SVGID_8_)" d="M191.651,27.232V55.19h-13.389c-24.022,0-41.747,19.301-41.747,41.547
			c0,23.83,18.116,43.321,42.137,43.321h12.999v27.961h-13.389c-38.597,0-69.704-31.307-69.704-71.083
			c0-38.005,31.107-69.704,69.704-69.704H191.651z"/>
	</g>
	<g opacity="0.49">
		<path fill="#FFFFFF" d="M178.263,166.65c-48.942-0.886-82.327-50.49-63.35-96.44c8.014-19.411,25.537-33.505,45.428-39.253
			c7.937-2.294,16.102-2.358,24.28-2.358c1.351,0,6.348-0.169,6.348-0.016c0,3.264,0,6.53,0,9.795
			c0,2.458,0.374,15.442-0.348,15.442c-7.66,0-15.264-0.365-22.79,1.292c-18.853,4.152-31.806,22.351-31.996,41.135
			c-0.143,14.399,5.813,27.406,16.989,36.501c7.254,5.91,16.937,8.682,26.178,8.682c3.103,0,6.209,0,9.313,0
			c3.356,0,2.654-0.638,2.654,3.108c0,6.763,0,13.519,0,20.278c0,2.933,0.102,1.834-2.738,1.834
			C184.908,166.65,181.587,166.65,178.263,166.65c-0.011,0-0.011,1.388,0,1.388c4.237,0,8.476,0,12.716,0
			c0.006,0,0.006-0.655,0.006-0.693c0-8.87,0-17.741,0-26.61c0-0.038,0-0.698-0.006-0.698c-10.28,0-19.979,0.34-29.712-3.649
			c-14.331-5.878-23.005-20.137-25.121-34.956c-2.439-17.082,7.84-33.079,22.19-41.268c10.05-5.733,21.536-4.953,32.643-4.953
			c0.006,0,0.006-0.66,0.006-0.695c0-8.87,0-17.74,0-26.611c0-0.036,0-0.693-0.006-0.693c-19.372,0-36.608,1.597-53.06,13.045
			c-17.007,11.834-28.25,32.71-28.645,53.435c-0.756,40.118,27.883,73.601,68.988,74.347
			C178.265,168.038,178.282,166.654,178.263,166.65z"/>
	</g>
	<path fill="none" stroke="#CCCCCC" stroke-width="0.5878" stroke-miterlimit="1" d="M191.651,27.232V55.19h-13.389
		c-24.022,0-41.747,19.301-41.747,41.547c0,23.83,18.116,43.321,42.137,43.321h12.999v27.961h-13.389
		c-38.597,0-69.704-31.307-69.704-71.083c0-38.005,31.107-69.704,69.704-69.704H191.651z"/>
	<g opacity="0.58">
		<path fill="#959595" d="M191.649,27.232c0,5.292,0,10.587,0,15.879c0,3.214,0,6.428,0,9.642c0,3.161-0.891,2.322-4.021,2.322
			c-19.421,0-36.216,4.062-46.408,22.323c-5.511,9.868-5.678,21.51-2.917,32.15c5.077,19.566,23.417,30.627,42.724,30.627
			c3.166,0,6.33,0,9.493,0c1.906,0,1.13,1.931,1.13,3.558c0,7.285,0,14.569,0,21.852c0,4.503-8.477,2.319-12.219,2.319
			c-9.854,0-19.21-1.816-28.341-5.513c-46.193-18.711-55.25-81.138-21.265-115.32c17.104-17.207,38.913-19.724,61.826-19.724
			c0.004,0,0.004-0.233,0-0.233c-21.613,0-40.657,2.183-58.129,16.377c-15.796,12.837-24.965,33.215-24.965,53.444
			c0,20.703,8.693,40.008,23.933,53.941c16.841,15.388,37.543,17.257,59.161,17.257c0.004,0,0.004-0.109,0.004-0.115
			c0-9.318,0-18.641,0-27.961c0-0.006,0-0.114-0.004-0.114c-10.457,0-20.391,0.441-30.278-3.666
			c-14.023-5.83-22.501-19.909-24.563-34.439c-2.552-17.979,7.955-34.769,23.643-42.654c9.643-4.848,20.757-3.878,31.198-3.878
			c0.004,0,0.004-0.11,0.004-0.116c0-9.32,0-18.639,0-27.958C191.655,27.1,191.649,27.1,191.649,27.232z"/>
	</g>
</g>
</svg>
