<?xml version="1.0" encoding="utf-8"?>
<!-- Generator: Adobe Illustrator 15.1.0, SVG Export Plug-In . SVG Version: 6.00 Build 0)  -->
<!DOCTYPE svg PUBLIC "-//W3C//DTD SVG 1.1//EN" "http://www.w3.org/Graphics/SVG/1.1/DTD/svg11.dtd">
<svg version="1.1" id="Layer_1" xmlns="http://www.w3.org/2000/svg" xmlns:xlink="http://www.w3.org/1999/xlink" x="0px" y="0px"
	 width="128px" height="128px" viewBox="0 0 128 128" enable-background="new 0 0 128 128" xml:space="preserve">
<g>
	<linearGradient id="SVGID_1_" gradientUnits="userSpaceOnUse" x1="5.1636" y1="63.4834" x2="122.8584" y2="63.4834">
		<stop  offset="0" style="stop-color:#F05A28"/>
		<stop  offset="0.9831" style="stop-color:#930500"/>
	</linearGradient>
	<path fill="url(#SVGID_1_)" d="M122.858,108.208c0,7.8-6.325,14.122-14.124,14.122H19.287c-7.8,0-14.123-6.322-14.123-14.122
		V18.761c0-7.801,6.323-14.124,14.123-14.124h89.448c7.799,0,14.124,6.323,14.124,14.124V108.208z"/>
	
		<radialGradient id="SVGID_2_" cx="81.0898" cy="103.0264" r="88.5272" gradientTransform="matrix(1 0 0 0.4883 0 52.7174)" gradientUnits="userSpaceOnUse">
		<stop  offset="0.4444" style="stop-color:#FFFFFF;stop-opacity:0"/>
		<stop  offset="0.9215" style="stop-color:#FFFFFF;stop-opacity:0.4637"/>
		<stop  offset="1" style="stop-color:#FFFFFF;stop-opacity:0.54"/>
	</radialGradient>
	<path opacity="0.58" fill="url(#SVGID_2_)" d="M122.858,108.208c0,7.8-6.325,14.122-14.124,14.122H19.287
		c-7.8,0-14.123-6.322-14.123-14.122V18.761c0-7.801,6.323-14.124,14.123-14.124h89.448c7.799,0,14.124,6.323,14.124,14.124V108.208
		z"/>
	<g opacity="0.49">
		<path fill="#FFFFFF" d="M19.287,120.485c-10.101-0.682-12.592-8.649-12.592-17.145c0-7.911,0-15.821,0-23.731
			c0-18.451,0-36.9,0-55.351c0-8.079,1.423-15.722,10.885-17.661c4.182-0.856,9.173-0.115,13.387-0.115c19.412,0,38.822,0,58.234,0
			c11.588,0,32.125-3.624,32.125,13.728c0,16.528,0,33.056,0,49.583c0,9.203,0,18.404,0,27.609c0,5.519,0.828,11.77-1.72,16.837
			c-3.358,6.688-10.795,6.245-17.036,6.245c-8.28,0-16.558,0-24.838,0C58.251,120.485,38.77,120.485,19.287,120.485
			c-0.005,0-0.005,0.637,0,0.637c29.541,0,59.079,0,88.621,0c15.562,0,13.427-15.885,13.427-26.419c0-19.5,0-39.003,0-58.504
			c0-10.303,3.292-30.353-12.694-30.353c-14.454,0-28.908,0-43.363,0c-15.206,0-30.412,0-45.618,0
			c-15.744,0-12.971,17.966-12.971,28.34c0,18.861,0,37.722,0,56.583c0,10.961-3.292,29.279,12.599,30.353
			C19.277,121.12,19.306,120.486,19.287,120.485z"/>
	</g>
	<path fill="none" stroke="#BE1E2D" stroke-width="0.25" stroke-miterlimit="1" d="M122.858,108.208
		c0,7.8-6.325,14.122-14.124,14.122H19.287c-7.8,0-14.123-6.322-14.123-14.122V18.761c0-7.801,6.323-14.124,14.123-14.124h89.448
		c7.799,0,14.124,6.323,14.124,14.124V108.208z"/>
	<g opacity="0.58">
		<path fill="#0D003B" d="M122.854,107.44c-0.646,10.447-8.711,14.096-17.826,14.096c-7.514,0-15.025,0-22.539,0
			c-18.78,0-37.56,0-56.341,0c-6.532,0-12.304,0.374-17.42-4.744c-4.569-4.57-3.557-11.863-3.557-17.727c0-19.163,0-38.325,0-57.489
			c0-12.121-4.154-36.144,14.487-36.144c15.206,0,30.412,0,45.618,0c14.455,0,28.909,0,43.363,0
			c18.834,0,14.211,26.395,14.211,38.415c0,21.454,0,42.906,0,64.361c0,0.899,0.015,0.899,0.015,0c0-29.54,0-59.081,0-88.621
			c0-8.58-5.217-15.192-14.131-15.746c-4.158-0.258-8.416,0-12.579,0c-19.465,0-38.929,0-58.393,0
			c-12.145,0-32.607-3.169-32.607,14.919c0,13.642,0,27.287,0,40.93c0,15.896,0,31.794,0,47.688c0,8.581,5.218,15.194,14.131,15.749
			c4.158,0.257,8.417,0,12.58,0c18.387,0,36.775,0,55.163,0c12.53,0,34.702,4.012,35.832-14.154
			C122.891,108.497,122.833,107.813,122.854,107.44z"/>
	</g>
</g>
<g>
	<linearGradient id="SVGID_3_" gradientUnits="userSpaceOnUse" x1="28.0396" y1="110.9629" x2="28.0395" y2="17.2734">
		<stop  offset="0" style="stop-color:#C6C6C6"/>
		<stop  offset="0.618" style="stop-color:#B1B1B1"/>
		<stop  offset="0.6292" style="stop-color:#BEBEBE"/>
		<stop  offset="0.9831" style="stop-color:#B8B8B8"/>
	</linearGradient>
	<path fill="url(#SVGID_3_)" d="M0.39,110.963V92.355h8.911c15.987,0,27.78-12.842,27.78-27.646
		c0-15.858-12.054-28.831-28.042-28.831H0.39V17.273h8.911c25.684,0,46.388,20.832,46.388,47.305
		c0,25.288-20.704,46.385-46.388,46.385H0.39z"/>
	<g opacity="0.51">
		<linearGradient id="SVGID_4_" gradientUnits="userSpaceOnUse" x1="28.0396" y1="110.9629" x2="28.0395" y2="17.2734">
			<stop  offset="0" style="stop-color:#A6A6A6"/>
			<stop  offset="0.5" style="stop-color:#838383"/>
			<stop  offset="0.5378" style="stop-color:#898989"/>
			<stop  offset="0.6652" style="stop-color:#999999"/>
			<stop  offset="0.8086" style="stop-color:#A3A3A3"/>
			<stop  offset="1" style="stop-color:#A6A6A6"/>
		</linearGradient>
		<path fill="url(#SVGID_4_)" d="M0.39,110.963V92.355h8.911c15.987,0,27.78-12.842,27.78-27.646
			c0-15.858-12.054-28.831-28.042-28.831H0.39V17.273h8.911c25.684,0,46.388,20.832,46.388,47.305
			c0,25.288-20.704,46.385-46.388,46.385H0.39z"/>
	</g>
	<g opacity="0.7">
		<linearGradient id="SVGID_5_" gradientUnits="userSpaceOnUse" x1="28.0396" y1="17.2729" x2="28.0395" y2="110.9634">
			<stop  offset="0" style="stop-color:#FFFFFF;stop-opacity:0.77"/>
			<stop  offset="0.2033" style="stop-color:#FFFFFF;stop-opacity:0.65"/>
			<stop  offset="0.3448" style="stop-color:#FFFFFF;stop-opacity:0.65"/>
			<stop  offset="0.3462" style="stop-color:#FFFFFF;stop-opacity:0.65"/>
			<stop  offset="0.511" style="stop-color:#FFFFFF;stop-opacity:0"/>
			<stop  offset="0.5247" style="stop-color:#E1E1E1;stop-opacity:0.0045"/>
			<stop  offset="0.5464" style="stop-color:#B8B8B8;stop-opacity:0.0116"/>
			<stop  offset="0.5708" style="stop-color:#929292;stop-opacity:0.0196"/>
			<stop  offset="0.5974" style="stop-color:#727272;stop-opacity:0.0283"/>
			<stop  offset="0.6268" style="stop-color:#565656;stop-opacity:0.0379"/>
			<stop  offset="0.6599" style="stop-color:#404040;stop-opacity:0.0487"/>
			<stop  offset="0.6986" style="stop-color:#2F2F2F;stop-opacity:0.0614"/>
			<stop  offset="0.7465" style="stop-color:#242424;stop-opacity:0.0771"/>
			<stop  offset="0.8136" style="stop-color:#1D1D1D;stop-opacity:0.099"/>
			<stop  offset="1" style="stop-color:#1B1B1B;stop-opacity:0.16"/>
		</linearGradient>
		<path fill="url(#SVGID_5_)" d="M0.39,110.963V92.355h8.911c15.987,0,27.78-12.842,27.78-27.646
			c0-15.858-12.054-28.831-28.042-28.831H0.39V17.273h8.911c25.684,0,46.388,20.832,46.388,47.305
			c0,25.288-20.704,46.385-46.388,46.385H0.39z"/>
	</g>
	<g opacity="0.49">
		<path fill="#FFFFFF" d="M0.843,110.515c0-3.579,0-7.159,0-10.74c0-1.997,0-3.992,0-5.988c0-1.238,2.623-0.518,4.227-0.518
			c13.478,0,24.986-4.866,30.556-17.953c3.033-7.125,2.264-15.938-0.462-22.958C30.162,39.475,17.662,34.968,4.938,34.968
			c-0.895,0-4.095,0.114-4.095,0.01c0-1.767,0-3.534,0-5.3c0-2.456,0-4.91,0-7.366c0-1.234-0.239-4.128,0.233-4.128
			c12.043,0,22.909,0.81,33.41,7.449c11.803,7.46,18.798,20.505,20.478,34.117c2.076,16.842-6.573,33.103-20.167,42.562
			c-10.301,7.168-21.912,7.741-33.958,7.741c-0.007,0-0.007,0.924,0,0.924c14.094,0,26.506-1.501,37.903-10.7
			c10.649-8.594,16.502-22.154,16.502-35.698c0-13.792-5.467-26.625-15.646-35.96C28.604,18.537,14.989,17.259,0.839,17.259
			c-0.005,0-0.004,0.438-0.004,0.461c0,5.903,0,11.806,0,17.709c0,0.023-0.001,0.462,0.004,0.462c6.842,0,13.293-0.226,19.77,2.431
			c9.538,3.91,15.31,13.401,16.718,23.262C38.95,72.954,32.11,83.599,22.56,89.046c-6.688,3.814-14.329,3.296-21.721,3.296
			c-0.005,0-0.004,0.439-0.004,0.464c0,5.902,0,11.806,0,17.709C0.834,111.036,0.843,111.036,0.843,110.515z"/>
	</g>
	<path fill="none" stroke="#CCCCCC" stroke-width="0.5878" stroke-miterlimit="1" d="M0.39,110.963V92.355h8.911
		c15.987,0,27.78-12.842,27.78-27.646c0-15.858-12.054-28.831-28.042-28.831H0.39V17.273h8.911
		c25.684,0,46.388,20.832,46.388,47.305c0,25.288-20.704,46.385-46.388,46.385H0.39z"/>
	<g opacity="0.58">
		<path fill="#959595" d="M0.391,110.963c0-3.522,0-7.044,0-10.567c0-2.141,0-4.278,0-6.417c0-2.104,0.594-1.545,2.677-1.545
			c12.923,0,24.101-2.703,30.885-14.855c3.665-6.566,3.777-14.314,1.939-21.395C32.514,43.162,20.308,35.802,7.46,35.802
			c-2.105,0-4.21,0-6.316,0c-1.268,0-0.753-1.286-0.753-2.37c0-4.846,0-9.692,0-14.539c0-2.997,5.643-1.544,8.134-1.544
			c6.556,0,12.785,1.208,18.86,3.669c30.739,12.45,36.766,53.995,14.151,76.74C30.152,109.21,15.638,110.887,0.39,110.887
			c-0.001,0-0.001,0.152,0,0.152c14.384,0,27.059-1.449,38.683-10.898c10.513-8.542,16.616-22.102,16.616-35.563
			c0-13.778-5.787-26.626-15.929-35.896C28.553,18.438,14.778,17.194,0.39,17.194c0,0,0,0.075,0,0.079c0,6.202,0,12.403,0,18.605
			c0,0.004,0,0.077,0,0.077c6.959,0,13.568-0.293,20.148,2.44c9.336,3.879,14.975,13.251,16.347,22.919
			c1.698,11.962-5.292,23.136-15.732,28.384c-6.417,3.226-13.814,2.581-20.763,2.581c0,0,0,0.072,0,0.076
			C0.39,98.558,0.39,104.762,0.391,110.963C0.39,111.049,0.391,111.049,0.391,110.963z"/>
	</g>
</g>
<g>
	<linearGradient id="SVGID_6_" gradientUnits="userSpaceOnUse" x1="100.0313" y1="110.9629" x2="100.0312" y2="17.2734">
		<stop  offset="0" style="stop-color:#C6C6C6"/>
		<stop  offset="0.618" style="stop-color:#B1B1B1"/>
		<stop  offset="0.6292" style="stop-color:#BEBEBE"/>
		<stop  offset="0.9831" style="stop-color:#B8B8B8"/>
	</linearGradient>
	<path fill="url(#SVGID_6_)" d="M127.679,17.273v18.605h-8.909c-15.986,0-27.781,12.844-27.781,27.648
		c0,15.858,12.057,28.829,28.041,28.829h8.649v18.607h-8.909c-25.685,0-46.387-20.834-46.387-47.304
		c0-25.292,20.702-46.386,46.387-46.386H127.679z"/>
	<g opacity="0.51">
		<linearGradient id="SVGID_7_" gradientUnits="userSpaceOnUse" x1="100.0313" y1="110.9629" x2="100.0312" y2="17.2734">
			<stop  offset="0" style="stop-color:#A6A6A6"/>
			<stop  offset="0.5" style="stop-color:#838383"/>
			<stop  offset="0.5378" style="stop-color:#898989"/>
			<stop  offset="0.6652" style="stop-color:#999999"/>
			<stop  offset="0.8086" style="stop-color:#A3A3A3"/>
			<stop  offset="1" style="stop-color:#A6A6A6"/>
		</linearGradient>
		<path fill="url(#SVGID_7_)" d="M127.679,17.273v18.605h-8.909c-15.986,0-27.781,12.844-27.781,27.648
			c0,15.858,12.057,28.829,28.041,28.829h8.649v18.607h-8.909c-25.685,0-46.387-20.834-46.387-47.304
			c0-25.292,20.702-46.386,46.387-46.386H127.679z"/>
	</g>
	<g opacity="0.7">
		<linearGradient id="SVGID_8_" gradientUnits="userSpaceOnUse" x1="100.0313" y1="17.2729" x2="100.0312" y2="110.9634">
			<stop  offset="0" style="stop-color:#FFFFFF;stop-opacity:0.77"/>
			<stop  offset="0.2033" style="stop-color:#FFFFFF;stop-opacity:0.65"/>
			<stop  offset="0.3448" style="stop-color:#FFFFFF;stop-opacity:0.65"/>
			<stop  offset="0.3462" style="stop-color:#FFFFFF;stop-opacity:0.65"/>
			<stop  offset="0.511" style="stop-color:#FFFFFF;stop-opacity:0"/>
			<stop  offset="0.5247" style="stop-color:#E1E1E1;stop-opacity:0.0045"/>
			<stop  offset="0.5464" style="stop-color:#B8B8B8;stop-opacity:0.0116"/>
			<stop  offset="0.5708" style="stop-color:#929292;stop-opacity:0.0196"/>
			<stop  offset="0.5974" style="stop-color:#727272;stop-opacity:0.0283"/>
			<stop  offset="0.6268" style="stop-color:#565656;stop-opacity:0.0379"/>
			<stop  offset="0.6599" style="stop-color:#404040;stop-opacity:0.0487"/>
			<stop  offset="0.6986" style="stop-color:#2F2F2F;stop-opacity:0.0614"/>
			<stop  offset="0.7465" style="stop-color:#242424;stop-opacity:0.0771"/>
			<stop  offset="0.8136" style="stop-color:#1D1D1D;stop-opacity:0.099"/>
			<stop  offset="1" style="stop-color:#1B1B1B;stop-opacity:0.16"/>
		</linearGradient>
		<path fill="url(#SVGID_8_)" d="M127.679,17.273v18.605h-8.909c-15.986,0-27.781,12.844-27.781,27.648
			c0,15.858,12.057,28.829,28.041,28.829h8.649v18.607h-8.909c-25.685,0-46.387-20.834-46.387-47.304
			c0-25.292,20.702-46.386,46.387-46.386H127.679z"/>
	</g>
	<g opacity="0.49">
		<path fill="#FFFFFF" d="M118.77,110.053c-32.57-0.59-54.786-33.601-42.157-64.179c5.333-12.917,16.995-22.296,30.23-26.122
			c5.282-1.526,10.715-1.569,16.158-1.569c0.898,0,4.224-0.113,4.224-0.01c0,2.172,0,4.345,0,6.518
			c0,1.636,0.249,10.277-0.231,10.277c-5.098,0-10.156-0.244-15.166,0.859C99.281,38.59,90.661,50.701,90.535,63.201
			c-0.095,9.582,3.868,18.238,11.306,24.29c4.827,3.933,11.271,5.777,17.42,5.777c2.065,0,4.133,0,6.198,0
			c2.233,0,1.766-0.424,1.766,2.069c0,4.499,0,8.996,0,13.494c0,1.952,0.068,1.221-1.82,1.221
			C123.192,110.053,120.981,110.053,118.77,110.053c-0.007,0-0.007,0.924,0,0.924c2.82,0,5.64,0,8.462,0
			c0.004,0,0.004-0.438,0.004-0.462c0-5.903,0-11.807,0-17.709c0-0.024,0-0.464-0.004-0.464c-6.841,0-13.295,0.226-19.771-2.429
			c-9.537-3.912-15.311-13.4-16.718-23.263c-1.624-11.367,5.217-22.014,14.767-27.462c6.688-3.815,14.331-3.296,21.723-3.296
			c0.004,0,0.004-0.439,0.004-0.462c0-5.903,0-11.806,0-17.709c0-0.023,0-0.461-0.004-0.461c-12.892,0-24.361,1.063-35.31,8.682
			C80.604,33.816,73.122,47.708,72.86,61.5c-0.504,26.697,18.555,48.979,45.909,49.477
			C118.771,110.977,118.782,110.055,118.77,110.053z"/>
	</g>
	<path fill="none" stroke="#CCCCCC" stroke-width="0.5878" stroke-miterlimit="1" d="M127.679,17.273v18.605h-8.909
		c-15.986,0-27.781,12.844-27.781,27.648c0,15.858,12.057,28.829,28.041,28.829h8.649v18.607h-8.909
		c-25.685,0-46.387-20.834-46.387-47.304c0-25.292,20.702-46.386,46.387-46.386H127.679z"/>
	<g opacity="0.58">
		<path fill="#959595" d="M127.678,17.273c0,3.522,0,7.045,0,10.567c0,2.14,0,4.278,0,6.417c0,2.104-0.593,1.545-2.676,1.545
			c-12.924,0-24.101,2.703-30.884,14.855c-3.667,6.567-3.778,14.314-1.941,21.395c3.379,13.021,15.585,20.382,28.432,20.382
			c2.107,0,4.213,0,6.318,0c1.269,0,0.751,1.284,0.751,2.367c0,4.849,0,9.695,0,14.541c0,2.997-5.641,1.545-8.131,1.545
			c-6.558,0-12.785-1.209-18.861-3.668C69.946,94.767,63.92,53.222,86.535,30.475c11.383-11.45,25.896-13.125,41.144-13.125
			c0.003,0,0.003-0.155,0-0.155c-14.383,0-27.056,1.453-38.682,10.899c-10.513,8.543-16.615,22.104-16.615,35.566
			c0,13.777,5.786,26.624,15.927,35.896c11.207,10.24,24.984,11.483,39.37,11.483c0.003,0,0.003-0.072,0.003-0.076
			c0-6.201,0-12.405,0-18.607c0-0.004,0-0.076-0.003-0.076c-6.957,0-13.568,0.294-20.148-2.439
			c-9.334-3.88-14.975-13.249-16.346-22.918c-1.698-11.965,5.293-23.138,15.733-28.386c6.416-3.226,13.813-2.581,20.761-2.581
			c0.003,0,0.003-0.073,0.003-0.077c0-6.202,0-12.404,0-18.605C127.682,17.185,127.678,17.185,127.678,17.273z"/>
	</g>
</g>
</svg>
