<?xml version="1.0" encoding="utf-8"?>
<!-- Generator: Adobe Illustrator 15.1.0, SVG Export Plug-In . SVG Version: 6.00 Build 0)  -->
<!DOCTYPE svg PUBLIC "-//W3C//DTD SVG 1.1//EN" "http://www.w3.org/Graphics/SVG/1.1/DTD/svg11.dtd">
<svg version="1.1" id="Layer_1" xmlns="http://www.w3.org/2000/svg" xmlns:xlink="http://www.w3.org/1999/xlink" x="0px" y="0px"
	 width="48px" height="48px" viewBox="0 0 48 48" enable-background="new 0 0 48 48" xml:space="preserve">
<g>
	<linearGradient id="SVGID_1_" gradientUnits="userSpaceOnUse" x1="2.1279" y1="23.9697" x2="45.8799" y2="23.9697">
		<stop  offset="0" style="stop-color:#F05A28"/>
		<stop  offset="0.9831" style="stop-color:#930500"/>
	</linearGradient>
	<path fill="url(#SVGID_1_)" d="M45.88,40.595c0,2.898-2.354,5.25-5.251,5.25H7.378c-2.9,0-5.25-2.352-5.25-5.25V7.344
		c0-2.899,2.351-5.25,5.25-5.25h33.25c2.897,0,5.251,2.35,5.251,5.25V40.595z"/>
	
		<radialGradient id="SVGID_2_" cx="30.3525" cy="38.6689" r="32.9095" gradientTransform="matrix(1 0 0 0.4883 0 19.7864)" gradientUnits="userSpaceOnUse">
		<stop  offset="0.4444" style="stop-color:#FFFFFF;stop-opacity:0"/>
		<stop  offset="0.9215" style="stop-color:#FFFFFF;stop-opacity:0.4637"/>
		<stop  offset="1" style="stop-color:#FFFFFF;stop-opacity:0.54"/>
	</radialGradient>
	<path opacity="0.58" fill="url(#SVGID_2_)" d="M45.88,40.595c0,2.898-2.354,5.25-5.251,5.25H7.378c-2.9,0-5.25-2.352-5.25-5.25
		V7.344c0-2.899,2.351-5.25,5.25-5.25h33.25c2.897,0,5.251,2.35,5.251,5.25V40.595z"/>
	<g opacity="0.49">
		<path fill="#FFFFFF" d="M7.378,45.158c-3.755-0.253-4.682-3.215-4.682-6.372c0-2.941,0-5.881,0-8.823c0-6.857,0-13.716,0-20.575
			c0-3.003,0.53-5.844,4.046-6.565c1.556-0.318,3.411-0.042,4.978-0.042c7.215,0,14.433,0,21.648,0
			c4.307,0,11.941-1.347,11.941,5.103c0,6.145,0,12.288,0,18.432c0,3.419,0,6.84,0,10.263c0,2.053,0.308,4.376-0.64,6.26
			c-1.249,2.484-4.012,2.32-6.332,2.32c-3.078,0-6.155,0-9.233,0C21.862,45.158,14.622,45.158,7.378,45.158
			c-0.002,0-0.002,0.236,0,0.236c10.981,0,21.961,0,32.943,0c5.786,0,4.992-5.903,4.992-9.821c0-7.249,0-14.498,0-21.747
			c0-3.831,1.223-11.283-4.72-11.283c-5.373,0-10.746,0-16.12,0c-5.653,0-11.305,0-16.958,0c-5.851,0-4.821,6.679-4.821,10.535
			c0,7.011,0,14.022,0,21.033c0,4.077-1.223,10.884,4.684,11.283C7.375,45.393,7.385,45.158,7.378,45.158z"/>
	</g>
	<path fill="none" stroke="#BE1E2D" stroke-width="0.25" stroke-miterlimit="1" d="M45.88,40.595c0,2.898-2.354,5.25-5.251,5.25
		H7.378c-2.9,0-5.25-2.352-5.25-5.25V7.344c0-2.899,2.351-5.25,5.25-5.25h33.25c2.897,0,5.251,2.35,5.251,5.25V40.595z"/>
	<g opacity="0.58">
		<path fill="#0D003B" d="M45.878,40.311c-0.24,3.884-3.238,5.24-6.627,5.24c-2.791,0-5.584,0-8.378,0c-6.981,0-13.962,0-20.943,0
			c-2.429,0-4.574,0.139-6.477-1.766c-1.698-1.698-1.322-4.409-1.322-6.589c0-7.126,0-14.246,0-21.371
			c0-4.506-1.545-13.436,5.384-13.436c5.654,0,11.306,0,16.958,0c5.374,0,10.747,0,16.12,0c7.002,0,5.283,9.812,5.283,14.279
			c0,7.978,0,15.951,0,23.926c0,0.335,0.005,0.335,0.005,0c0-10.981,0-21.962,0-32.943c0-3.189-1.94-5.647-5.253-5.854
			c-1.545-0.095-3.129,0-4.678,0c-7.234,0-14.47,0-21.705,0c-4.515,0-12.121-1.178-12.121,5.546c0,5.071,0,10.143,0,15.215
			c0,5.909,0,11.82,0,17.729c0,3.188,1.939,5.648,5.253,5.855c1.545,0.094,3.128,0,4.676,0c6.836,0,13.671,0,20.506,0
			c4.657,0,12.899,1.489,13.32-5.264C45.892,40.702,45.87,40.448,45.878,40.311z"/>
	</g>
</g>
<g>
	<linearGradient id="SVGID_3_" gradientUnits="userSpaceOnUse" x1="10.6323" y1="41.6191" x2="10.6323" y2="6.791">
		<stop  offset="0" style="stop-color:#C6C6C6"/>
		<stop  offset="0.618" style="stop-color:#B1B1B1"/>
		<stop  offset="0.6292" style="stop-color:#BEBEBE"/>
		<stop  offset="0.9831" style="stop-color:#B8B8B8"/>
	</linearGradient>
	<path fill="url(#SVGID_3_)" d="M0.354,41.619v-6.917h3.312c5.943,0,10.327-4.775,10.327-10.277c0-5.895-4.481-10.717-10.424-10.717
		H0.354V6.791h3.312c9.548,0,17.245,7.744,17.245,17.584c0,9.402-7.697,17.244-17.245,17.244H0.354z"/>
	<g opacity="0.51">
		<linearGradient id="SVGID_4_" gradientUnits="userSpaceOnUse" x1="10.6323" y1="41.6191" x2="10.6323" y2="6.791">
			<stop  offset="0" style="stop-color:#A6A6A6"/>
			<stop  offset="0.5" style="stop-color:#838383"/>
			<stop  offset="0.5378" style="stop-color:#898989"/>
			<stop  offset="0.6652" style="stop-color:#999999"/>
			<stop  offset="0.8086" style="stop-color:#A3A3A3"/>
			<stop  offset="1" style="stop-color:#A6A6A6"/>
		</linearGradient>
		<path fill="url(#SVGID_4_)" d="M0.354,41.619v-6.917h3.312c5.943,0,10.327-4.775,10.327-10.277
			c0-5.895-4.481-10.717-10.424-10.717H0.354V6.791h3.312c9.548,0,17.245,7.744,17.245,17.584c0,9.402-7.697,17.244-17.245,17.244
			H0.354z"/>
	</g>
	<g opacity="0.7">
		<linearGradient id="SVGID_5_" gradientUnits="userSpaceOnUse" x1="10.6323" y1="6.7905" x2="10.6323" y2="41.6196">
			<stop  offset="0" style="stop-color:#FFFFFF;stop-opacity:0.77"/>
			<stop  offset="0.2033" style="stop-color:#FFFFFF;stop-opacity:0.65"/>
			<stop  offset="0.3448" style="stop-color:#FFFFFF;stop-opacity:0.65"/>
			<stop  offset="0.3462" style="stop-color:#FFFFFF;stop-opacity:0.65"/>
			<stop  offset="0.511" style="stop-color:#FFFFFF;stop-opacity:0"/>
			<stop  offset="0.5247" style="stop-color:#E1E1E1;stop-opacity:0.0045"/>
			<stop  offset="0.5464" style="stop-color:#B8B8B8;stop-opacity:0.0116"/>
			<stop  offset="0.5708" style="stop-color:#929292;stop-opacity:0.0196"/>
			<stop  offset="0.5974" style="stop-color:#727272;stop-opacity:0.0283"/>
			<stop  offset="0.6268" style="stop-color:#565656;stop-opacity:0.0379"/>
			<stop  offset="0.6599" style="stop-color:#404040;stop-opacity:0.0487"/>
			<stop  offset="0.6986" style="stop-color:#2F2F2F;stop-opacity:0.0614"/>
			<stop  offset="0.7465" style="stop-color:#242424;stop-opacity:0.0771"/>
			<stop  offset="0.8136" style="stop-color:#1D1D1D;stop-opacity:0.099"/>
			<stop  offset="1" style="stop-color:#1B1B1B;stop-opacity:0.16"/>
		</linearGradient>
		<path fill="url(#SVGID_5_)" d="M0.354,41.619v-6.917h3.312c5.943,0,10.327-4.775,10.327-10.277
			c0-5.895-4.481-10.717-10.424-10.717H0.354V6.791h3.312c9.548,0,17.245,7.744,17.245,17.584c0,9.402-7.697,17.244-17.245,17.244
			H0.354z"/>
	</g>
	<g opacity="0.49">
		<path fill="#FFFFFF" d="M0.522,41.453c0-1.331,0-2.663,0-3.994c0-0.742,0-1.481,0-2.224c0-0.462,0.977-0.194,1.572-0.194
			c5.01,0,9.288-1.809,11.359-6.675c1.127-2.646,0.84-5.924-0.171-8.534c-1.86-4.789-6.508-6.463-11.237-6.463
			c-0.332,0-1.522,0.042-1.522,0.003c0-0.657,0-1.313,0-1.97c0-0.914,0-1.826,0-2.738c0-0.46-0.089-1.535,0.086-1.535
			c4.478,0,8.517,0.301,12.421,2.77c4.387,2.772,6.988,7.624,7.611,12.682c0.772,6.262-2.443,12.307-7.497,15.823
			c-3.828,2.665-8.145,2.878-12.624,2.878c-0.002,0-0.002,0.343,0,0.343c5.24,0,9.853-0.558,14.091-3.979
			c3.958-3.192,6.134-8.234,6.134-13.27c0-5.126-2.033-9.897-5.816-13.367C10.842,7.261,5.781,6.786,0.52,6.786
			c-0.002,0-0.001,0.163-0.001,0.171c0,2.195,0,4.389,0,6.583c0,0.009,0,0.172,0.001,0.172c2.545,0,4.942-0.085,7.35,0.903
			c3.545,1.454,5.692,4.982,6.214,8.648c0.603,4.228-1.938,8.183-5.489,10.209c-2.486,1.417-5.327,1.224-8.075,1.224
			c-0.002,0-0.001,0.164-0.001,0.174c0,2.192,0,4.387,0,6.583C0.519,41.647,0.522,41.647,0.522,41.453z"/>
	</g>
	<path fill="none" stroke="#CCCCCC" stroke-width="0.5878" stroke-miterlimit="1" d="M0.354,41.619v-6.917h3.312
		c5.943,0,10.327-4.775,10.327-10.277c0-5.895-4.481-10.717-10.424-10.717H0.354V6.791h3.312c9.548,0,17.245,7.744,17.245,17.584
		c0,9.402-7.697,17.244-17.245,17.244H0.354z"/>
	<g opacity="0.58">
		<path fill="#959595" d="M0.354,41.619c0-1.309,0-2.619,0-3.929c0-0.796,0-1.591,0-2.387c0-0.78,0.22-0.573,0.994-0.573
			c4.804,0,8.959-1.005,11.481-5.522c1.362-2.441,1.404-5.321,0.721-7.953c-1.255-4.84-5.792-7.576-10.569-7.576
			c-0.783,0-1.565,0-2.348,0c-0.471,0-0.279-0.478-0.279-0.881c0-1.802,0-3.603,0-5.405c0-1.113,2.097-0.573,3.023-0.573
			c2.438,0,4.753,0.449,7.011,1.364c11.426,4.628,13.667,20.071,5.262,28.527c-4.233,4.258-9.628,4.879-15.296,4.879v0.06
			c5.347,0,10.058-0.54,14.38-4.055c3.908-3.174,6.177-8.216,6.177-13.22c0-5.121-2.152-9.897-5.921-13.343
			C10.823,7.224,5.703,6.761,0.354,6.761c0,0,0,0.028,0,0.029c0,2.307,0,4.611,0,6.917c0,0.001,0,0.028,0,0.028
			c2.586,0,5.044-0.11,7.491,0.907c3.469,1.443,5.566,4.925,6.076,8.521c0.63,4.446-1.968,8.6-5.849,10.552
			c-2.385,1.198-5.135,0.957-7.718,0.957c0,0,0,0.027,0,0.029C0.354,37.008,0.354,39.314,0.354,41.619
			C0.354,41.651,0.354,41.651,0.354,41.619z"/>
	</g>
</g>
<g>
	<linearGradient id="SVGID_6_" gradientUnits="userSpaceOnUse" x1="37.3945" y1="41.6191" x2="37.3945" y2="6.791">
		<stop  offset="0" style="stop-color:#C6C6C6"/>
		<stop  offset="0.618" style="stop-color:#B1B1B1"/>
		<stop  offset="0.6292" style="stop-color:#BEBEBE"/>
		<stop  offset="0.9831" style="stop-color:#B8B8B8"/>
	</linearGradient>
	<path fill="url(#SVGID_6_)" d="M47.672,6.791v6.917H44.36c-5.943,0-10.328,4.774-10.328,10.278c0,5.895,4.481,10.716,10.425,10.716
		h3.215v6.917H44.36c-9.549,0-17.244-7.744-17.244-17.585c0-9.4,7.695-17.244,17.244-17.244H47.672z"/>
	<g opacity="0.51">
		<linearGradient id="SVGID_7_" gradientUnits="userSpaceOnUse" x1="37.3945" y1="41.6191" x2="37.3945" y2="6.791">
			<stop  offset="0" style="stop-color:#A6A6A6"/>
			<stop  offset="0.5" style="stop-color:#838383"/>
			<stop  offset="0.5378" style="stop-color:#898989"/>
			<stop  offset="0.6652" style="stop-color:#999999"/>
			<stop  offset="0.8086" style="stop-color:#A3A3A3"/>
			<stop  offset="1" style="stop-color:#A6A6A6"/>
		</linearGradient>
		<path fill="url(#SVGID_7_)" d="M47.672,6.791v6.917H44.36c-5.943,0-10.328,4.774-10.328,10.278
			c0,5.895,4.481,10.716,10.425,10.716h3.215v6.917H44.36c-9.549,0-17.244-7.744-17.244-17.585c0-9.4,7.695-17.244,17.244-17.244
			H47.672z"/>
	</g>
	<g opacity="0.7">
		<linearGradient id="SVGID_8_" gradientUnits="userSpaceOnUse" x1="37.3945" y1="6.7905" x2="37.3945" y2="41.6196">
			<stop  offset="0" style="stop-color:#FFFFFF;stop-opacity:0.77"/>
			<stop  offset="0.2033" style="stop-color:#FFFFFF;stop-opacity:0.65"/>
			<stop  offset="0.3448" style="stop-color:#FFFFFF;stop-opacity:0.65"/>
			<stop  offset="0.3462" style="stop-color:#FFFFFF;stop-opacity:0.65"/>
			<stop  offset="0.511" style="stop-color:#FFFFFF;stop-opacity:0"/>
			<stop  offset="0.5247" style="stop-color:#E1E1E1;stop-opacity:0.0045"/>
			<stop  offset="0.5464" style="stop-color:#B8B8B8;stop-opacity:0.0116"/>
			<stop  offset="0.5708" style="stop-color:#929292;stop-opacity:0.0196"/>
			<stop  offset="0.5974" style="stop-color:#727272;stop-opacity:0.0283"/>
			<stop  offset="0.6268" style="stop-color:#565656;stop-opacity:0.0379"/>
			<stop  offset="0.6599" style="stop-color:#404040;stop-opacity:0.0487"/>
			<stop  offset="0.6986" style="stop-color:#2F2F2F;stop-opacity:0.0614"/>
			<stop  offset="0.7465" style="stop-color:#242424;stop-opacity:0.0771"/>
			<stop  offset="0.8136" style="stop-color:#1D1D1D;stop-opacity:0.099"/>
			<stop  offset="1" style="stop-color:#1B1B1B;stop-opacity:0.16"/>
		</linearGradient>
		<path fill="url(#SVGID_8_)" d="M47.672,6.791v6.917H44.36c-5.943,0-10.328,4.774-10.328,10.278
			c0,5.895,4.481,10.716,10.425,10.716h3.215v6.917H44.36c-9.549,0-17.244-7.744-17.244-17.585c0-9.4,7.695-17.244,17.244-17.244
			H47.672z"/>
	</g>
	<g opacity="0.49">
		<path fill="#FFFFFF" d="M44.36,41.281C32.252,41.061,23.994,28.79,28.688,17.424c1.983-4.802,6.318-8.289,11.237-9.711
			c1.964-0.568,3.983-0.583,6.008-0.583c0.332,0,1.57-0.042,1.57-0.004c0,0.809,0,1.615,0,2.423c0,0.608,0.092,3.821-0.087,3.821
			c-1.896,0-3.776-0.09-5.638,0.319c-4.664,1.026-7.869,5.528-7.916,10.175c-0.034,3.562,1.438,6.78,4.204,9.03
			c1.794,1.462,4.189,2.147,6.477,2.147c0.767,0,1.535,0,2.303,0c0.831,0,0.657-0.157,0.657,0.769c0,1.674,0,3.346,0,5.017
			c0,0.728,0.024,0.455-0.679,0.455C46.004,41.281,45.181,41.281,44.36,41.281c-0.003,0-0.003,0.343,0,0.343
			c1.047,0,2.096,0,3.146,0c0.002,0,0.002-0.161,0.002-0.171c0-2.196,0-4.391,0-6.583c0-0.01,0-0.174-0.002-0.174
			c-2.544,0-4.943,0.086-7.35-0.903c-3.546-1.453-5.691-4.979-6.214-8.646c-0.604-4.227,1.938-8.184,5.487-10.21
			c2.487-1.417,5.328-1.224,8.076-1.224c0.002,0,0.002-0.164,0.002-0.172c0-2.194,0-4.388,0-6.583c0-0.009,0-0.171-0.002-0.171
			c-4.793,0-9.057,0.395-13.126,3.228c-4.208,2.927-6.989,8.091-7.087,13.217C27.106,33.155,34.19,41.44,44.36,41.624
			C44.361,41.624,44.365,41.281,44.36,41.281z"/>
	</g>
	<path fill="none" stroke="#CCCCCC" stroke-width="0.5878" stroke-miterlimit="1" d="M47.672,6.791v6.917H44.36
		c-5.943,0-10.328,4.774-10.328,10.278c0,5.895,4.481,10.716,10.425,10.716h3.215v6.917H44.36c-9.549,0-17.244-7.744-17.244-17.585
		c0-9.4,7.695-17.244,17.244-17.244H47.672z"/>
	<g opacity="0.58">
		<path fill="#959595" d="M47.672,6.791c0,1.31,0,2.619,0,3.929c0,0.795,0,1.589,0,2.384c0,0.783-0.22,0.575-0.996,0.575
			c-4.804,0-8.958,1.005-11.48,5.522c-1.362,2.441-1.403,5.322-0.721,7.953c1.254,4.843,5.793,7.577,10.568,7.577
			c0.784,0,1.565,0,2.351,0c0.469,0,0.278,0.478,0.278,0.879c0,1.803,0,3.605,0,5.407c0,1.115-2.097,0.573-3.023,0.573
			c-2.438,0-4.753-0.448-7.01-1.362c-11.428-4.63-13.668-20.072-5.262-28.529c4.231-4.257,9.627-4.879,15.295-4.879
			c0.001,0,0.001-0.059,0-0.059c-5.347,0-10.058,0.541-14.379,4.052c-3.909,3.176-6.177,8.217-6.177,13.221
			c0,5.122,2.15,9.897,5.922,13.344c4.163,3.808,9.286,4.271,14.634,4.271c0.001,0,0.001-0.027,0.001-0.03c0-2.305,0-4.611,0-6.917
			c0-0.002,0-0.029-0.001-0.029c-2.587,0-5.045,0.111-7.489-0.907c-3.471-1.44-5.567-4.923-6.078-8.519
			c-0.629-4.449,1.97-8.602,5.85-10.552c2.384-1.2,5.135-0.959,7.718-0.959c0.001,0,0.001-0.027,0.001-0.028
			C47.673,11.402,47.673,9.097,47.672,6.791C47.673,6.758,47.672,6.758,47.672,6.791z"/>
	</g>
</g>
</svg>
