<svg width="1024" height="1024" xmlns="http://www.w3.org/2000/svg" class="svg-icon" version="1.1">
 <g>
  <title>Layer 1</title>
  <path stroke="null" d="m431.64487,686.72516a158.85712,155.99306 0 1 1 165.37027,-2.80786l-38.86707,-38.1662a105.90475,103.99538 0 1 0 -87.10666,2.31384l-39.39655,38.66022zm-76.3573,74.98065a264.39117,259.62445 0 0 1 -108.04935,-209.5766c0,-143.59164 118.53391,-259.98849 264.76184,-259.98849s264.76178,116.39685 264.76178,259.98843a264.33826,259.57245 0 0 1 -103.76001,206.43079l-37.86108,-37.17834a211.80949,207.99074 0 1 0 -241.88638,3.04187l-37.94037,37.25647l-0.02643,0.02588zm-75.48361,74.1488a369.97821,363.30783 0 0 1 -138.47046,-283.7254c0,-201.0231 165.95273,-363.98383 370.66656,-363.98383s370.66663,162.96072 370.66663,363.98376c0,112.83508 -52.26398,213.63257 -134.31366,280.39752l-37.62268,-36.9444a317.13174,311.41415 0 0 0 118.98389,-243.45306c0,-172.29437 -142.25659,-311.98613 -317.71417,-311.98613s-317.71423,139.69176 -317.71423,311.98613a317.18469,311.46613 0 0 0 123.19366,246.70294l-37.6756,37.02246l0.00006,0z" fill="#979797" id="svg_1"/>
  <path d="m512,552m-42.66669,0a42.66667,42.66667 0 1 0 85.33337,0a42.66667,42.66667 0 1 0 -85.33337,0z" fill="#979797" id="svg_2"/>
 </g>

</svg>