<svg xmlns="http://www.w3.org/2000/svg" fill="none" viewBox="-47.5 -47.5 336 336" id="Mac-Finder-Logo--Streamline-Logos" height="336" width="336">
  <desc>
    Mac Finder Logo Streamline Icon: https://streamlinehq.com
  </desc>
  <path stroke="#000000" stroke-linecap="round" stroke-linejoin="round" d="M125.52083333333333 15.0625c-8.364708333333333 20.083333333333332 -25.104166666666664 72.3 -25.104166666666664 120.5h30.125c0 25.47570833333333 2.0083333333333333 66.27499999999999 10.041666666666666 90.375" stroke-width="15"></path>
  <path stroke="#000000" stroke-linecap="round" stroke-linejoin="round" d="M65.27083333333333 75.3125v20.083333333333332" stroke-width="15"></path>
  <path stroke="#000000" stroke-linecap="round" stroke-linejoin="round" d="M165.6875 75.3125v20.083333333333332" stroke-width="15"></path>
  <path stroke="#000000" stroke-linecap="round" stroke-linejoin="round" d="M55.229166666666664 155.64583333333331c6.697791666666666 10.041666666666666 29.12083333333333 30.125 65.27083333333333 30.125s56.906124999999996 -20.083333333333332 65.27083333333333 -30.125" stroke-width="15"></path>
  <path stroke="#000000" stroke-linecap="round" stroke-linejoin="round" d="M15.0625 185.77083333333331v-130.54166666666666a40.166666666666664 40.166666666666664 0 0 1 40.166666666666664 -40.166666666666664h130.54166666666666a40.166666666666664 40.166666666666664 0 0 1 40.166666666666664 40.166666666666664v130.54166666666666a40.166666666666664 40.166666666666664 0 0 1 -40.166666666666664 40.166666666666664h-130.54166666666666a40.166666666666664 40.166666666666664 0 0 1 -40.166666666666664 -40.166666666666664Z" stroke-width="15"></path>
</svg>