<?xml version="1.0" encoding="UTF-8"?>
<svg width="48px" height="48px" xmlns="http://www.w3.org/2000/svg" xmlns:cc="http://creativecommons.org/ns#" xmlns:dc="http://purl.org/dc/elements/1.1/" xmlns:rdf="http://www.w3.org/1999/02/22-rdf-syntax-ns#" xmlns:xlink="http://www.w3.org/1999/xlink">
 <defs>
  <radialGradient id="radialGradient6719" cx="605.71" cy="486.65" r="117.14" gradientTransform="matrix(-2.7744 0 0 1.9697 112.76 -872.89)" gradientUnits="userSpaceOnUse" xlink:href="#linearGradient5060"/>
  <linearGradient id="linearGradient5060">
   <stop offset="0"/>
   <stop stop-opacity="0" offset="1"/>
  </linearGradient>
  <radialGradient id="radialGradient6717" cx="605.71" cy="486.65" r="117.14" gradientTransform="matrix(2.7744 0 0 1.9697 -1891.6 -872.89)" gradientUnits="userSpaceOnUse" xlink:href="#linearGradient5060"/>
  <linearGradient id="linearGradient6715" x1="302.86" x2="302.86" y1="366.65" y2="609.51" gradientTransform="matrix(2.7744 0 0 1.9697 -1892.2 -872.89)" gradientUnits="userSpaceOnUse">
   <stop stop-opacity="0" offset="0"/>
   <stop offset=".5"/>
   <stop stop-opacity="0" offset="1"/>
  </linearGradient>
  <linearGradient id="linearGradient4234" x1="7.6046" x2="36.183" y1="28.481" y2="40.944" gradientTransform="translate(0 -1.9445)" gradientUnits="userSpaceOnUse">
   <stop stop-color="#bbb" offset="0"/>
   <stop stop-color="#9f9f9f" offset="1"/>
  </linearGradient>
  <radialGradient id="radialGradient4250" cx="15.571" cy="2.9585" r="20.936" gradientTransform="matrix(1.2862 .7817 -.71078 1.1696 -2.3543 -6.8214)" gradientUnits="userSpaceOnUse">
   <stop stop-color="#e4e4e4" offset="0"/>
   <stop stop-color="#d3d3d3" offset="1"/>
  </radialGradient>
  <linearGradient id="linearGradient4260" x1="12.378" x2="44.096" y1="4.4331" y2="47.621" gradientTransform="translate(0 -1.9445)" gradientUnits="userSpaceOnUse">
   <stop stop-color="#fff" offset="0"/>
   <stop stop-color="#fff" stop-opacity="0" offset="1"/>
  </linearGradient>
  <linearGradient id="linearGradient2155" x1="14.997" x2="32.511" y1="11.188" y2="34.308" gradientTransform="matrix(.95253 0 0 .65672 1.3455 19.22)" gradientUnits="userSpaceOnUse">
   <stop stop-color="#EBEBEB" offset="0"/>
   <stop stop-color="#fff" offset=".5"/>
   <stop stop-color="#EBEBEB" offset="1"/>
  </linearGradient>
  <linearGradient id="linearGradient2161" x1="10.502" x2="48.799" y1="3.61" y2="54.698" gradientTransform="matrix(.73893 0 0 .50946 6.2158 21.992)" gradientUnits="userSpaceOnUse">
   <stop stop-color="#fff" offset="0"/>
   <stop stop-color="#fff" stop-opacity="0" offset="1"/>
  </linearGradient>
  <radialGradient id="radialGradient2171" cx="24.218" cy="33.769" r="17.678" gradientTransform="matrix(1 0 0 .695 0 10.3)" gradientUnits="userSpaceOnUse">
   <stop offset="0"/>
   <stop stop-opacity="0" offset="1"/>
  </radialGradient>
  <linearGradient id="linearGradient2321" x1="24.307" x2="24.307" y1="33.693" y2="37.609" gradientUnits="userSpaceOnUse">
   <stop stop-color="#656565" offset="0"/>
   <stop stop-color="#656565" stop-opacity="0" offset="1"/>
  </linearGradient>
  <linearGradient id="linearGradient2335" x1="23.375" x2="23.375" y1="28.434" y2="32.938" gradientUnits="userSpaceOnUse" xlink:href="#linearGradient5060"/>
  <linearGradient id="linearGradient2341" x1="24.307" x2="24.307" y1="32.791" y2="34.201" gradientTransform="matrix(1 0 0 .79943 -9.6537e-16 6.6046)" gradientUnits="userSpaceOnUse">
   <stop stop-color="#656565" offset="0"/>
   <stop stop-color="#656565" stop-opacity="0" offset="1"/>
  </linearGradient>
  <linearGradient id="linearGradient2343" x1="26.333" x2="26.194" y1="34.172" y2="21.988" gradientTransform="matrix(.80013 0 0 .55165 4.7255 20.599)" gradientUnits="userSpaceOnUse">
   <stop stop-color="#d9d9d9" offset="0"/>
   <stop stop-color="#eee" stop-opacity="0" offset="1"/>
  </linearGradient>
 </defs>
 <metadata>
  <rdf:RDF>
   <cc:Work rdf:about="">
    <dc:format>image/svg+xml</dc:format>
    <dc:type rdf:resource="http://purl.org/dc/dcmitype/StillImage"/>
    <dc:title>Drive - CD-ROM</dc:title>
    <dc:creator>
     <cc:Agent>
      <dc:title>Jakub Steiner</dc:title>
     </cc:Agent>
    </dc:creator>
    <dc:subject>
     <rdf:Bag>
      <rdf:li>cdrom</rdf:li>
      <rdf:li>cd-rom</rdf:li>
      <rdf:li>optical</rdf:li>
      <rdf:li>drive</rdf:li>
     </rdf:Bag>
    </dc:subject>
    <cc:license rdf:resource="http://creativecommons.org/licenses/publicdomain/"/>
    <dc:identifier/>
    <dc:source>http://jimmac.musichall.cz</dc:source>
   </cc:Work>
   <cc:License rdf:about="http://creativecommons.org/licenses/publicdomain/">
    <cc:permits rdf:resource="http://creativecommons.org/ns#Reproduction"/>
    <cc:permits rdf:resource="http://creativecommons.org/ns#Distribution"/>
    <cc:permits rdf:resource="http://creativecommons.org/ns#DerivativeWorks"/>
   </cc:License>
  </rdf:RDF>
 </metadata>
 <g transform="matrix(.024527 0 0 .020868 45.691 34.828)">
  <rect x="-1559.3" y="-150.7" width="1339.6" height="478.36" color="black" fill="url(#linearGradient6715)" opacity=".40206"/>
  <path d="m-219.62-150.68v478.33c142.87 0.90045 345.4-107.17 345.4-239.2 0-132.03-159.44-239.13-345.4-239.13z" color="black" fill="url(#radialGradient6717)" opacity=".40206"/>
  <path d="m-1559.3-150.68v478.33c-142.87 0.90045-345.4-107.17-345.4-239.2 0-132.03 159.44-239.13 345.4-239.13z" color="black" fill="url(#radialGradient6719)" opacity=".40206"/>
 </g>
 <path d="m11.286 6.0181c-0.625 0-1.0312 0.29018-1.2812 0.84375-1e-6 0-6.4688 17.104-6.4688 17.104s-0.25 0.67156-0.25 1.7812v9.65c0 1.0826 0.65779 1.625 1.6562 1.625h38.562c0.98485 0 1.5938-0.71818 1.5938-1.8438v-9.65s0.10596-0.77042-0.09375-1.3125l-6.7188-17.197c-0.18452-0.51191-0.6369-0.9881-1.125-1h-25.875z" fill="none" stroke="#535353" stroke-linecap="round" stroke-linejoin="round" stroke-width="2"/>
 <g fill-rule="evenodd">
  <path transform="translate(.88388 1.2609e-6)" d="m41.896 33.769a17.678 12.286 0 1 1-35.355 0 17.678 12.286 0 1 1 35.355 0z" color="#000000" fill="url(#radialGradient2171)" opacity=".56571"/>
  <path d="m3.2736 25.052 0.7646-0.69222 37.61 0.0625 3.4624 0.3173v10.439c0 1.1256-0.60702 1.8433-1.5919 1.8433h-38.583c-0.99846 0-1.6618-0.54205-1.6618-1.6247v-10.345z" fill="url(#linearGradient4234)"/>
  <path d="m3.5491 23.97c-0.71429 1.4643-6.156e-4 2.3929 1.0357 2.3929h39c1.119-0.02381 1.8452-1.0119 1.4286-2.1429l-6.7143-17.211c-0.18452-0.51191-0.65476-0.9881-1.1429-1h-25.857c-0.625 0-1.0357 0.30357-1.2857 0.85715l-6.4643 17.104z" fill="url(#radialGradient4250)"/>
  <path d="m44.796 23.684c0.063522 1.25-0.414 2.3158-1.3221 2.3438 0 0-38.119-1e-6 -38.119 0-1.2892 0-1.8677-0.32495-2.0841-0.86806 0.091761 0.94433 0.82582 1.6493 2.0841 1.6493-1e-7 -1e-6 38.119 0 38.119 0 1.076-0.033071 1.7528-1.424 1.3522-2.9948l-0.030048-0.13021z" fill="#fff"/>
 </g>
 <path d="m11.643 6.4712c-0.60169 0-0.99279 0.27936-1.2335 0.81229-1e-6 0-6.415 16.591-6.415 16.591s-0.24068 0.64652-0.24068 1.7148v9.2901c0 1.3547 0.44406 1.6269 1.5945 1.6269h37.687c1.3231 0 1.5343-0.3164 1.5343-1.8375v-9.2901s0.10201-0.74169-0.090255-1.2636l-6.5932-16.806c-0.17764-0.49282-0.55065-0.82625-1.0205-0.83771h-25.223z" fill="none" stroke="url(#linearGradient4260)" stroke-linecap="round" stroke-linejoin="round"/>
 <g transform="matrix(.93365 0 0 .93365 1.6127 -.36777)">
  <rect x="5.3414" y="32.363" width="37.931" height="3.865" color="#000000" fill="url(#linearGradient2321)" fill-rule="evenodd"/>
  <g>
   <path d="m7.9921 31.81c-0.27494 0.83102-0.46875 1.7034-0.46875 2.5938-1e-6 6.3702 7.4479 11.469 16.687 11.469 9.2396 0 16.656-5.0985 16.656-11.469 0-0.88658-0.16482-1.766-0.4375-2.5938h-15.563c1.8398 0.24517 3.3438 1.2594 3.3438 2.5938 0 1.5105-1.8092 2.75-4 2.75-2.1908 0-4-1.2395-4-2.75 1e-6 -1.3344 1.5039-2.3486 3.3438-2.5938h-15.562z" fill="url(#linearGradient2155)"/>
   <path d="m7.8359 32.342c-0.17255 0.66581-0.3125 1.3613-0.3125 2.0625 0 6.3702 7.4479 11.469 16.687 11.469 9.2396 0 16.656-5.0985 16.656-11.469 0-0.70121-0.13995-1.3967-0.3125-2.0625h-32.719z" fill="url(#linearGradient2343)" stroke="#808080"/>
   <path d="m16.572 31.835c-0.77349 0.91998-1.325 1.4593-1.325 2.5876-1e-6 3.473 4.1104 6.2064 9.0306 6.2064 5.0374-1e-6 9.0306-2.8141 9.0306-6.2064 0-1.1449-0.58624-1.673-1.3598-2.5876h-5.377c1.6779 0.54343 2.6224 1.2369 2.6224 2.5876 1e-6 1.8577-2.2219 3.3821-4.9163 3.3821-2.6944 0-4.9163-1.5245-4.9163-3.3821 0-1.3514 0.91933-2.0446 2.5988-2.5876h-5.3882z" opacity=".11"/>
   <path d="m18.574 44.743 3.7888-7.5308c-0.87715-0.21569-1.5486-0.63911-1.9724-1.1963l-10.378 3.5883c1.7499 2.3854 4.7947 4.2405 8.5621 5.1389z" fill="#fff" fill-opacity=".41808"/>
  </g>
  <path d="m8.9118 32.268c-0.24877 0.73987-0.40404 1.6796-0.40404 2.4734 0 5.5906 7.5944 10.072 15.703 10.072 8.1087-1e-6 15.502-4.4816 15.502-10.072-1e-6 -0.79429-0.1838-1.7331-0.4329-2.4734h-30.368z" fill="none" opacity=".54645" stroke="url(#linearGradient2161)"/>
  <rect x="5.3414" y="31.627" width="37.864" height="1.1912" color="#000000" fill="url(#linearGradient2341)" fill-rule="evenodd"/>
 </g>
 <path d="m26.312 30.25h13.75s0.54146 1.121-0.0625 3.375l-13.312-0.5c1.8504-1.8504-0.375-2.875-0.375-2.875z" fill="url(#linearGradient2335)" fill-rule="evenodd" opacity=".36"/>
 <path d="m22.098 30.25h-13.75s-0.54146 1.121 0.0625 3.375l13.312-0.5c-1.8504-1.8504 0.375-2.875 0.375-2.875z" fill="url(#linearGradient2335)" fill-rule="evenodd" opacity=".36"/>
</svg>
