<?xml version="1.0" encoding="UTF-8"?>
<svg width="128" height="128" version="1.0" viewBox="0 0 128 128" xml:space="preserve" xmlns="http://www.w3.org/2000/svg" xmlns:cc="http://web.resource.org/cc/" xmlns:dc="http://purl.org/dc/elements/1.1/" xmlns:rdf="http://www.w3.org/1999/02/22-rdf-syntax-ns#" xmlns:xlink="http://www.w3.org/1999/xlink"><metadata><rdf:RDF><cc:Work rdf:about=""><dc:format>image/svg+xml</dc:format><dc:type rdf:resource="http://purl.org/dc/dcmitype/StillImage"/></cc:Work></rdf:RDF></metadata><defs><filter id="filter3858"><feGaussianBlur stdDeviation="2.29"/></filter><linearGradient id="linearGradient3431" x1="64.001" x2="64.001" y1="94" y2="17" gradientUnits="userSpaceOnUse"><stop stop-color="#ffbf80" offset=".3965"/><stop stop-color="#fdba7d" offset=".4323"/><stop stop-color="#f7a971" offset=".6024"/><stop stop-color="#f39e6a" offset=".7849"/><stop stop-color="#f29b68" offset="1"/></linearGradient><linearGradient id="linearGradient3473" x1="64" x2="64" y1="101.72" y2="6.5005" gradientUnits="userSpaceOnUse"><stop stop-color="#ddd" offset="0"/><stop stop-color="#e3e3e3" offset=".3335"/><stop stop-color="#f4f4f4" offset=".7789"/><stop stop-color="#fff" offset="1"/></linearGradient><radialGradient id="radialGradient3476" cx="63" cy="124" r="162" gradientUnits="userSpaceOnUse"><stop stop-color="#eeeeec" offset="0"/><stop stop-color="#fafaf9" offset=".2777"/><stop stop-color="#fff" offset=".5385"/><stop stop-color="#fbfbfb" offset=".6335"/><stop stop-color="#f1f1ef" offset=".7282"/><stop stop-color="#eeeeec" offset=".7456"/><stop stop-color="#f2f2f0" offset=".8624"/><stop stop-color="#fcfcfc" offset=".9787"/><stop stop-color="#fff" offset="1"/></radialGradient><radialGradient id="radialGradient3479" cx="63" cy="124" r="162" gradientUnits="userSpaceOnUse"><stop stop-color="#888" offset="0"/><stop stop-color="#939393" offset=".0025"/><stop stop-color="#bababa" offset=".0125"/><stop stop-color="#d7d7d7" offset=".0216"/><stop stop-color="#e8e8e8" offset=".0296"/><stop stop-color="#eee" offset=".0355"/><stop stop-color="#bbb" offset=".6154"/><stop stop-color="#bfbfbf" offset=".6824"/><stop stop-color="#cbcbcb" offset=".7492"/><stop stop-color="#ddd" offset=".8107"/></radialGradient><linearGradient id="linearGradient3482" x1="64.001" x2="64.001" y1="104.85" y2="101.98" gradientUnits="userSpaceOnUse"><stop stop-color="#ddd" offset="0"/><stop stop-color="#fdfdfd" offset=".525"/><stop stop-color="#fff" offset=".5621"/></linearGradient><linearGradient id="linearGradient3485" x1="64.001" x2="64.001" y1="115.32" y2="101.01" gradientUnits="userSpaceOnUse"><stop stop-color="#ddd" offset="0"/><stop stop-color="#bbb" offset=".2738"/><stop stop-color="#9f9f9f" offset=".5617"/><stop stop-color="#8e8e8e" offset=".8136"/><stop stop-color="#888" offset="1"/></linearGradient><linearGradient id="linearGradient3488" x1="64.001" x2="64.001" y1="116.5" y2="101.83" gradientUnits="userSpaceOnUse"><stop stop-color="#bbb" offset="0"/><stop stop-color="#9f9f9f" offset=".0954"/><stop stop-color="#8e8e8e" offset=".18"/><stop stop-color="#888" offset=".2426"/><stop stop-color="#888" offset="1"/></linearGradient><linearGradient id="linearGradient3491" x1="64.001" x2="64.001" y1="116.5" y2="101.83" gradientUnits="userSpaceOnUse"><stop stop-color="#888" offset="0"/><stop stop-color="#656565" offset=".2792"/><stop stop-color="#494949" offset=".565"/><stop stop-color="#383838" offset=".815"/><stop stop-color="#323232" offset="1"/></linearGradient></defs>

<path transform="matrix(1 0 0 .97545 0 2.9586)" d="m19.2 5.5c-1.972 0-3.571 1.262-3.72 2.935l-8.467 94.827c-2e-3 0.029-4e-3 0.06-4e-3 0.089 0 0.028 1e-3 0.056 3e-3 0.084 0 0 0.013 0.155 0.025 0.301-4e-3 0.036-0.037 0.059-0.037 0.097v12.872c0 2.093 1.763 3.795 3.93 3.795h106.14c2.167 0 3.93-1.702 3.93-3.795v-12.872c0-0.038-0.033-0.061-0.037-0.098 0.012-0.152 0.024-0.31 0.024-0.31 2e-3 -0.026 3e-3 -0.053 3e-3 -0.079 0-0.029-1e-3 -0.06-4e-3 -0.089l-8.466-94.823c-0.146-1.672-1.745-2.934-3.72-2.934h-89.6z" filter="url(#filter3858)" opacity=".6"/>
<path d="m121 114.7c0 0.991-0.896 1.795-2 1.795h-110c-1.104 0-2-0.804-2-1.795v-12.872h114v12.872z" fill="url(#linearGradient3491)"/><path d="m121 114.7c0 0.991-0.896 1.795-2 1.795h-110c-1.104 0-2-0.804-2-1.795v-12.872h114v12.872z" fill="url(#linearGradient3488)"/><path d="m119 113.59c-0.044 0.957-0.944 1.732-2.008 1.732h-105.98c-1.064 0-1.963-0.775-2.009-1.732l-0.589-12.571h111.17l-0.59 12.571z" fill="url(#linearGradient3485)"/><path d="m7 101.98c0.738 1.269 1.89 2.876 2.792 2.876h108.42c0.902 0 2.055-1.607 2.792-2.876h-114z" fill="url(#linearGradient3482)"/><path d="m17.571 5.5c-0.933 0-1.734 0.497-1.791 1.112l-8.775 94.828c-0.08 0.861 0.753 1.56 1.861 1.56h110.27c1.106 0 1.94-0.699 1.859-1.561l-8.774-94.827c-0.057-0.615-0.858-1.112-1.791-1.112h-92.858z" fill="url(#radialGradient3479)"/><path d="m17.571 6.5c-0.458 0-0.764 0.193-0.814 0.273 0 0.135-8.757 94.758-8.757 94.758v0.024c0 0.036 0.01 0.095 0.08 0.171 0.12 0.132 0.39 0.274 0.786 0.274h110.27c0.396 0 0.665-0.142 0.786-0.274 0.087-0.096 0.08-0.163 0.077-0.192 0-2e-3 -8.774-94.829-8.774-94.829-0.031-0.011-0.336-0.204-0.795-0.204h-92.858v-1e-3z" fill="url(#radialGradient3476)"/><path d="m16.757 7.773c0.05-0.081 0.355-0.273 0.814-0.273h92.858c0.459 0 0.764 0.193 0.795 0.204 0 0 7.854 84.872 8.699 94.018 0.083-0.093 0.078-0.159 0.075-0.188 0-2e-3 -8.774-94.829-8.774-94.829-0.031-0.011-0.336-0.204-0.795-0.204h-92.858c-0.458 0-0.764 0.193-0.814 0.273 0 0.134-8.757 94.757-8.757 94.757v0.024c0 0.035 0.012 0.092 0.076 0.165 0.845-9.138 8.681-93.819 8.681-93.947z" fill="url(#linearGradient3473)" opacity=".8"/>
		
			<linearGradient id="XMLID_20_" x1="180.37" x2="188.83" y1="-157.96" y2="-157.96" gradientTransform="matrix(0 -1 1 0 183 295.08)" gradientUnits="userSpaceOnUse">
			<stop stop-color="#ddd" offset="0"/>
			<stop stop-color="#bbb" offset=".2738"/>
			<stop stop-color="#9f9f9f" offset=".5617"/>
			<stop stop-color="#8e8e8e" offset=".8136"/>
			<stop stop-color="#888" offset="1"/>
		</linearGradient>
		<path d="m25.034 114.71c2.331 0 4.229-1.897 4.229-4.229s-1.897-4.229-4.229-4.229-4.229 1.897-4.229 4.229 1.897 4.229 4.229 4.229z" fill="url(#XMLID_20_)"/>
		<radialGradient id="XMLID_21_" cx="25.037" cy="110.48" r="3.0208" fx="25" fy="110" gradientUnits="userSpaceOnUse">
			<stop stop-color="#f0ff80" offset="0"/>
			<stop stop-color="#edfe77" offset=".0509"/>
			<stop stop-color="#e3fc5f" offset=".1338"/>
			<stop stop-color="#d4f937" offset=".2385"/>
			<stop stop-color="#bff500" offset=".3599"/>
			<stop stop-color="#bff500" offset=".3609"/>
			<stop stop-color="#bcf400" offset=".4825"/>
			<stop stop-color="#b4f200" offset=".555"/>
			<stop stop-color="#a6ee00" offset=".6147"/>
			<stop stop-color="#92e800" offset=".6674"/>
			<stop stop-color="#77e100" offset=".7154"/>
			<stop stop-color="#57d800" offset=".7602"/>
			<stop stop-color="#31cd00" offset=".8024"/>
			<stop stop-color="#06c100" offset=".8414"/>
			<stop stop-color="#00bf00" offset=".8462"/>
			<stop stop-color="#008c00" offset="1"/>
		</radialGradient>
		<circle cx="25.037" cy="110.48" r="3.021" fill="url(#XMLID_21_)"/>
	
		<linearGradient id="XMLID_22_" x1="39.5" x2="39.5" y1="98" y2="9.0005" gradientUnits="userSpaceOnUse">
			<stop stop-color="#eee" offset="0"/>
			<stop stop-color="#bbb" offset=".5089"/>
			<stop stop-color="#ddd" offset="1"/>
		</linearGradient>
		<path d="m15.185 90.812c-0.115 2.411-0.175 4.807-0.185 7.188h0.676c0.01-2.381 0.069-4.777 0.182-7.188 2.181-46.842 23.657-81.812 48.142-81.812-24.827 0-46.604 34.97-48.815 81.812z" fill="url(#XMLID_22_)"/>
		<linearGradient id="XMLID_23_" x1="88.5" x2="88.5" y1="98" y2="9.0005" gradientUnits="userSpaceOnUse">
			<stop stop-color="#eee" offset="0"/>
			<stop stop-color="#bbb" offset=".5089"/>
			<stop stop-color="#ddd" offset="1"/>
		</linearGradient>
		<path d="m112.82 90.812c-2.212-46.842-23.989-81.812-48.816-81.812 24.485 0 45.962 34.97 48.143 81.812 0.112 2.41 0.172 4.807 0.182 7.188h0.675c-0.01-2.381-0.07-4.777-0.184-7.188z" fill="url(#XMLID_23_)"/>
	<path d="m87.606 35.569h-14.108v10.863h4.391c-0.132 4.092-0.854 7.749-2.244 8.82-1.742 1.341-4.637 2.097-7.189 2.763-0.325 0.084-0.65 0.17-0.974 0.257v-29.236h7.054l-9.876-13.036-9.876 13.036h7.054v37.492c-0.323-0.087-0.648-0.172-0.974-0.257-2.553-0.667-5.447-1.422-7.189-2.764-1.417-1.091-2.139-4.868-2.252-9.053 3.421-0.837 5.9-3.301 5.9-6.211 0-3.6-3.79-6.518-8.465-6.518s-8.465 2.918-8.465 6.518c0 2.758 2.229 5.112 5.374 6.063 0.086 4.46 0.869 9.927 3.917 12.275 2.674 2.059 6.386 3.027 9.369 3.806 0.931 0.243 2.123 0.556 2.785 0.802v9.154c-3.285 0.896-5.643 3.303-5.643 6.14 0 3.6 3.79 6.518 8.465 6.518 4.674 0 8.465-2.918 8.465-6.518 0-2.837-2.358-5.244-5.644-6.14v-17.411c0.661-0.246 1.854-0.559 2.784-0.801 2.983-0.778 6.695-1.748 9.369-3.806 2.961-2.281 3.785-7.507 3.909-11.893h4.062v-10.863h1e-3z" fill="#bbb"/><path d="m87.606 37.569h-14.108v10.863h4.391c-0.132 4.092-0.854 7.749-2.244 8.82-1.742 1.341-4.637 2.097-7.189 2.763-0.325 0.084-0.65 0.17-0.974 0.257v-29.236h7.054l-9.876-13.036-9.876 13.036h7.054v37.492c-0.323-0.087-0.648-0.172-0.974-0.257-2.553-0.667-5.447-1.422-7.189-2.764-1.417-1.091-2.139-4.868-2.252-9.053 3.421-0.837 5.9-3.301 5.9-6.211 0-3.6-3.79-6.518-8.465-6.518s-8.465 2.918-8.465 6.518c0 2.758 2.229 5.112 5.374 6.063 0.086 4.46 0.869 9.927 3.917 12.275 2.674 2.059 6.386 3.027 9.369 3.806 0.931 0.243 2.123 0.556 2.785 0.802v9.154c-3.285 0.896-5.643 3.303-5.643 6.14 0 3.6 3.79 6.518 8.465 6.518 4.674 0 8.465-2.918 8.465-6.518 0-2.837-2.358-5.244-5.644-6.14v-17.411c0.661-0.246 1.854-0.559 2.784-0.801 2.983-0.778 6.695-1.748 9.369-3.806 2.961-2.281 3.785-7.507 3.909-11.893h4.062v-10.863h1e-3z" fill="#fff"/><path d="m87.606 36.569h-14.108v10.863h4.391c-0.132 4.092-0.854 7.749-2.244 8.82-1.742 1.341-4.637 2.097-7.189 2.763-0.325 0.084-0.65 0.17-0.974 0.257v-29.236h7.054l-9.876-13.036-9.876 13.036h7.054v37.492c-0.323-0.087-0.648-0.172-0.974-0.257-2.553-0.667-5.447-1.422-7.189-2.764-1.417-1.091-2.139-4.868-2.252-9.053 3.421-0.837 5.9-3.301 5.9-6.211 0-3.6-3.79-6.518-8.465-6.518s-8.465 2.918-8.465 6.518c0 2.758 2.229 5.112 5.374 6.063 0.086 4.46 0.869 9.927 3.917 12.275 2.674 2.059 6.386 3.027 9.369 3.806 0.931 0.243 2.123 0.556 2.785 0.802v9.154c-3.285 0.896-5.643 3.303-5.643 6.14 0 3.6 3.79 6.518 8.465 6.518 4.674 0 8.465-2.918 8.465-6.518 0-2.837-2.358-5.244-5.644-6.14v-17.411c0.661-0.246 1.854-0.559 2.784-0.801 2.983-0.778 6.695-1.748 9.369-3.806 2.961-2.281 3.785-7.507 3.909-11.893h4.062v-10.863h1e-3z" fill="url(#linearGradient3431)"/>
</svg>
