<?xml version="1.0" encoding="UTF-8"?>
<svg width="48px" height="48px" xmlns="http://www.w3.org/2000/svg" xmlns:cc="http://creativecommons.org/ns#" xmlns:dc="http://purl.org/dc/elements/1.1/" xmlns:rdf="http://www.w3.org/1999/02/22-rdf-syntax-ns#" xmlns:xlink="http://www.w3.org/1999/xlink">
 <defs>
  <radialGradient id="radialGradient6719" cx="605.71" cy="486.65" r="117.14" gradientTransform="matrix(-2.7744 0 0 1.9697 112.76 -872.89)" gradientUnits="userSpaceOnUse" xlink:href="#linearGradient5060"/>
  <linearGradient id="linearGradient5060">
   <stop offset="0"/>
   <stop stop-opacity="0" offset="1"/>
  </linearGradient>
  <radialGradient id="radialGradient6717" cx="605.71" cy="486.65" r="117.14" gradientTransform="matrix(2.7744 0 0 1.9697 -1891.6 -872.89)" gradientUnits="userSpaceOnUse" xlink:href="#linearGradient5060"/>
  <linearGradient id="linearGradient6715" x1="302.86" x2="302.86" y1="366.65" y2="609.51" gradientTransform="matrix(2.7744 0 0 1.9697 -1892.2 -872.89)" gradientUnits="userSpaceOnUse">
   <stop stop-opacity="0" offset="0"/>
   <stop offset=".5"/>
   <stop stop-opacity="0" offset="1"/>
  </linearGradient>
  <linearGradient id="linearGradient2681">
   <stop stop-opacity=".47525" offset="0"/>
   <stop stop-opacity="0" offset="1"/>
  </linearGradient>
  <linearGradient id="linearGradient4234" x1="7.6046" x2="36.183" y1="28.481" y2="40.944" gradientTransform="translate(0 .055463)" gradientUnits="userSpaceOnUse">
   <stop stop-color="#bbb" offset="0"/>
   <stop stop-color="#9f9f9f" offset="1"/>
  </linearGradient>
  <radialGradient id="radialGradient4250" cx="15.571" cy="2.9585" r="20.936" gradientTransform="matrix(1.2862 .7817 -.71078 1.1696 -2.3543 -4.8214)" gradientUnits="userSpaceOnUse">
   <stop stop-color="#e4e4e4" offset="0"/>
   <stop stop-color="#d3d3d3" offset="1"/>
  </radialGradient>
  <linearGradient id="linearGradient4260" x1="12.378" x2="44.096" y1="4.4331" y2="47.621" gradientTransform="translate(0 .055463)" gradientUnits="userSpaceOnUse">
   <stop stop-color="#fff" offset="0"/>
   <stop stop-color="#fff" stop-opacity="0" offset="1"/>
  </linearGradient>
  <radialGradient id="radialGradient2679" cx="40.797" cy="33.734" r=".98438" gradientTransform="matrix(1.254 -7.2182e-15 7.2182e-15 1.254 -10.361 -8.5675)" gradientUnits="userSpaceOnUse">
   <stop stop-color="#fff" offset="0"/>
   <stop stop-color="#6f6f6f" offset="1"/>
  </radialGradient>
  <linearGradient id="linearGradient2687" x1="25.785" x2="25.785" y1="32.363" y2="35.67" gradientUnits="userSpaceOnUse" xlink:href="#linearGradient2681"/>
  <linearGradient id="linearGradient5705" x1="34.421" x2="16.127" y1="22.705" y2="10.596" gradientUnits="userSpaceOnUse">
   <stop stop-color="#7a7a7a" offset="0"/>
   <stop stop-color="#a5a5a5" offset="1"/>
  </linearGradient>
 </defs>
 <metadata>
  <rdf:RDF>
   <cc:Work rdf:about="">
    <dc:format>image/svg+xml</dc:format>
    <dc:type rdf:resource="http://purl.org/dc/dcmitype/StillImage"/>
    <dc:title>Drive - Removable</dc:title>
    <dc:creator>
     <cc:Agent>
      <dc:title>Jakub Steiner</dc:title>
     </cc:Agent>
    </dc:creator>
    <dc:subject>
     <rdf:Bag>
      <rdf:li>media</rdf:li>
      <rdf:li>removable</rdf:li>
     </rdf:Bag>
    </dc:subject>
    <cc:license rdf:resource="http://creativecommons.org/licenses/publicdomain/"/>
    <dc:identifier/>
    <dc:source>http://jimmac.musichall.cz</dc:source>
   </cc:Work>
   <cc:License rdf:about="http://creativecommons.org/licenses/publicdomain/">
    <cc:permits rdf:resource="http://creativecommons.org/ns#Reproduction"/>
    <cc:permits rdf:resource="http://creativecommons.org/ns#Distribution"/>
    <cc:permits rdf:resource="http://creativecommons.org/ns#DerivativeWorks"/>
   </cc:License>
  </rdf:RDF>
 </metadata>
 <g transform="matrix(.024527 0 0 .020868 45.691 36.154)">
  <rect x="-1559.3" y="-150.7" width="1339.6" height="478.36" color="black" fill="url(#linearGradient6715)" opacity=".40206"/>
  <path d="m-219.62-150.68v478.33c142.87 0.90045 345.4-107.17 345.4-239.2 0-132.03-159.44-239.13-345.4-239.13z" color="black" fill="url(#radialGradient6717)" opacity=".40206"/>
  <path d="m-1559.3-150.68v478.33c-142.87 0.90045-345.4-107.17-345.4-239.2 0-132.03 159.44-239.13 345.4-239.13z" color="black" fill="url(#radialGradient6719)" opacity=".40206"/>
 </g>
 <path d="m11.286 8.0181c-0.625 0-1.0312 0.29018-1.2812 0.84375-1e-6 0-6.4688 17.104-6.4688 17.104s-0.25 0.67156-0.25 1.7812v9.65c0 1.0826 0.65779 1.625 1.6562 1.625h38.562c0.98485 0 1.5938-0.71818 1.5938-1.8438v-9.65s0.10596-0.77042-0.09375-1.3125l-6.7188-17.197c-0.18452-0.51191-0.6369-0.9881-1.125-1h-25.875z" fill="none" stroke="#535353" stroke-linecap="round" stroke-linejoin="round" stroke-width="2"/>
 <g fill-rule="evenodd">
  <path d="m3.2736 27.052 0.7646-0.69222 37.61 0.0625 3.4624 0.3173v10.439c0 1.1256-0.60702 1.8433-1.5919 1.8433h-38.583c-0.99846 0-1.6618-0.54205-1.6618-1.6247v-10.345z" fill="url(#linearGradient4234)"/>
  <path d="m3.5491 25.97c-0.71429 1.4643-6.156e-4 2.3929 1.0357 2.3929h39c1.119-0.02381 1.8452-1.0119 1.4286-2.1429l-6.7143-17.211c-0.18452-0.51191-0.65476-0.9881-1.1429-1h-25.857c-0.625 0-1.0357 0.30357-1.2857 0.85715l-6.4643 17.104z" fill="url(#radialGradient4250)"/>
  <path d="m43.562 27.674s-38.119-1e-6 -38.119 0c-1.2892 0-1.9119-0.23656-2.1282-0.77967 0.091761 0.94433 0.87001 1.5609 2.1282 1.5609-1e-7 -1e-6 38.119 0 38.119 0 1.076-0.033071 1.7394-0.85875 1.4847-2.1551-0.13405 0.84158-0.57663 1.3459-1.4847 1.3739z" fill="#fff"/>
 </g>
 <path d="m38.345 9.2121 6.1553 15.538c-0.61872-0.39775-0.88128-0.71339-1.5-0.625h-37.75c-0.70711 0-1.4116 0.75-1.4116 0.75l6.2866-16c0.13388-0.49965 0.6237-0.80178 1.2866-0.80178l25.419-0.088388c1.3258 0.17678 1.2929 0.60853 1.5139 1.2273z" color="#000000" fill="url(#linearGradient5705)"/>
 <path d="m44.708 25.362c-0.33422-0.23351-0.63497-0.19452-1.1895-0.22243l-38.782-0.26516c-0.57452 0.044194-1.2409 0.80968-1.2409 0.80968l0.57106-1.4s0.33968-1.1632 1.5979-1.1632c-1e-7 1e-6 37.191 0 37.191 0 0.72245 0.033071 1.1672 0.42966 1.3522 0.89557l0.50028 1.3455z" fill="#686868" fill-rule="evenodd"/>
 <path d="m11.643 8.4712c-0.60169 0-0.99279 0.27936-1.2335 0.81229-1e-6 0-6.415 16.591-6.415 16.591s-0.24068 0.64652-0.24068 1.7148v9.2901c0 1.3547 0.44406 1.6269 1.5945 1.6269h37.687c1.3231 0 1.5343-0.3164 1.5343-1.8375v-9.2901s0.10201-0.74169-0.090255-1.2636l-6.5932-16.806c-0.17764-0.49282-0.55065-0.82625-1.0205-0.83771h-25.223z" fill="none" stroke="url(#linearGradient4260)" stroke-linecap="round" stroke-linejoin="round"/>
 <g>
  <g transform="matrix(.8282 0 0 .61024 4.176 11.161)" fill="url(#linearGradient2687)">
   <rect x="5.3414" y="32.363" width="37.931" height="3.865" color="#000000" fill="url(#linearGradient2687)" fill-rule="evenodd"/>
  </g>
  <path d="m8.625 33.25s0.44465 0.81694 1.2401 0.77275l30.85-0.022748c-0.044194-2.4307-0.6875-3.1186-0.6875-3.1186l0.034615 2.4311-31.438-0.0625z" fill="#fff" fill-rule="evenodd" opacity=".71429"/>
  <path transform="matrix(1.381 0 0 1.381 -15.625 -10.946)" d="m42 33.984a0.98438 0.98438 0 1 1-1.9688 0 0.98438 0.98438 0 1 1 1.9688 0z" color="#000000" fill="url(#radialGradient2679)" fill-rule="evenodd"/>
 </g>
</svg>
