<?xml version="1.0" encoding="utf-8"?>
<!-- Generator: Adobe Illustrator 15.1.0, SVG Export Plug-In . SVG Version: 6.00 Build 0)  -->
<!DOCTYPE svg PUBLIC "-//W3C//DTD SVG 1.1//EN" "http://www.w3.org/Graphics/SVG/1.1/DTD/svg11.dtd">
<svg version="1.1" id="Layer_1" xmlns="http://www.w3.org/2000/svg" xmlns:xlink="http://www.w3.org/1999/xlink" x="0px" y="0px"
	 width="256px" height="256px" viewBox="0 0 256 256" enable-background="new 0 0 256 256" xml:space="preserve">
<g>
	<linearGradient id="SVGID_1_" gradientUnits="userSpaceOnUse" x1="9.9214" y1="128.1143" x2="246.1299" y2="128.1143">
		<stop  offset="0" style="stop-color:#F05A28"/>
		<stop  offset="0.9831" style="stop-color:#930500"/>
	</linearGradient>
	<path fill="url(#SVGID_1_)" d="M246.13,217.871c0,15.656-12.693,28.346-28.346,28.346H38.267
		c-15.655,0-28.345-12.689-28.345-28.346V38.357c0-15.654,12.69-28.345,28.345-28.345h179.518c15.652,0,28.346,12.691,28.346,28.345
		V217.871z"/>
	
		<radialGradient id="SVGID_2_" cx="162.3027" cy="207.4746" r="177.6697" gradientTransform="matrix(1 0 0 0.4883 0 106.1623)" gradientUnits="userSpaceOnUse">
		<stop  offset="0.4444" style="stop-color:#FFFFFF;stop-opacity:0"/>
		<stop  offset="0.9215" style="stop-color:#FFFFFF;stop-opacity:0.4637"/>
		<stop  offset="1" style="stop-color:#FFFFFF;stop-opacity:0.54"/>
	</radialGradient>
	<path opacity="0.58" fill="url(#SVGID_2_)" d="M246.13,217.871c0,15.656-12.693,28.346-28.346,28.346H38.267
		c-15.655,0-28.345-12.689-28.345-28.346V38.357c0-15.654,12.69-28.345,28.345-28.345h179.518c15.652,0,28.346,12.691,28.346,28.345
		V217.871z"/>
	<g opacity="0.49">
		<path fill="#FFFFFF" d="M38.267,242.516c-20.272-1.37-25.272-17.359-25.272-34.41c0-15.875,0-31.75,0-47.627
			c0-37.029,0-74.059,0-111.087c0-16.214,2.855-31.555,21.847-35.444c8.393-1.718,18.409-0.23,26.868-0.23
			c38.958,0,77.917,0,116.874,0c23.259,0,64.474-7.272,64.474,27.551c0,33.172,0,66.341,0,99.51c0,18.47,0,36.939,0,55.412
			c0,11.073,1.66,23.621-3.453,33.79c-6.739,13.422-21.664,12.535-34.189,12.535c-16.618,0-33.23,0-49.848,0
			C116.467,242.516,77.368,242.516,38.267,242.516c-0.011,0-0.011,1.276,0,1.276c59.287,0,118.57,0,177.857,0
			c31.231,0,26.948-31.88,26.948-53.02c0-39.139,0-78.279,0-117.417c0-20.678,6.604-60.916-25.479-60.916
			c-29.008,0-58.015,0-87.029,0c-30.515,0-61.033,0-91.551,0c-31.599,0-26.031,36.057-26.031,56.876c0,37.854,0,75.706,0,113.561
			c0,21.996-6.607,58.762,25.285,60.915C38.248,243.788,38.305,242.517,38.267,242.516z"/>
	</g>
	<path fill="none" stroke="#BE1E2D" stroke-width="0.25" stroke-miterlimit="1" d="M246.13,217.871
		c0,15.656-12.693,28.346-28.346,28.346H38.267c-15.655,0-28.345-12.689-28.345-28.346V38.357c0-15.654,12.69-28.345,28.345-28.345
		h179.518c15.652,0,28.346,12.691,28.346,28.345V217.871z"/>
	<g opacity="0.58">
		<path fill="#0D003B" d="M246.122,216.335c-1.295,20.968-17.481,28.288-35.775,28.288c-15.078,0-30.155,0-45.235,0
			c-37.691,0-75.381,0-113.073,0c-13.111,0-24.693,0.751-34.962-9.522c-9.17-9.172-7.139-23.807-7.139-35.574
			c0-38.463,0-76.917,0-115.378c0-24.328-8.337-72.539,29.076-72.539c30.518,0,61.037,0,91.551,0c29.015,0,58.021,0,87.029,0
			c37.8,0,28.521,52.973,28.521,77.096c0,43.056,0,86.108,0,129.166c0,1.808,0.03,1.808,0.03,0c0-59.283,0-118.568,0-177.854
			c0-17.22-10.469-30.49-28.36-31.603c-8.343-0.517-16.89,0-25.245,0c-39.065,0-78.128,0-117.191,0
			c-24.376,0-65.442-6.36-65.442,29.943c0,27.379,0,54.764,0,82.146c0,31.902,0,63.807,0,95.708
			c0,17.221,10.471,30.494,28.361,31.607c8.345,0.514,16.892,0,25.247,0c36.902,0,73.806,0,110.709,0
			c25.147,0,69.647,8.053,71.914-28.407C246.193,218.453,246.08,217.084,246.122,216.335z"/>
	</g>
</g>
<g>
	<linearGradient id="SVGID_3_" gradientUnits="userSpaceOnUse" x1="55.8335" y1="223.4033" x2="55.8335" y2="35.3721">
		<stop  offset="0" style="stop-color:#C6C6C6"/>
		<stop  offset="0.618" style="stop-color:#B1B1B1"/>
		<stop  offset="0.6292" style="stop-color:#BEBEBE"/>
		<stop  offset="0.9831" style="stop-color:#B8B8B8"/>
	</linearGradient>
	<path fill="url(#SVGID_3_)" d="M0.343,223.403v-37.345h17.883c32.084,0,55.753-25.771,55.753-55.484
		c0-31.826-24.193-57.862-56.28-57.862H0.343v-37.34h17.883c51.546,0,93.099,41.809,93.099,94.939
		c0,50.752-41.553,93.093-93.099,93.093H0.343z"/>
	<g opacity="0.51">
		<linearGradient id="SVGID_4_" gradientUnits="userSpaceOnUse" x1="55.8335" y1="223.4033" x2="55.8335" y2="35.3721">
			<stop  offset="0" style="stop-color:#A6A6A6"/>
			<stop  offset="0.5" style="stop-color:#838383"/>
			<stop  offset="0.5378" style="stop-color:#898989"/>
			<stop  offset="0.6652" style="stop-color:#999999"/>
			<stop  offset="0.8086" style="stop-color:#A3A3A3"/>
			<stop  offset="1" style="stop-color:#A6A6A6"/>
		</linearGradient>
		<path fill="url(#SVGID_4_)" d="M0.343,223.403v-37.345h17.883c32.084,0,55.753-25.771,55.753-55.484
			c0-31.826-24.193-57.862-56.28-57.862H0.343v-37.34h17.883c51.546,0,93.099,41.809,93.099,94.939
			c0,50.752-41.553,93.093-93.099,93.093H0.343z"/>
	</g>
	<g opacity="0.7">
		<linearGradient id="SVGID_5_" gradientUnits="userSpaceOnUse" x1="55.8335" y1="35.3716" x2="55.8335" y2="223.4038">
			<stop  offset="0" style="stop-color:#FFFFFF;stop-opacity:0.77"/>
			<stop  offset="0.2033" style="stop-color:#FFFFFF;stop-opacity:0.65"/>
			<stop  offset="0.3448" style="stop-color:#FFFFFF;stop-opacity:0.65"/>
			<stop  offset="0.3462" style="stop-color:#FFFFFF;stop-opacity:0.65"/>
			<stop  offset="0.511" style="stop-color:#FFFFFF;stop-opacity:0"/>
			<stop  offset="0.5247" style="stop-color:#E1E1E1;stop-opacity:0.0045"/>
			<stop  offset="0.5464" style="stop-color:#B8B8B8;stop-opacity:0.0116"/>
			<stop  offset="0.5708" style="stop-color:#929292;stop-opacity:0.0196"/>
			<stop  offset="0.5974" style="stop-color:#727272;stop-opacity:0.0283"/>
			<stop  offset="0.6268" style="stop-color:#565656;stop-opacity:0.0379"/>
			<stop  offset="0.6599" style="stop-color:#404040;stop-opacity:0.0487"/>
			<stop  offset="0.6986" style="stop-color:#2F2F2F;stop-opacity:0.0614"/>
			<stop  offset="0.7465" style="stop-color:#242424;stop-opacity:0.0771"/>
			<stop  offset="0.8136" style="stop-color:#1D1D1D;stop-opacity:0.099"/>
			<stop  offset="1" style="stop-color:#1B1B1B;stop-opacity:0.16"/>
		</linearGradient>
		<path fill="url(#SVGID_5_)" d="M0.343,223.403v-37.345h17.883c32.084,0,55.753-25.771,55.753-55.484
			c0-31.826-24.193-57.862-56.28-57.862H0.343v-37.34h17.883c51.546,0,93.099,41.809,93.099,94.939
			c0,50.752-41.553,93.093-93.099,93.093H0.343z"/>
	</g>
	<g opacity="0.49">
		<path fill="#FFFFFF" d="M1.251,222.504c0-7.185,0-14.368,0-21.556c0-4.009,0-8.012,0-12.017c0-2.486,5.265-1.04,8.484-1.04
			c27.05,0,50.146-9.767,61.326-36.032c6.085-14.3,4.542-31.987-0.928-46.076C60.093,79.93,35.006,70.884,9.47,70.884
			c-1.795,0-8.219,0.229-8.219,0.021c0-3.546,0-7.091,0-10.637c0-4.928,0-9.854,0-14.783c0-2.477-0.478-8.286,0.468-8.286
			c24.17,0,45.977,1.625,67.053,14.951c23.688,14.972,37.727,41.153,41.098,68.471c4.166,33.803-13.192,66.436-40.474,85.42
			c-20.673,14.384-43.976,15.536-68.153,15.536c-0.014,0-0.014,1.854,0,1.854c28.286,0,53.196-3.014,76.069-21.473
			c21.373-17.249,33.12-44.465,33.12-71.646c0-27.68-10.972-53.437-31.401-72.171C56.965,37.908,29.641,35.344,1.243,35.344
			c-0.011,0-0.009,0.879-0.009,0.926c0,11.848,0,23.694,0,35.541c0,0.046-0.002,0.928,0.009,0.928
			c13.732,0,26.679-0.453,39.677,4.878c19.142,7.848,30.727,26.896,33.552,46.686c3.259,22.818-10.468,44.182-29.635,55.112
			c-13.421,7.656-28.757,6.615-43.594,6.615c-0.011,0-0.009,0.882-0.009,0.933c0,11.845,0,23.693,0,35.541
			C1.234,223.55,1.251,223.55,1.251,222.504z"/>
	</g>
	<path fill="none" stroke="#CCCCCC" stroke-width="0.5878" stroke-miterlimit="1" d="M0.343,223.403v-37.345h17.883
		c32.084,0,55.753-25.771,55.753-55.484c0-31.826-24.193-57.862-56.28-57.862H0.343v-37.34h17.883
		c51.546,0,93.099,41.809,93.099,94.939c0,50.752-41.553,93.093-93.099,93.093H0.343z"/>
	<g opacity="0.58">
		<path fill="#959595" d="M0.344,223.403c0-7.068,0-14.139,0-21.208c0-4.297,0-8.587,0-12.878c0-4.225,1.192-3.102,5.373-3.102
			c25.935,0,48.369-5.427,61.984-29.816c7.355-13.177,7.58-28.727,3.892-42.937c-6.779-26.134-31.275-40.904-57.061-40.904
			c-4.225,0-8.45,0-12.676,0c-2.545,0-1.512-2.581-1.512-4.756c0-9.725,0-19.452,0-29.179c0-6.014,11.324-3.099,16.323-3.099
			c13.157,0,25.658,2.427,37.852,7.364c61.694,24.986,73.788,108.366,28.401,154.015c-22.847,22.984-51.976,26.345-82.578,26.345
			c-0.002,0-0.002,0.309,0,0.309c28.867,0,54.307-2.91,77.635-21.873c21.098-17.144,33.349-44.357,33.349-71.373
			c0-27.652-11.613-53.438-31.97-72.042C56.863,37.709,29.218,35.214,0.343,35.214c0,0,0,0.149,0,0.158c0,12.446,0,24.892,0,37.34
			c0,0.008,0,0.155,0,0.155c13.966,0,27.231-0.589,40.436,4.897c18.738,7.786,30.054,26.593,32.807,45.996
			c3.408,24.009-10.621,46.433-31.574,56.966c-12.878,6.475-27.723,5.181-41.669,5.181c0,0,0,0.145,0,0.152
			c0,12.448,0,24.899,0,37.345C0.342,223.574,0.344,223.574,0.344,223.403z"/>
	</g>
</g>
<g>
	<linearGradient id="SVGID_6_" gradientUnits="userSpaceOnUse" x1="200.3184" y1="223.4033" x2="200.3183" y2="35.3721">
		<stop  offset="0" style="stop-color:#C6C6C6"/>
		<stop  offset="0.618" style="stop-color:#B1B1B1"/>
		<stop  offset="0.6292" style="stop-color:#BEBEBE"/>
		<stop  offset="0.9831" style="stop-color:#B8B8B8"/>
	</linearGradient>
	<path fill="url(#SVGID_6_)" d="M255.806,35.372v37.34h-17.881c-32.084,0-55.757,25.778-55.757,55.489
		c0,31.827,24.196,57.858,56.277,57.858h17.36v37.345h-17.881c-51.549,0-93.095-41.813-93.095-94.937
		c0-50.759,41.546-93.095,93.095-93.095H255.806z"/>
	<g opacity="0.51">
		<linearGradient id="SVGID_7_" gradientUnits="userSpaceOnUse" x1="200.3184" y1="223.4033" x2="200.3183" y2="35.3721">
			<stop  offset="0" style="stop-color:#A6A6A6"/>
			<stop  offset="0.5" style="stop-color:#838383"/>
			<stop  offset="0.5378" style="stop-color:#898989"/>
			<stop  offset="0.6652" style="stop-color:#999999"/>
			<stop  offset="0.8086" style="stop-color:#A3A3A3"/>
			<stop  offset="1" style="stop-color:#A6A6A6"/>
		</linearGradient>
		<path fill="url(#SVGID_7_)" d="M255.806,35.372v37.34h-17.881c-32.084,0-55.757,25.778-55.757,55.489
			c0,31.827,24.196,57.858,56.277,57.858h17.36v37.345h-17.881c-51.549,0-93.095-41.813-93.095-94.937
			c0-50.759,41.546-93.095,93.095-93.095H255.806z"/>
	</g>
	<g opacity="0.7">
		<linearGradient id="SVGID_8_" gradientUnits="userSpaceOnUse" x1="200.3184" y1="35.3716" x2="200.3183" y2="223.4038">
			<stop  offset="0" style="stop-color:#FFFFFF;stop-opacity:0.77"/>
			<stop  offset="0.2033" style="stop-color:#FFFFFF;stop-opacity:0.65"/>
			<stop  offset="0.3448" style="stop-color:#FFFFFF;stop-opacity:0.65"/>
			<stop  offset="0.3462" style="stop-color:#FFFFFF;stop-opacity:0.65"/>
			<stop  offset="0.511" style="stop-color:#FFFFFF;stop-opacity:0"/>
			<stop  offset="0.5247" style="stop-color:#E1E1E1;stop-opacity:0.0045"/>
			<stop  offset="0.5464" style="stop-color:#B8B8B8;stop-opacity:0.0116"/>
			<stop  offset="0.5708" style="stop-color:#929292;stop-opacity:0.0196"/>
			<stop  offset="0.5974" style="stop-color:#727272;stop-opacity:0.0283"/>
			<stop  offset="0.6268" style="stop-color:#565656;stop-opacity:0.0379"/>
			<stop  offset="0.6599" style="stop-color:#404040;stop-opacity:0.0487"/>
			<stop  offset="0.6986" style="stop-color:#2F2F2F;stop-opacity:0.0614"/>
			<stop  offset="0.7465" style="stop-color:#242424;stop-opacity:0.0771"/>
			<stop  offset="0.8136" style="stop-color:#1D1D1D;stop-opacity:0.099"/>
			<stop  offset="1" style="stop-color:#1B1B1B;stop-opacity:0.16"/>
		</linearGradient>
		<path fill="url(#SVGID_8_)" d="M255.806,35.372v37.34h-17.881c-32.084,0-55.757,25.778-55.757,55.489
			c0,31.827,24.196,57.858,56.277,57.858h17.36v37.345h-17.881c-51.549,0-93.095-41.813-93.095-94.937
			c0-50.759,41.546-93.095,93.095-93.095H255.806z"/>
	</g>
	<g opacity="0.49">
		<path fill="#FFFFFF" d="M237.925,221.576c-65.366-1.184-109.953-67.434-84.609-128.803c10.704-25.926,34.107-44.749,60.673-52.426
			c10.601-3.064,21.506-3.15,32.429-3.15c1.805,0,8.478-0.227,8.478-0.021c0,4.36,0,8.721,0,13.082
			c0,3.284,0.499,20.625-0.464,20.625c-10.231,0-20.387-0.488-30.438,1.724c-25.181,5.546-42.479,29.853-42.734,54.939
			c-0.19,19.232,7.764,36.604,22.692,48.751c9.687,7.893,22.618,11.594,34.961,11.594c4.145,0,8.293,0,12.438,0
			c4.483,0,3.545-0.852,3.545,4.151c0,9.032,0,18.055,0,27.083c0,3.917,0.137,2.45-3.656,2.45
			C246.801,221.576,242.364,221.576,237.925,221.576c-0.014,0-0.014,1.854,0,1.854c5.66,0,11.32,0,16.983,0
			c0.008,0,0.008-0.875,0.008-0.926c0-11.848,0-23.696,0-35.541c0-0.051,0-0.933-0.008-0.933c-13.73,0-26.685,0.454-39.683-4.874
			c-19.141-7.851-30.725-26.894-33.552-46.687c-3.259-22.814,10.471-44.18,29.637-55.116c13.423-7.656,28.764-6.614,43.598-6.614
			c0.008,0,0.008-0.882,0.008-0.928c0-11.847,0-23.693,0-35.541c0-0.047,0-0.926-0.008-0.926c-25.872,0-48.894,2.133-70.865,17.423
			c-22.715,15.805-37.73,43.687-38.257,71.366c-1.01,53.581,37.239,98.3,92.139,99.297
			C237.928,223.43,237.951,221.58,237.925,221.576z"/>
	</g>
	<path fill="none" stroke="#CCCCCC" stroke-width="0.5878" stroke-miterlimit="1" d="M255.806,35.372v37.34h-17.881
		c-32.084,0-55.757,25.778-55.757,55.489c0,31.827,24.196,57.858,56.277,57.858h17.36v37.345h-17.881
		c-51.549,0-93.095-41.813-93.095-94.937c0-50.759,41.546-93.095,93.095-93.095H255.806z"/>
	<g opacity="0.58">
		<path fill="#959595" d="M255.804,35.372c0,7.067,0,14.141,0,21.208c0,4.292,0,8.585,0,12.877c0,4.221-1.189,3.102-5.37,3.102
			c-25.938,0-48.37,5.424-61.982,29.814c-7.36,13.178-7.582,28.729-3.896,42.938c6.78,26.133,31.276,40.905,57.061,40.905
			c4.229,0,8.454,0,12.68,0c2.545,0,1.508,2.578,1.508,4.753c0,9.729,0,19.457,0,29.183c0,6.014-11.321,3.097-16.318,3.097
			c-13.162,0-25.657-2.425-37.853-7.362c-61.693-24.989-73.79-108.366-28.4-154.018c22.844-22.98,51.972-26.343,82.573-26.343
			c0.007,0,0.007-0.311,0-0.311c-28.865,0-54.301,2.916-77.636,21.874c-21.095,17.145-33.342,44.361-33.342,71.379
			c0,27.65,11.61,53.434,31.964,72.043c22.492,20.551,50.142,23.047,79.014,23.047c0.007,0,0.007-0.146,0.007-0.153
			c0-12.445,0-24.896,0-37.345c0-0.008,0-0.152-0.007-0.152c-13.965,0-27.232,0.59-40.438-4.896
			c-18.729-7.785-30.051-26.59-32.806-45.995c-3.406-24.014,10.625-46.438,31.577-56.969c12.879-6.474,27.724-5.179,41.667-5.179
			c0.007,0,0.007-0.147,0.007-0.155c0-12.448,0-24.894,0-37.34C255.813,35.195,255.804,35.195,255.804,35.372z"/>
	</g>
</g>
</svg>
