/* XPM */
static char * gifanim_xpm[] = {
"24 24 31 1",
" 	c None",
".	c #959595",
"+	c #E1E1E1",
"@	c #919191",
"#	c #848484",
"$	c #888888",
"%	c #EEEEEE",
"&	c #E6E9EC",
"*	c #D6DFE8",
"=	c #FFFFFF",
"-	c #E7F0F9",
";	c #3783CE",
">	c #FFF7F7",
",	c #FFEFEF",
"'	c #F7F2F5",
")	c #F7FAFD",
"!	c #FF5757",
"~	c #FFDFDF",
"{	c #FF4F4F",
"]	c #FFD7D7",
"^	c #FF4747",
"/	c #FF3F3F",
"(	c #8D8D8D",
"_	c #EEE6E6",
":	c #EED6D6",
"<	c #EECECE",
"[	c #FAFAFA",
"}	c #F2F2F2",
"|	c #F6F6F6",
"1	c #A2A2A2",
"2	c #FAF2F2",
" .++@              @++. ",
" @@@##$$$$$$$$$$$$##@@@ ",
" .++$#$$$$$$$$$$$$#$++. ",
" .++@+%%&**&&**&%%+@++. ",
" @@@@%==-;;--;;-==%@@@@ ",
" .++.%==-;;--;;-==%.++. ",
" .++.%>,'--))--',>%.++. ",
" @@@@%,!~>====>~!,%@@@@ ",
" .++.%>~{]~~~~]{~>%.++. ",
" .++.%=>~^////^~>=%.++. ",
" @@@(+%%_:<<<<:_%%+(@@@ ",
" .++$#$$$$$$$$$$$$#$++. ",
" .++$#$$$$$$$$$$$$#$++. ",
" @@@(+%%&**&%%%%%%+(@@@ ",
" .++.%==-;;-[}}[==%.++. ",
" .++.%==-;;-|11|==%.++. ",
" @@@@%>,'--)[}}2,>%@@@@ ",
" .++.%,!~>====>~!,%.++. ",
" .++.%>~{]~~~~]{~>%.++. ",
" @@@@%=>~^////^~>=%@@@@ ",
" .++@+%%_:<<<<:_%%+@++. ",
" .++$#$$$$$$$$$$$$#$++. ",
" @@@##$$$$$$$$$$$$##@@@ ",
" .++@              @++. "};
