<?xml version="1.0" encoding="UTF-8" standalone="no"?>
<svg
   height="479pt"
   viewBox="0 -88 479.60456 479"
   width="479pt"
   version="1.1"
   id="svg6"
   sodipodi:docname="emblem-cloud-online.svg"
   inkscape:version="1.1 (c68e22c387, 2021-05-23)"
   xmlns:inkscape="http://www.inkscape.org/namespaces/inkscape"
   xmlns:sodipodi="http://sodipodi.sourceforge.net/DTD/sodipodi-0.dtd"
   xmlns="http://www.w3.org/2000/svg"
   xmlns:svg="http://www.w3.org/2000/svg">
  <defs
     id="defs10" />
  <sodipodi:namedview
     id="namedview8"
     pagecolor="#ffffff"
     bordercolor="#666666"
     borderopacity="1.0"
     inkscape:pageshadow="2"
     inkscape:pageopacity="0.0"
     inkscape:pagecheckerboard="0"
     inkscape:document-units="pt"
     showgrid="false"
     inkscape:zoom="1.3669102"
     inkscape:cx="318.96755"
     inkscape:cy="319.33334"
     inkscape:window-width="2560"
     inkscape:window-height="1361"
     inkscape:window-x="-9"
     inkscape:window-y="-9"
     inkscape:window-maximized="1"
     inkscape:current-layer="svg6" />
  <path
     d="m383.605469 120.3125c-5.851563.003906-11.6875.585938-17.425781 1.746094-4.324219-21.582032-18.304688-39.992188-37.929688-49.957032-19.628906-9.964843-42.742188-10.386718-62.71875-1.140624-18.078125-49.792969-73.101562-75.507813-122.898438-57.425782-49.796874 18.078125-75.507812 73.101563-57.429687 122.898438-43.621094 1.378906-78.078125 37.480468-77.421875 81.121094.652344 43.636718 36.179688 78.691406 79.824219 78.757812h296c48.601562 0 88-39.398438 88-88 0-48.597656-39.398438-88-88-88zm0 0"
     fill="#000000"
     id="path2"
     style="fill:#d2d2d2;fill-opacity:1;stroke:#3cc1f4;stroke-opacity:1;stroke-width:20.02524195;stroke-miterlimit:4;stroke-dasharray:none" />
</svg>
