<svg width="330" height="330" xmlns="http://www.w3.org/2000/svg" version="1.1">
 <g id="Layer_1">
  <title>Layer 1</title>
  <g>
   <g>
    <rect y="0" x="35.56" width="259.5" opacity="0" height="330.625"/>
    <path fill="#007aff" d="m222.888,36.375l-115.15579,0c0.46599,-10.2272 6.88599,-16 17.57779,-16l80,0c10.692,0 17.112,5.7728 17.578,16z"/>
    <path fill="#007aff" d="m248.453,72.0809c-4.02,-0.639 -8.285,-0.9559 -12.76801,-0.9559l-140.74999,0c-4.4819,0 -8.7449,0.3149 -12.7638,0.9506c1.3626,-12.0059 9.4883,-18.7006 22.7638,-18.7006l120.87499,0c13.27699,0 21.30099,6.6967 22.64301,18.7059z"/>
    <path fill="#007aff" d="m94.93501,310.5l140.74999,0c26.125,0 39.25,-13 39.25,-38.75l0,-141.75c0,-25.75 -13.125,-38.75 -39.25,-38.75l-140.74999,0c-26.12501,0 -39.25,12.875 -39.25,38.75l0,141.75c0,25.75 13.125,38.75 39.25,38.75z"/>
   </g>
  </g>
 </g>

</svg>