/* XPM */
static char * doublecmd_xpm[] = {
"32 32 489 2",
"  	c None",
". 	c #AF858D",
"+ 	c #CA847C",
"@ 	c #C67468",
"# 	c #C57468",
"$ 	c #C4746A",
"% 	c #C2756C",
"& 	c #C2746C",
"* 	c #BF736C",
"= 	c #BE716B",
"- 	c #BC6F6A",
"; 	c #BB6E69",
"> 	c #B96D69",
", 	c #B86B68",
"' 	c #B66A67",
") 	c #B56966",
"! 	c #B36766",
"~ 	c #B26665",
"{ 	c #B16464",
"] 	c #AE6264",
"^ 	c #AC6162",
"/ 	c #A95A5C",
"( 	c #A7585B",
"_ 	c #A6575A",
": 	c #A4565B",
"< 	c #A55E65",
"[ 	c #AB767F",
"} 	c #9C8195",
"| 	c #AE7D83",
"1 	c #F79573",
"2 	c #EF8667",
"3 	c #EC8667",
"4 	c #EA8466",
"5 	c #E88165",
"6 	c #E57F64",
"7 	c #E37D63",
"8 	c #E07C62",
"9 	c #DE7961",
"0 	c #DC7760",
"a 	c #DA745F",
"b 	c #D8745E",
"c 	c #D6715D",
"d 	c #D36E5C",
"e 	c #D16D5B",
"f 	c #CE6A5B",
"g 	c #CD6959",
"h 	c #CB6758",
"i 	c #C96457",
"j 	c #C56256",
"k 	c #C46157",
"l 	c #C15F55",
"m 	c #BF5C53",
"n 	c #BD5B53",
"o 	c #BA5751",
"p 	c #B7534E",
"q 	c #AD6265",
"r 	c #D27967",
"s 	c #F28563",
"t 	c #F08564",
"u 	c #ED8565",
"v 	c #E88266",
"w 	c #E37D64",
"x 	c #DE7A62",
"y 	c #D8745F",
"z 	c #D36F5D",
"A 	c #CF6B5C",
"B 	c #CD695A",
"C 	c #C96558",
"D 	c #C56356",
"E 	c #BD5A52",
"F 	c #BA554F",
"G 	c #B7514B",
"H 	c #B74F49",
"I 	c #8D4655",
"J 	c #E1E1E1",
"K 	c #E3E1E1",
"L 	c #E0DFDE",
"M 	c #E1D2CD",
"N 	c #E2BFB5",
"O 	c #E4A693",
"P 	c #E3866C",
"Q 	c #E67D62",
"R 	c #E37E64",
"S 	c #C46056",
"T 	c #C05B51",
"U 	c #C1726B",
"V 	c #CA9894",
"W 	c #D2BAB8",
"X 	c #DAD1D1",
"Y 	c #DFDFDE",
"Z 	c #E2E1E1",
"` 	c #DBDBDB",
" .	c #E7E7E7",
"..	c #E8E8E8",
"+.	c #E6EAEA",
"@.	c #D8A89B",
"#.	c #E27E64",
"$.	c #C4685E",
"%.	c #D3C2C0",
"&.	c #EBECEC",
"*.	c #E3E3E3",
"=.	c #E6E6E6",
"-.	c #E7E9E9",
";.	c #E0D6D3",
">.	c #D8836D",
",.	c #C96053",
"'.	c #C9928B",
").	c #E8E9E9",
"!.	c #E2E2E2",
"~.	c #E6E8E8",
"{.	c #E7E7E8",
"].	c #E6E7E7",
"^.	c #E7E6E6",
"/.	c #DA8570",
"(.	c #DC7660",
"_.	c #CB9992",
":.	c #E8EEEE",
"<.	c #E7E8E8",
"[.	c #D6CFD2",
"}.	c #E0C0B5",
"|.	c #DCC8C2",
"1.	c #DFE0E0",
"2.	c #E5E6E6",
"3.	c #E5E5E5",
"4.	c #DFDFDF",
"5.	c #D87762",
"6.	c #CD6859",
"7.	c #C98176",
"8.	c #E4E5E5",
"9.	c #E6E6E5",
"0.	c #E8E9EA",
"a.	c #D7D3D2",
"b.	c #CFB7B6",
"c.	c #CEB0B0",
"d.	c #D4D4D5",
"e.	c #F68D6A",
"f.	c #F18665",
"g.	c #ED8465",
"h.	c #E49780",
"i.	c #DDC4BD",
"j.	c #E5EAEB",
"k.	c #DABAB3",
"l.	c #DB745F",
"m.	c #C97062",
"n.	c #DFE1E2",
"o.	c #E4E5E6",
"p.	c #C99692",
"q.	c #B8625D",
"r.	c #B6514B",
"s.	c #B44F4A",
"t.	c #B85B59",
"u.	c #F5906D",
"v.	c #F08969",
"w.	c #EF8869",
"x.	c #EB8061",
"y.	c #DCB0A4",
"z.	c #E6E5E5",
"A.	c #E3E6E7",
"B.	c #D77B68",
"C.	c #CF6A5B",
"D.	c #D1ACA6",
"E.	c #E1DEDD",
"F.	c #BA665E",
"G.	c #BD5951",
"H.	c #BA5852",
"I.	c #B95752",
"J.	c #B6544F",
"K.	c #BA615E",
"L.	c #E87F63",
"M.	c #D6BDB5",
"N.	c #D4BAB5",
"O.	c #D8715B",
"P.	c #CF695A",
"Q.	c #DBD8D7",
"R.	c #C27B73",
"S.	c #E38167",
"T.	c #DEDCDB",
"U.	c #DDDDDD",
"V.	c #D57561",
"W.	c #D16C5A",
"X.	c #C87E73",
"Y.	c #E1E5E5",
"Z.	c #E3E4E4",
"`.	c #CEB6B4",
" +	c #C0594E",
".+	c #E58065",
"++	c #D9C0BA",
"@+	c #D9D9D9",
"#+	c #D38271",
"$+	c #D26B59",
"%+	c #C69E98",
"&+	c #DADCDD",
"*+	c #D9DCDD",
"=+	c #C26F65",
"-+	c #C25E54",
";+	c #D6A99E",
">+	c #D2D3D3",
",+	c #D2D2D2",
"'+	c #D2D2D1",
")+	c #D18879",
"!+	c #D5705C",
"~+	c #D26B58",
"{+	c #D06351",
"]+	c #C5B0AD",
"^+	c #D2D3D4",
"/+	c #CFCCCB",
"(+	c #C15C51",
"_+	c #C05A50",
":+	c #BE5B52",
"<+	c #BB5A53",
"[+	c #B65450",
"}+	c #D6A194",
"|+	c #CACCCC",
"1+	c #CACACA",
"2+	c #CB7867",
"3+	c #CC5038",
"4+	c #C84A32",
"5+	c #C43F29",
"6+	c #C5B3B0",
"7+	c #CBCBCC",
"8+	c #C9C2C1",
"9+	c #B4382A",
"0+	c #B13529",
"a+	c #B0362C",
"b+	c #AF3930",
"c+	c #AF3D35",
"d+	c #B0443D",
"e+	c #B14844",
"f+	c #B75C59",
"g+	c #E77E61",
"h+	c #E37253",
"i+	c #D39D90",
"j+	c #C5604B",
"k+	c #C53B21",
"l+	c #C2371D",
"m+	c #BF2E15",
"n+	c #C19D97",
"o+	c #CBCDCD",
"p+	c #AC2616",
"q+	c #A92012",
"r+	c #A71F13",
"s+	c #A51E14",
"t+	c #A21F16",
"u+	c #A22019",
"v+	c #A1231D",
"w+	c #A83936",
"x+	c #F08A6A",
"y+	c #EE8768",
"z+	c #EA7E5D",
"A+	c #E6714E",
"B+	c #E26441",
"C+	c #DD5A37",
"D+	c #D0B0A7",
"E+	c #CCCCCC",
"F+	c #CDCDCD",
"G+	c #CDCCCC",
"H+	c #C34E36",
"I+	c #C33317",
"J+	c #C02F15",
"K+	c #BD2910",
"L+	c #BC756A",
"M+	c #CED1D2",
"N+	c #CED3D3",
"O+	c #AF4E44",
"P+	c #A61507",
"Q+	c #A41509",
"R+	c #A01409",
"S+	c #9E1209",
"T+	c #9B110A",
"U+	c #99100A",
"V+	c #A02622",
"W+	c #F58F6D",
"X+	c #EF8463",
"Y+	c #EB7450",
"Z+	c #E76842",
"`+	c #E35D36",
" @	c #E0552E",
".@	c #DA5632",
"+@	c #CCC9C8",
"@@	c #C6C4C4",
"#@	c #C5391C",
"$@	c #C33215",
"%@	c #C02F14",
"&@	c #BD2A11",
"*@	c #B83B27",
"=@	c #CDD3D4",
"-@	c #CDCDCE",
";@	c #C6BBBA",
">@	c #A41204",
",@	c #A21407",
"'@	c #9F1106",
")@	c #9C0E05",
"!@	c #990C04",
"~@	c #960803",
"{@	c #9C1D19",
"]@	c #F3845F",
"^@	c #ED7149",
"/@	c #E9653C",
"(@	c #E55B32",
"_@	c #E2542B",
":@	c #DE4920",
"<@	c #CEBAB5",
"[@	c #CECFD0",
"}@	c #CECECE",
"|@	c #CFD2D2",
"1@	c #C18F84",
"2@	c #C73011",
"3@	c #C33114",
"4@	c #C02E13",
"5@	c #BD2B11",
"6@	c #B9260F",
"7@	c #CBB9B6",
"8@	c #CFCFD0",
"9@	c #B46760",
"0@	c #A21104",
"a@	c #9F1005",
"b@	c #9C0D03",
"c@	c #990B03",
"d@	c #950701",
"e@	c #9B1A17",
"f@	c #F2754B",
"g@	c #EC663B",
"h@	c #E85C31",
"i@	c #E65327",
"j@	c #DE5027",
"k@	c #D1A396",
"l@	c #D0D1D1",
"m@	c #D0D0D0",
"n@	c #C74022",
"o@	c #C63415",
"p@	c #BA2710",
"q@	c #C37E73",
"r@	c #D1D3D3",
"s@	c #D1D6D7",
"t@	c #B36159",
"u@	c #9D0B00",
"v@	c #9C0C02",
"w@	c #950600",
"x@	c #9B1A16",
"y@	c #F16D42",
"z@	c #EB6134",
"A@	c #E85A2E",
"B@	c #D47458",
"C@	c #D1CFCE",
"D@	c #D2D2D3",
"E@	c #CA9184",
"F@	c #C93617",
"G@	c #C63416",
"H@	c #BA2811",
"I@	c #B4210A",
"J@	c #D2CFCE",
"K@	c #C6ACAA",
"L@	c #9F251D",
"M@	c #9A0F07",
"N@	c #960903",
"O@	c #9C1B18",
"P@	c #D0CFD1",
"Q@	c #D9C3BB",
"R@	c #D4C2BD",
"S@	c #D1CDCC",
"T@	c #D3D7D8",
"U@	c #D3D3D4",
"V@	c #D3D3D3",
"W@	c #D4D5D5",
"X@	c #CCB6B1",
"Y@	c #CB3A19",
"Z@	c #B6240D",
"`@	c #B63F2E",
" #	c #D5D4D3",
".#	c #D3D3D2",
"+#	c #D5D8D8",
"@#	c #CEC2C2",
"##	c #CAB5B4",
"$#	c #CAB7B6",
"%#	c #D4D4D4",
"&#	c #D4D7D8",
"*#	c #D2BFBB",
"=#	c #CF401F",
"-#	c #CD3A19",
";#	c #B6250F",
">#	c #B3200B",
",#	c #B96256",
"'#	c #D5D4D4",
")#	c #D5D5D5",
"!#	c #D6D6D7",
"~#	c #D1A99F",
"{#	c #D3401B",
"]#	c #D03D1A",
"^#	c #CD3A18",
"/#	c #B3220D",
"(#	c #B01F0B",
"_#	c #B03B2D",
":#	c #D9D8D7",
"<#	c #D5D6D6",
"[#	c #D7D7D7",
"}#	c #D7D8D8",
"|#	c #D8DBDC",
"1#	c #D5DEE1",
"2#	c #D4BAB3",
"3#	c #D67358",
"4#	c #D64019",
"5#	c #B01F0C",
"6#	c #AB1A08",
"7#	c #A81D0F",
"8#	c #BC7770",
"9#	c #D4CECE",
"0#	c #DBE2E2",
"a#	c #D8DADA",
"b#	c #D8C9C5",
"c#	c #D7C5C0",
"d#	c #D6BEB7",
"e#	c #D79885",
"f#	c #DC5D39",
"g#	c #DF4218",
"h#	c #DA451E",
"i#	c #D6431D",
"j#	c #AC1C0A",
"k#	c #A9190A",
"l#	c #A51506",
"m#	c #A00C00",
"n#	c #AC4B43",
"o#	c #C19593",
"p#	c #CAB8B7",
"q#	c #CFBEBD",
"r#	c #D1C6C7",
"s#	c #D6D6D6",
"t#	c #D16B54",
"u#	c #EB5A2C",
"v#	c #E85427",
"w#	c #E44F22",
"x#	c #E14B22",
"y#	c #DE4921",
"z#	c #A51608",
"A#	c #A21306",
"B#	c #9F0F04",
"C#	c #9B0A01",
"D#	c #980A02",
"E#	c #9D130B",
"F#	c #753045",
"G#	c #B18B94",
"H#	c #C16352",
"I#	c #E8663E",
"J#	c #EB5D31",
"K#	c #E7582C",
"L#	c #E4542B",
"M#	c #E1512A",
"N#	c #DD4E28",
"O#	c #DA4B26",
"P#	c #D74824",
"Q#	c #D44523",
"R#	c #D04222",
"S#	c #CD4021",
"T#	c #CA3D1F",
"U#	c #C7391E",
"V#	c #C4361C",
"W#	c #C1331B",
"X#	c #BE311A",
"Y#	c #BB2E19",
"Z#	c #B72B17",
"`#	c #B32715",
" $	c #B12514",
".$	c #AE2213",
"+$	c #AB1F12",
"@$	c #A81C10",
"#$	c #921A19",
"$$	c #7F3545",
"%$	c #6C4562",
"&$	c #734258",
"*$	c #744359",
"=$	c #754158",
"-$	c #733F56",
";$	c #723E56",
">$	c #713E55",
",$	c #703D54",
"'$	c #703C54",
")$	c #6E3B54",
"!$	c #6E3B53",
"~$	c #6D3A53",
"{$	c #6B3853",
"]$	c #6B3952",
"^$	c #6A3852",
"/$	c #6A3752",
"($	c #693651",
"_$	c #6A3853",
":$	c #623251",
"<$	c #613251",
"[$	c #613150",
"}$	c #633553",
"|$	c #917289",
"                                                                ",
"                                                                ",
"      . + @ # $ % & * = - ; > , ' ) ! ~ { ] ^ / ( _ : < [ }     ",
"    | 1 2 3 4 5 6 7 8 9 0 a b c d e f g h i j k l m n o p q     ",
"    r s t u 4 v 6 w 8 x 0 a y c z e A B h C D k l m E F G H I   ",
"  J K L M N O P Q R 8 x 0 a y c z e A B h C D S T U V W X Y Z ` ",
"   ..... . ...+.@.#.8 x 0 a y c z e A B h C D $.%.&... .......*.",
"  =. . . . . . .-.;.>.9 0 a y c z e A B h ,.'.K ). . . . . . .!.",
"  =.~.{.].=.=.=.=.^.K /.(.a y c z e A B h _.:.=.=.=.=.=. .<.<.!.",
"  [.}.|.1.].2.=.3.3.=.4.5.a y c z e A 6.7.8.9.3.3.3.=.0.a.b.c.d.",
"    e.f.g.h.i.j.3.=.3.].k.l.y c z e A m.n.=.=.=.=.o.p.q.r.s.t.  ",
"    u.v.w.3 x.y.2.z.=.=.A.B.b c z e C.D.].3.=.3.E.F.G.H.I.J.K.  ",
"    u.v.w.3 4 L.M.<.=.=.<.N.O.c z e P.Q.=.=.3.0.R.m n H.I.J.K.  ",
"    u.v.w.3 4 v S.T.!.!.!.U.V.c z W.X.Y.!.!.Z.`. +m n H.I.J.K.  ",
"    u.v.w.3 4 v .+++@+@+@+@+#+c z $+%+&+@+@+*+=+-+m n H.I.J.K.  ",
"    u.v.w.3 4 v 6 ;+>+,+,+'+)+!+~+{+]+^+,+,+/+(+_+:+n <+I.[+K.  ",
"    u.v.w.3 4 v .+}+|+1+1+1+2+3+4+5+6+7+1+1+8+9+0+a+b+c+d+e+f+  ",
"    u.v.w.3 4 g+h+i+|+1+1+1+j+k+l+m+n+o+1+1+|+p+q+r+s+t+u+v+w+  ",
"    u.x+y+z+A+B+C+D+E+F+F+G+H+I+J+K+L+M+F+F+N+O+P+Q+R+S+T+U+V+  ",
"    W+X+Y+Z+`+ @.@+@F+F+F+@@#@$@%@&@*@=@F+F+-@;@>@,@'@)@!@~@{@  ",
"    ]@^@/@(@_@:@<@[@}@}@|@1@2@3@4@5@6@7@}@}@}@8@9@0@a@b@c@d@e@  ",
"    f@g@h@i@j@k@l@m@m@m@F+n@o@3@4@5@p@q@r@m@m@m@s@t@u@v@c@w@x@  ",
"    y@z@A@B@C@,+,+,+,+D@E@F@G@3@4@5@H@I@J@,+,+,+,+>+K@L@M@N@O@  ",
"  P@Q@R@S@T@U@V@V@V@W@X@Y@F@G@3@4@5@H@Z@`@ #.#V@V@V@W@+#@###$#>+",
"  V@%#%#%#%#%#%#%#&#*#=#-#F@G@3@4@5@H@;#>#,#'#%#%#%#%#%#%#%#%#,+",
"  )#)#)#)#)#)#)#!#~#{#]#^#F@G@3@4@5@H@;#/#(#_#:#<#)#)#)#)#)#)#V@",
"  [#[#[#}#|#1#2#3#4#{#]#^#F@G@3@4@5@H@;#/#5#6#7#8#9#0#a#}#[#[#%#",
"  ` b#c#d#e#f#g#h#i#{#]#^#F@G@3@4@5@H@;#/#5#j#k#l#m#n#o#p#q#r#s#",
"    t#u#v#w#x#y#h#i#{#]#^#F@G@3@4@5@H@;#/#5#j#k#z#A#B#C#D#E#F#  ",
"    G#H#I#J#K#L#M#N#O#P#Q#R#S#T#U#V#W#X#Y#Z#`# $.$+$@$s+#$$$    ",
"        %$&$*$=$-$;$>$,$'$)$!$~$~${$]$^$/$($_$:$:$<$[$}$|$      ",
"                                                                "};
