<?xml version="1.0" encoding="UTF-8"?>
<svg width="48" height="48" version="1.1" xml:space="preserve" xmlns="http://www.w3.org/2000/svg" xmlns:cc="http://creativecommons.org/ns#" xmlns:dc="http://purl.org/dc/elements/1.1/" xmlns:rdf="http://www.w3.org/1999/02/22-rdf-syntax-ns#" xmlns:xlink="http://www.w3.org/1999/xlink"><defs><radialGradient id="b" cx="4.993" cy="43.5" r="2.5" gradientTransform="matrix(2.0038 0 0 1.4 27.988 -17.4)" gradientUnits="userSpaceOnUse"><stop stop-color="#181818" offset="0"/><stop stop-color="#181818" stop-opacity="0" offset="1"/></radialGradient><radialGradient id="a" cx="4.993" cy="43.5" r="2.5" gradientTransform="matrix(2.0038 0 0 1.4 -20.012 -104.4)" gradientUnits="userSpaceOnUse"><stop stop-color="#181818" offset="0"/><stop stop-color="#181818" stop-opacity="0" offset="1"/></radialGradient><linearGradient id="h" x1="25.058" x2="25.058" y1="47.028" y2="39.999" gradientUnits="userSpaceOnUse"><stop stop-color="#181818" stop-opacity="0" offset="0"/><stop stop-color="#181818" offset=".5"/><stop stop-color="#181818" stop-opacity="0" offset="1"/></linearGradient><linearGradient id="g" x1="24" x2="24" y1="5" y2="43" gradientTransform="matrix(1.2 0 0 1.2 -4.8 -4.7993)" gradientUnits="userSpaceOnUse"><stop stop-color="#fff" offset="0"/><stop stop-color="#fff" stop-opacity=".23529" offset=".063165"/><stop stop-color="#fff" stop-opacity=".15686" offset=".95056"/><stop stop-color="#fff" stop-opacity=".39216" offset="1"/></linearGradient><linearGradient id="f" x1="24.17" x2="24.17" y1="-12.242" y2="48.934" gradientTransform="matrix(.85091 0 0 .85091 -3.2291 -3.2284)" gradientUnits="userSpaceOnUse"><stop stop-color="#92c5de" offset="0"/><stop stop-color="#5ca7cd" offset=".26238"/><stop stop-color="#50a1ca" offset=".66094"/><stop stop-color="#1781b6" offset="1"/></linearGradient><linearGradient id="e" x1="23.954" x2="23.954" y1="15.999" y2="19.963" gradientTransform="matrix(1.2 0 0 .45 -4.8 4.8007)" gradientUnits="userSpaceOnUse"><stop offset="0"/><stop stop-opacity="0" offset="1"/></linearGradient><linearGradient id="d" x1="25.132" x2="25.132" y1="15.5" y2="48.396" gradientTransform="matrix(1.0698 0 0 1.0259 -1.6763 -3.9995)" gradientUnits="userSpaceOnUse"><stop stop-color="#fafafa" offset="0"/><stop stop-color="#e2e1de" offset="1"/></linearGradient><linearGradient id="c" x1="24" x2="24" y1="5" y2="43" gradientTransform="matrix(1.2 0 0 1.2 -4.8 -4.7993)" gradientUnits="userSpaceOnUse"><stop stop-color="#fff" offset="0"/><stop stop-color="#fff" stop-opacity=".23529" offset=".063165"/><stop stop-color="#fff" stop-opacity=".15686" offset=".95056"/><stop stop-color="#fff" stop-opacity=".39216" offset="1"/></linearGradient></defs><metadata><rdf:RDF><cc:Work rdf:about=""><dc:format>image/svg+xml</dc:format><dc:type rdf:resource="http://purl.org/dc/dcmitype/StillImage"/></cc:Work></rdf:RDF></metadata><g transform="matrix(.95833 0 0 .95909 1 .9634)"><g transform="matrix(1.1579 0 0 .64286 -3.7895 16.036)" opacity=".35"><rect x="38" y="40" width="5" height="7" fill="url(#b)"/><rect transform="scale(-1)" x="-10" y="-47" width="5" height="7" fill="url(#a)"/><rect x="10" y="40" width="28" height="7" fill="url(#h)"/></g><rect x="1.2" y="1.2007" width="45.6" height="45.6" rx="2.4" ry="2.4" color="#000000" fill="url(#d)"/><g transform="matrix(1.7884 0 0 1.6667 22.539 29.667)"><rect x="6" y="5" width="6" height="3" rx=".375" fill="#666" stroke-width=".61237"/><rect x="2" y="5" width="3" height="3" rx=".1875" fill="#b60000" stroke-width=".43301"/></g><g transform="matrix(1.7884 0 0 1.6667 22.423 21.667)"><rect x="6" y="5" width="6" height="3" rx=".375" fill="#666" stroke-width=".61237"/><rect x="2" y="5" width="3" height="3" rx=".1875" fill="#b60000" stroke-width=".43301"/></g><g transform="matrix(1.7884 0 0 1.6667 22.452 13.667)"><rect x="6" y="5" width="6" height="3" rx=".375" fill="#666" stroke-width=".61237"/><rect x="2" y="5" width="3" height="3" rx=".1875" fill="#b60000" stroke-width=".43301"/></g><g transform="matrix(1.7884 0 0 1.6667 22.452 5.6667)"><rect x="6" y="5" width="6" height="3" rx=".375" fill="#666" stroke-width=".61237"/><rect x="2" y="5" width="3" height="3" rx=".1875" fill="#b60000" stroke-width=".43301"/></g><rect x="1.8" y="1.8007" width="44.4" height="44.4" rx="1.2" ry="1.2" fill="none" stroke="url(#g)" stroke-linecap="round" stroke-linejoin="round" stroke-width="1.2"/><path d="m0.61314 10.4v34.32c0 1.4776 1.1379 2.6672 2.5513 2.6672h41.671c1.4134 0 2.5513-1.1896 2.5513-2.6672v-34.32" fill="none" opacity=".3" stroke="#000" stroke-width="1.2263"/><g transform="matrix(1 0 0 .86952 0 .037714)"><path d="m3 1.8007c-0.6648 0-1.2 0.5352-1.2 1.2v7.2h44.4v-7.2c0-0.6648-0.5352-1.2-1.2-1.2z" fill="none" opacity=".5" stroke="url(#c)" stroke-linecap="round" stroke-linejoin="round" stroke-width="1.2"/><g><rect y="12.001" width="48" height="1.8" rx="0" ry="0" fill="url(#e)" opacity=".15"/><path d="m3.1527 0.6c-1.4142 0-2.5527 1.1385-2.5527 2.5527v8.2473h46.8v-8.2473c0-1.4142-1.1385-2.5527-2.5527-2.5527z" color="#000000" fill="none" opacity=".4" stroke="#1d86ba" stroke-linecap="round" stroke-width="1.2"/><path d="m3.1527 0.60067c-1.4142 0-2.5527 1.1385-2.5527 2.5527v8.2473h46.8v-8.2473c0-1.4142-1.1385-2.5527-2.5527-2.5527z" color="#000000" fill="url(#f)"/></g></g><g transform="matrix(1.7884 0 0 1.6667 .53872 29.667)"><rect x="6" y="5" width="6" height="3" rx=".375" fill="#666" stroke-width=".61237"/><rect x="2" y="5" width="3" height="3" rx=".1875" fill="#b60000" stroke-width=".43301"/></g><g transform="matrix(1.7884 0 0 1.6667 .42312 21.667)"><rect x="6" y="5" width="6" height="3" rx=".375" fill="#666" stroke-width=".61237"/><rect x="2" y="5" width="3" height="3" rx=".1875" fill="#b60000" stroke-width=".43301"/></g><g transform="matrix(1.7884 0 0 1.6667 .45239 13.667)"><rect x="6" y="5" width="6" height="3" rx=".375" fill="#666" stroke-width=".61237"/><rect x="2" y="5" width="3" height="3" rx=".1875" fill="#b60000" stroke-width=".43301"/></g><g transform="matrix(1.7884 0 0 1.6667 .45239 5.6667)"><rect x="6" y="5" width="6" height="3" rx=".375" fill="#666" stroke-width=".61237"/><rect x="2" y="5" width="3" height="3" rx=".1875" fill="#b60000" stroke-width=".43301"/></g></g></svg>
