<?xml version="1.0" encoding="UTF-8"?>
<svg width="48mm" height="48mm" version="1.1" viewBox="0 0 48 48" xml:space="preserve" xmlns="http://www.w3.org/2000/svg" xmlns:xlink="http://www.w3.org/1999/xlink"><defs><radialGradient id="a" cx="99.157" cy="186.17" r="62.769" gradientTransform="matrix(.17525 0 0 .05576 -1.3768 18.119)" gradientUnits="userSpaceOnUse"><stop stop-color="#3d3d3d" offset="0"/><stop stop-color="#686868" stop-opacity=".49804" offset=".5"/><stop stop-color="#686868" stop-opacity="0" offset="1"/></radialGradient><radialGradient id="b" cx="21.995" cy="4.0384" r="20.397" gradientTransform="matrix(0 2.0591 -2.7179 0 26.845 -48.288)" gradientUnits="userSpaceOnUse"><stop stop-color="#cdf87e" offset="0"/><stop stop-color="#a2e34f" offset=".26238"/><stop stop-color="#68b723" offset=".66094"/><stop stop-color="#1d7e0d" offset="1"/></radialGradient><linearGradient id="c" x1="71.204" x2="71.204" y1="6.2376" y2="44.341" gradientTransform="matrix(.72973 0 0 .72973 -36.346 -2.5039)" gradientUnits="userSpaceOnUse"><stop stop-color="#fff" offset="0"/><stop stop-color="#fff" stop-opacity=".23529" offset=".50776"/><stop stop-color="#fff" stop-opacity=".15686" offset=".83457"/><stop stop-color="#fff" stop-opacity=".39216" offset="1"/></linearGradient></defs><rect x="1" y="18.849" width="46" height="10.302" rx="4.6" ry="5.1512" fill="#fdb93c" stroke-width=".60854"/><g fill="#fdb93f"><rect transform="matrix(.45825 .88882 -.83977 .54294 0 0)" x="8.2494" y="-15.127" width="50.191" height="9.4876" rx="5.0191" ry="4.7438" stroke-width=".61"/><rect transform="matrix(-.45825 .88882 -.83977 -.54294 0 0)" x="-17.937" y="-37.229" width="50.191" height="9.4876" rx="5.0191" ry="4.7438" stroke-width=".61"/><ellipse cx="24" cy="24" rx="8.05" ry="9.0146" stroke-width=".60848"/></g><g transform="matrix(.5334 0 0 .51615 30.466 30.483)"><path d="m27 28.5a11 3.5 0 1 1-22 0 11 3.5 0 1 1 22 0z" fill="url(#a)"/><path d="m16 1.5018c-7.9996 0-14.498 6.4986-14.498 14.498 0 7.9996 6.4986 14.498 14.498 14.498 7.9996 0 14.498-6.4986 14.498-14.498 0-7.9996-6.4986-14.498-14.498-14.498z" fill="url(#b)"/><path d="m29.5 16c0 7.4561-6.0446 13.5-13.5 13.5-7.4559 0-13.5-6.0445-13.5-13.5 0-7.4557 6.0443-13.5 13.5-13.5 7.4552 0 13.5 6.0438 13.5 13.5z" color="#000000" fill="none" opacity=".7" stroke="url(#c)" stroke-linecap="round" stroke-linejoin="round"/><g shape-rendering="auto"><path d="m16 1.5018c-7.9996 0-14.498 6.4986-14.498 14.498 0 7.9996 6.4986 14.498 14.498 14.498 7.9996 0 14.498-6.4986 14.498-14.498 0-7.9996-6.4986-14.498-14.498-14.498z" color="#000000" color-rendering="auto" fill="none" image-rendering="auto" opacity=".5" solid-color="#000000" stroke="#0f5a00" stroke-linecap="round" stroke-linejoin="round" style="isolation:auto;mix-blend-mode:normal"/><path d="m14.066 7.9531a1.0468 1.0468 0 0 0-1.0469 1.0469v5.0195h-5.0195a1.0468 1.0468 0 0 0-1.0469 1.0469v3.8672a1.0468 1.0468 0 0 0 1.0469 1.0469h5.0195v5.0195a1.0468 1.0468 0 0 0 1.0469 1.0469h3.8672a1.0468 1.0468 0 0 0 1.0469-1.0469v-5.0195h5.0195a1.0468 1.0468 0 0 0 1.0469-1.0469v-3.8672a1.0468 1.0468 0 0 0-1.0469-1.0469h-5.0195v-5.0195a1.0468 1.0468 0 0 0-1.0469-1.0469z" color="#000000" color-rendering="auto" fill="#206612" fill-rule="evenodd" image-rendering="auto" opacity=".15" solid-color="#000000" style="isolation:auto;mix-blend-mode:normal"/><path d="m14.067 9v6.0667h-6.0667v3.8667h6.0667v6.0667h3.8667v-6.0667h6.0667v-3.8667h-6.0667v-6.0667z" color="#000000" color-rendering="auto" fill="#206612" fill-rule="evenodd" image-rendering="auto" opacity=".3" solid-color="#000000" style="isolation:auto;mix-blend-mode:normal"/></g><path d="m14.067 8v6.0667h-6.0667v3.8667h6.0667v6.0667h3.8667v-6.0667h6.0667v-3.8667h-6.0667v-6.0667z" color="#000000" fill="#fff" fill-rule="evenodd"/></g></svg>
