<?xml version="1.0" encoding="UTF-8"?>
<svg width="48" height="48" version="1.1" xmlns="http://www.w3.org/2000/svg" xmlns:cc="http://creativecommons.org/ns#" xmlns:dc="http://purl.org/dc/elements/1.1/" xmlns:rdf="http://www.w3.org/1999/02/22-rdf-syntax-ns#" xmlns:xlink="http://www.w3.org/1999/xlink">
 <defs>
  <linearGradient id="c">
   <stop offset="0"/>
   <stop stop-opacity="0" offset="1"/>
  </linearGradient>
  <linearGradient id="r" x1="24" x2="24" y1="5.9405" y2="42.111" gradientTransform="matrix(.89189 0 0 1.1351 2.5946 -4.7432)" gradientUnits="userSpaceOnUse">
   <stop stop-color="#fff" offset="0"/>
   <stop stop-color="#fff" stop-opacity=".23529" offset="0"/>
   <stop stop-color="#fff" stop-opacity=".15686" offset="1"/>
   <stop stop-color="#fff" stop-opacity=".39216" offset="1"/>
  </linearGradient>
  <linearGradient id="q" x1="25.132" x2="25.132" y1=".98521" y2="47.013" gradientTransform="matrix(.97143 0 0 .93432 .68577 -1.357)" gradientUnits="userSpaceOnUse">
   <stop stop-color="#f4f4f4" offset="0"/>
   <stop stop-color="#dbdbdb" offset="1"/>
  </linearGradient>
  <radialGradient id="e" cx="605.71" cy="486.65" r="117.14" gradientTransform="matrix(.02304 0 0 .0147 26.361 37.04)" gradientUnits="userSpaceOnUse" xlink:href="#c"/>
  <radialGradient id="d" cx="605.71" cy="486.65" r="117.14" gradientTransform="matrix(-.02304 0 0 .0147 21.623 37.04)" gradientUnits="userSpaceOnUse" xlink:href="#c"/>
  <linearGradient id="p" x1="302.86" x2="302.86" y1="366.65" y2="609.51" gradientTransform="matrix(.067325 0 0 .0147 -.34114 37.04)" gradientUnits="userSpaceOnUse">
   <stop stop-opacity="0" offset="0"/>
   <stop offset=".5"/>
   <stop stop-opacity="0" offset="1"/>
  </linearGradient>
  <linearGradient id="o" x1="-51.786" x2="-51.786" y1="50.786" y2="2.9062" gradientTransform="matrix(.8075 0 0 .89472 59.41 -2.9773)" gradientUnits="userSpaceOnUse">
   <stop stop-opacity=".31783" offset="0"/>
   <stop stop-opacity=".24031" offset="1"/>
  </linearGradient>
  <linearGradient id="s" x1="22.004" x2="22.004" y1="47.813" y2="3.3639" gradientTransform="matrix(.88442 0 0 1.002 5.5183 -3.099)" gradientUnits="userSpaceOnUse">
   <stop stop-color="#aaa" offset="0"/>
   <stop stop-color="#c8c8c8" offset="1"/>
  </linearGradient>
  <linearGradient id="n" x1="23.576" x2="23.576" y1="25.357" y2="31.211" gradientTransform="matrix(1.1993 -1.2062 1.2307 1.2255 -36.004 13.885)" gradientUnits="userSpaceOnUse">
   <stop stop-color="#ad5f00" offset="0"/>
   <stop stop-color="#ffe16b" offset=".13483"/>
   <stop stop-color="#f9c440" offset=".20224"/>
   <stop stop-color="#fff394" offset=".26966"/>
   <stop stop-color="#f9c440" offset=".4465"/>
   <stop stop-color="#f9c440" offset=".57114"/>
   <stop stop-color="#ffe16b" offset=".72038"/>
   <stop stop-color="#ad5f00" offset="1"/>
  </linearGradient>
  <linearGradient id="t" x1="23.576" x2="23.576" y1="25.357" y2="31.211" gradientTransform="matrix(1.3228 -1.3288 1.3575 1.3501 705.52 -6.3492)" gradientUnits="userSpaceOnUse">
   <stop stop-color="#555761" offset="0"/>
   <stop stop-color="#d4d4d4" offset=".13483"/>
   <stop stop-color="#abacae" offset=".20224"/>
   <stop stop-color="#fafafa" offset=".26966"/>
   <stop stop-color="#abacae" offset=".4465"/>
   <stop stop-color="#abacae" offset=".57114"/>
   <stop stop-color="#d4d4d4" offset=".72038"/>
   <stop stop-color="#7e8087" offset="1"/>
  </linearGradient>
  <linearGradient id="k" x1="30.038" x2="30.038" y1="24.99" y2="30" gradientTransform="matrix(1.1654 -1.1721 1.4403 1.4342 -39.961 8.1492)" gradientUnits="userSpaceOnUse" xlink:href="#a"/>
  <linearGradient id="a">
   <stop stop-color="#3e3e3e" offset="0"/>
   <stop stop-color="#828282" offset=".5"/>
   <stop stop-color="#3c3c3c" offset="1"/>
  </linearGradient>
  <linearGradient id="j" x1="30.038" x2="30.038" y1="24.99" y2="30" gradientTransform="matrix(1.1654 -1.1721 1.4403 1.4342 -40.295 8.4849)" gradientUnits="userSpaceOnUse" xlink:href="#b"/>
  <linearGradient id="b">
   <stop stop-color="#999" offset="0"/>
   <stop stop-color="#fff" offset=".5"/>
   <stop stop-color="#777" offset="1"/>
  </linearGradient>
  <linearGradient id="i" x1="30.038" x2="30.038" y1="24.99" y2="30" gradientTransform="matrix(1.1654 -1.1721 1.4403 1.4342 -38.802 6.9828)" gradientUnits="userSpaceOnUse" xlink:href="#a"/>
  <linearGradient id="h" x1="30.038" x2="30.038" y1="24.99" y2="30" gradientTransform="matrix(1.1654 -1.1721 1.4403 1.4342 -39.135 7.3185)" gradientUnits="userSpaceOnUse" xlink:href="#b"/>
  <linearGradient id="g" x1="30.038" x2="30.038" y1="24.99" y2="30" gradientTransform="matrix(1.1654 -1.1721 1.4403 1.4342 -37.636 5.8108)" gradientUnits="userSpaceOnUse" xlink:href="#a"/>
  <linearGradient id="f" x1="30.038" x2="30.038" y1="24.99" y2="30" gradientTransform="matrix(1.1654 -1.1721 1.4403 1.4342 -37.97 6.1464)" gradientUnits="userSpaceOnUse" xlink:href="#b"/>
  <linearGradient id="m" x1="9" x2="9" y1="29.057" y2="26.03" gradientTransform="matrix(1.2854 -1.2912 1.5886 1.58 -46.995 7.9571)" gradientUnits="userSpaceOnUse">
   <stop stop-color="#fff394" offset="0"/>
   <stop stop-color="#fafafa" offset="1"/>
  </linearGradient>
  <linearGradient id="l" x1="5.5179" x2="9.5221" y1="37.372" y2="41.392" gradientTransform="matrix(1.08 0 0 1.0787 -1.878 -.97999)" gradientUnits="userSpaceOnUse">
   <stop stop-color="#d48e15" offset="0"/>
   <stop stop-color="#ad5f00" offset="1"/>
  </linearGradient>
 </defs>
 <metadata>
  <rdf:RDF>
   <cc:Work rdf:about="">
    <dc:format>image/svg+xml</dc:format>
    <dc:type rdf:resource="http://purl.org/dc/dcmitype/StillImage"/>
   </cc:Work>
  </rdf:RDF>
 </metadata>
 <g>
  <g>
   <rect x="7.7378" y="42.43" width="32.508" height="3.5701" fill="url(#p)" opacity=".3"/>
   <path d="m7.7378 42.43v3.5699c-1.1865 0.0067-2.8684-0.79982-2.8684-1.7852 0-0.98533 1.324-1.7847 2.8684-1.7847z" fill="url(#d)" opacity=".3"/>
   <path d="m40.246 42.43v3.5699c1.1865 0.0067 2.8684-0.79982 2.8684-1.7852 0-0.98533-1.324-1.7847-2.8684-1.7847z" fill="url(#e)" opacity=".3"/>
  </g>
  <path d="m7 1c7.7911 0 34 0.00274 34 0.00274l4.1e-5 42.997h-34v-43z" fill="url(#q)"/>
 </g>
 <g transform="matrix(.0090017 0 0 .010129 6.0949 18.658)" fill="#2baf83">
  <path d="m835.75 1021.1h-458.41c-91.368 0-165.7-74.334-165.7-165.7v-458.41c0-91.368 74.334-165.7 165.7-165.7h458.41c16.648 0 33.094 2.468 48.881 7.336 16.264 5.015 25.383 22.265 20.368 38.53-5.015 16.264-22.265 25.387-38.53 20.368-9.898-3.052-20.234-4.6-30.719-4.6h-458.41c-57.383 0-104.07 46.685-104.07 104.07v458.41c0 57.383 46.684 104.07 104.07 104.07h458.41c57.382 0 104.07-46.685 104.07-104.07v-202.81c0-17.02 13.798-30.817 30.818-30.817s30.817 13.798 30.817 30.817v202.81c0 91.369-74.333 165.7-165.7 165.7z"/>
  <path d="m584.55 850.44-198.32-198.32c-17.397-17.397-17.397-45.604 0-63.001l63.463-63.463c17.397-17.397 45.604-17.397 63.001 0l103.36 103.36 344.8-344.8c17.397-17.397 45.603-17.397 63.001 0l63.463 63.462c17.397 17.397 17.397 45.604 0 63.001l-439.76 439.76c-17.398 17.397-45.605 17.397-63.002 0z"/>
 </g>
 <g fill="none">
  <path d="m40.5 43.5h-33v-42h33z" stroke="url(#r)" stroke-linecap="round"/>
  <path d="m6.5 0.49996c8.0203 0 35 0.00298 35 0.00298l3.7e-5 43.997h-35v-44z" stroke="url(#o)" stroke-linejoin="round" stroke-width=".99992"/>
  <path d="m17 8.4707h2.0729zm2.3769 0h1.9347zm2.2387 0h1.7136zm1.99 0h0.74623zm1.0503 0h1.6583zm1.99 0h4.3668zm4.6432 0h3.3442zm3.6206 0h1.0226zm-17.91 2.0039h3.2337zm3.593 0h1.5477zm1.8241 0h0.77387zm1.0779 0h1.4095zm1.7136 0h1.4372zm1.7136 0h2.294zm2.598 0h2.9849zm3.2613 0h1.99zm2.2663 0h0.49749zm-18.048 1.9883h2.7362zm3.0126 0h4.4774zm4.7538 0h2.1834zm2.4598 0h2.0452zm2.3216 0h1.7412zm2.0176 0 2.7362 0.03131zm2.9849 0.03131h4.4497zm-17.55 1.9883h3.7864zm4.0905 0h4.0905zm4.3668 0h1.6307zm1.907 0h3.8417zm4.0905 0h2.6256zm2.9296 0h1.0503zm1.3266 0h0.5804zm0.88442 0h1.6307zm-19.595 2.0039h1.4095zm1.8518 0h5.2236zm-1.8518 3.9922h2.7362zm3.0126 0h4.4774zm4.7538 0h2.1834zm2.4598 0h2.0452zm2.3216 0h1.7412zm2.0176 0 2.7362 0.03131zm2.9849 0.03131h4.4497zm-17.55 1.9883h2.0729zm2.3769 0h1.907zm2.2387 0h1.7136zm1.99 0h0.74623zm1.0503 0h1.6583zm1.99 0h4.3392zm4.6432 0h3.3166zm3.593 0h1.0503zm1.3266 0h2.4874zm-19.209 2.0039h3.4824zm3.7588 0h3.7312zm4.0075 0h1.4372zm1.7136 0h3.5101zm3.7864 0h4.4221zm4.7261 0h1.6307zm-17.992 2.0039h3.7864zm4.0905 0h4.0905zm4.3668 0h1.6307zm1.907 0h3.8417zm4.0905 0h2.6256zm2.9296 0h1.0503zm1.3266 0h0.5804zm0.88442 0h1.6307zm-19.595 2.0039h3.2337zm3.593 0h1.5477zm1.8241 0h0.77387zm1.0779 0h1.4095zm1.7136 0h1.4372zm1.7136 0h2.294zm2.598 0h2.9849zm3.2613 0h1.99zm2.2663 0h0.49749zm-18.048 3.9922h2.7362zm3.0126 0h4.4774zm4.7538 0h2.1834zm2.4598 0h2.0452zm2.3216 0h1.7412zm2.0176 0 2.7362 0.03131zm2.9849 0.03131h4.4497zm-17.55 1.9883h3.2337zm3.593 0h1.5477zm1.8241 0h0.77387zm1.0779 0h1.4095zm1.7136 0h1.4372zm1.7136 0h2.294zm2.598 0h2.9849zm3.2613 0h1.99zm2.2663 0h0.49749zm-18.048 2.0039h3.4271zm3.7312 0h1.0779zm1.3543 0h2.4598zm2.7362 0h3.6206zm3.9246 0h2.4598zm2.7085 0h0.52512zm0.80151 0h3.1231zm3.4548 0h1.6307zm-18.711 2.0039h3.4271zm3.7312 0h1.5477zm1.8241 0h2.4322zm2.7085 0h2.6256zm2.9296 0h1.0503zm1.3266 0h0.5804zm0.88442 0h1.6307z" stroke="url(#s)" stroke-width=".94136px"/>
 </g>
 <g transform="matrix(.0090017 0 0 .010129 6.0949 6.6577)" fill="#2baf83">
  <path d="m835.75 1021.1h-458.41c-91.368 0-165.7-74.334-165.7-165.7v-458.41c0-91.368 74.334-165.7 165.7-165.7h458.41c16.648 0 33.094 2.468 48.881 7.336 16.264 5.015 25.383 22.265 20.368 38.53-5.015 16.264-22.265 25.387-38.53 20.368-9.898-3.052-20.234-4.6-30.719-4.6h-458.41c-57.383 0-104.07 46.685-104.07 104.07v458.41c0 57.383 46.684 104.07 104.07 104.07h458.41c57.382 0 104.07-46.685 104.07-104.07v-202.81c0-17.02 13.798-30.817 30.818-30.817s30.817 13.798 30.817 30.817v202.81c0 91.369-74.333 165.7-165.7 165.7z"/>
  <path d="m584.55 850.44-198.32-198.32c-17.397-17.397-17.397-45.604 0-63.001l63.463-63.463c17.397-17.397 45.604-17.397 63.001 0l103.36 103.36 344.8-344.8c17.397-17.397 45.603-17.397 63.001 0l63.463 63.462c17.397 17.397 17.397 45.604 0 63.001l-439.76 439.76c-17.398 17.397-45.605 17.397-63.002 0z"/>
 </g>
 <g transform="matrix(.0090017 0 0 .010129 6.0949 30.658)" fill="#2baf83">
  <path d="m835.75 1021.1h-458.41c-91.368 0-165.7-74.334-165.7-165.7v-458.41c0-91.368 74.334-165.7 165.7-165.7h458.41c16.648 0 33.094 2.468 48.881 7.336 16.264 5.015 25.383 22.265 20.368 38.53-5.015 16.264-22.265 25.387-38.53 20.368-9.898-3.052-20.234-4.6-30.719-4.6h-458.41c-57.383 0-104.07 46.685-104.07 104.07v458.41c0 57.383 46.684 104.07 104.07 104.07h458.41c57.382 0 104.07-46.685 104.07-104.07v-202.81c0-17.02 13.798-30.817 30.818-30.817s30.817 13.798 30.817 30.817v202.81c0 91.369-74.333 165.7-165.7 165.7z"/>
  <path d="m584.55 850.44-198.32-198.32c-17.397-17.397-17.397-45.604 0-63.001l63.463-63.463c17.397-17.397 45.604-17.397 63.001 0l103.36 103.36 344.8-344.8c17.397-17.397 45.603-17.397 63.001 0l63.463 63.462c17.397 17.397 17.397 45.604 0 63.001l-439.76 439.76c-17.398 17.397-45.605 17.397-63.002 0z"/>
 </g>
 <g transform="matrix(.61846 0 0 .61911 16.314 2.9606)">
  <path transform="matrix(1.103 0 0 1.1017 -2.4284 -1.511)" d="m8.5763 31.492c0.80594-0.62026 2.9489 0.3853 4.8753 2.3036 1.9218 1.9138 2.8876 4.0087 2.281 4.8227-0.0023 0.0031 0.04736 0.04176 0.04501 0.04482l29.244-29.411c0.74247-0.74673-0.26564-2.9615-2.2532-4.9408-1.9876-1.9792-4.2057-2.9771-4.9482-2.2304z" fill="url(#n)" stroke="#ad5f00" stroke-linejoin="round" stroke-width=".90716"/>
  <path transform="matrix(1.103 0 0 1.1017 -2.4284 -1.511)" d="m8.5763 31.492c0.80594-0.62026 2.9489 0.3853 4.8753 2.3036 1.9218 1.9138 2.8876 4.0087 2.281 4.8227-0.0023 0.0031 0.04736 0.04176 0.04501 0.04482l20.139-20.255 0.07284-0.07325c0.0024-0.0031-0.04731-0.04172-0.04501-0.04482 0.60656-0.81401-0.35923-2.909-2.281-4.8227-1.9264-1.9183-4.0694-2.9239-4.8753-2.3036l-0.07284 0.07325-20.139 20.255z" fill="#f9c440" opacity=".6"/>
  <path transform="matrix(1.103 0 0 1.1017 -2.4284 -1.511)" d="m8.5763 31.492c0.80594-0.62026 2.9489 0.3853 4.8753 2.3036 1.9218 1.9138 2.8876 4.0087 2.281 4.8227-0.0023 0.0031 0.04736 0.04176 0.04501 0.04482l29.244-29.411c0.74247-0.74673-0.26564-2.9615-2.2532-4.9408-1.9876-1.9792-4.2057-2.9771-4.9482-2.2304z" fill="none" stroke="#ad5f00" stroke-linejoin="round" stroke-width=".90716"/>
  <g>
   <path transform="translate(-747.66 20.134)" d="m787.83-19.623c-0.37879-0.02145-0.68393 0.06387-0.88867 0.26953l-9.9629 10.008c0.88897-0.68331 3.2521 0.42375 5.377 2.5371 2.1198 2.1083 3.1866 4.4157 2.5176 5.3125-3e-3 0.00342 0.0515 0.047366 0.0488 0.050781l9.9629-10.008c0.81896-0.82264-0.29399-3.2629-2.4863-5.4434-1.6442-1.6353-3.432-2.6622-4.5684-2.7266z" fill="url(#t)" stroke="#555761" stroke-linejoin="round"/>
   <path transform="matrix(1.103 0 0 1.1017 -2.4284 -1.511)" d="m34.251 5.6705c0.80594-0.62026 2.9489 0.3853 4.8753 2.3036 1.9218 1.9138 2.8876 4.0087 2.281 4.8227-0.0023 0.0031 0.04736 0.04176 0.04501 0.04482l3.569-3.5894 0.07284-0.073254c0.0024-0.00306-0.04732-0.041724-0.04501-0.044821 0.60655-0.81401-0.35924-2.909-2.2811-4.8227-1.9264-1.9183-4.0694-2.9239-4.8753-2.3036l-0.07284 0.073254-3.569 3.5894z" fill="#fe9ab8" opacity=".9" stroke="#de3e80" stroke-linejoin="round" stroke-width=".90716"/>
   <path transform="matrix(1.103 0 0 1.1017 -2.4284 -1.511)" d="m30.251 9.6938c0.80594-0.62026 2.9489 0.3853 4.8753 2.3036 1.9218 1.9138 2.8876 4.0087 2.281 4.8227-0.0023 0.0031 0.04736 0.04176 0.04501 0.04482l0.36418-0.36627c0.0024-0.0031-0.04731-0.04172-0.04501-0.04482 0.60656-0.81401-0.35923-2.909-2.281-4.8227-1.9264-1.9183-4.0694-2.9239-4.8753-2.3036l-0.36418 0.36627z" fill="url(#k)"/>
   <path transform="matrix(1.103 0 0 1.1017 -2.4284 -1.511)" d="m29.917 10.03c0.80594-0.62026 2.9489 0.3853 4.8753 2.3036 1.9218 1.9138 2.8876 4.0087 2.281 4.8227-0.0023 0.0031 0.04736 0.04176 0.04501 0.04482l0.36418-0.36627c0.0024-0.0031-0.04732-0.04172-0.04501-0.04482 0.60656-0.81401-0.35923-2.909-2.281-4.8227-1.9264-1.9183-4.0694-2.9239-4.8753-2.3036z" fill="url(#j)"/>
   <path transform="matrix(1.103 0 0 1.1017 -2.4284 -1.511)" d="m31.41 8.5274c0.80594-0.62026 2.9489 0.3853 4.8753 2.3036 1.9218 1.9138 2.8876 4.0087 2.281 4.8227-0.0023 0.0031 0.04736 0.04176 0.04501 0.04482l0.36418-0.36627c0.0024-0.0031-0.04731-0.04172-0.04501-0.04482 0.60656-0.81401-0.35923-2.909-2.281-4.8227-1.9264-1.9183-4.0694-2.9239-4.8753-2.3036z" fill="url(#i)"/>
   <path transform="matrix(1.103 0 0 1.1017 -2.4284 -1.511)" d="m31.077 8.8631c0.80594-0.62026 2.9489 0.3853 4.8753 2.3036 1.9218 1.9138 2.8876 4.0087 2.281 4.8227-0.0023 0.0031 0.04736 0.04176 0.04501 0.04482l0.36418-0.36627c0.0024-0.0031-0.04731-0.04172-0.04501-0.04482 0.60656-0.81401-0.35923-2.909-2.281-4.8227-1.9264-1.9183-4.0694-2.9239-4.8753-2.3036l-0.36418 0.36627z" fill="url(#h)"/>
   <path transform="matrix(1.103 0 0 1.1017 -2.4284 -1.511)" d="m32.576 7.3554c0.80594-0.62026 2.9489 0.3853 4.8753 2.3036 1.9218 1.9138 2.8876 4.0087 2.281 4.8227-0.0023 0.0031 0.04736 0.04176 0.04501 0.04482l0.36418-0.36627c0.0024-0.0031-0.04731-0.04173-0.04501-0.04482 0.60656-0.81401-0.35923-2.909-2.281-4.8227-1.9264-1.9183-4.0694-2.9239-4.8753-2.3036l-0.36418 0.36627z" fill="url(#g)"/>
   <path transform="matrix(1.103 0 0 1.1017 -2.4284 -1.511)" d="m32.242 7.691c0.80594-0.62026 2.9489 0.3853 4.8753 2.3036 1.9218 1.9138 2.8876 4.0087 2.281 4.8227-0.0023 0.0031 0.04736 0.04176 0.04501 0.04482l0.36418-0.36627c0.0024-0.0031-0.04732-0.04173-0.04501-0.04482 0.60656-0.81401-0.35923-2.909-2.281-4.8227-1.9264-1.9183-4.0694-2.9239-4.8753-2.3036l-0.36418 0.36627z" fill="url(#f)"/>
   <path d="m0.5 47.5 14.312-6.3438 0.125-0.125c0.66904-0.89676-0.41145-3.2042-2.5312-5.3125-2.1249-2.1134-4.486-3.2146-5.375-2.5312z" fill="url(#m)" fill-rule="evenodd" stroke="url(#l)"/>
   <path transform="matrix(1.103 0 0 1.1017 -2.4284 -1.511)" d="m4.2588 40.97-1.6041 3.5051 3.5394-1.5778c-0.26434-0.32226-0.50703-0.65069-0.82734-0.96965-0.36875-0.36721-0.73431-0.66229-1.108-0.9576z" fill-rule="evenodd" stroke="#000" stroke-width=".90716"/>
  </g>
 </g>
</svg>
