<?xml version="1.0" encoding="UTF-8"?>
<svg width="48mm" height="48mm" version="1.1" viewBox="0 0 48 48" xml:space="preserve" xmlns="http://www.w3.org/2000/svg" xmlns:xlink="http://www.w3.org/1999/xlink"><defs><radialGradient id="a" cx="99.157" cy="186.17" r="62.769" gradientTransform="matrix(.17525 0 0 .05576 -1.3768 18.119)" gradientUnits="userSpaceOnUse"><stop stop-color="#3d3d3d" offset="0"/><stop stop-color="#686868" stop-opacity=".49804" offset=".5"/><stop stop-color="#686868" stop-opacity="0" offset="1"/></radialGradient><radialGradient id="b" cx="21.995" cy="4.0384" r="20.397" gradientTransform="matrix(0 2.0591 -2.7179 0 26.845 -48.288)" gradientUnits="userSpaceOnUse"><stop stop-color="#f8b17e" offset="0"/><stop stop-color="#e35d4f" offset=".26238"/><stop stop-color="#c6262e" offset=".66094"/><stop stop-color="#690b54" offset="1"/></radialGradient><linearGradient id="d" x1="71.204" x2="71.204" y1="6.2376" y2="44.341" gradientTransform="matrix(.72973 0 0 .72973 -36.346 -2.5039)" gradientUnits="userSpaceOnUse"><stop stop-color="#fff" offset="0"/><stop stop-color="#fff" stop-opacity=".23529" offset=".50776"/><stop stop-color="#fff" stop-opacity=".15686" offset=".83457"/><stop stop-color="#fff" stop-opacity=".39216" offset="1"/></linearGradient><linearGradient id="c" x1="90.944" x2="90.944" y1="10.3" y2="56.572" gradientTransform="matrix(.44444 0 0 .45977 -24 1.3062)" gradientUnits="userSpaceOnUse"><stop stop-color="#fffdf3" offset="0"/><stop stop-color="#fbebeb" offset="1"/></linearGradient></defs><rect x="1" y="18.849" width="46" height="10.302" rx="4.6" ry="5.1512" fill="#fdb93c" stroke-width=".60854"/><g fill="#fdb93f"><rect transform="matrix(.45825 .88882 -.83977 .54294 0 0)" x="8.2494" y="-15.127" width="50.191" height="9.4876" rx="5.0191" ry="4.7438" stroke-width=".61"/><rect transform="matrix(-.45825 .88882 -.83977 -.54294 0 0)" x="-17.937" y="-37.229" width="50.191" height="9.4876" rx="5.0191" ry="4.7438" stroke-width=".61"/><ellipse cx="24" cy="24" rx="8.05" ry="9.0146" stroke-width=".60848"/></g><g transform="matrix(.5334 0 0 .51615 30.466 30.483)"><path d="m27 28.5a11 3.5 0 1 1-22 0 11 3.5 0 1 1 22 0z" fill="url(#a)"/><path d="m16 1.5018c-7.9996 0-14.498 6.4986-14.498 14.498 0 7.9996 6.4986 14.498 14.498 14.498 7.9996 0 14.498-6.4986 14.498-14.498 0-7.9996-6.4986-14.498-14.498-14.498z" fill="url(#b)"/><path d="m29.5 16c0 7.4561-6.0446 13.5-13.5 13.5-7.4559 0-13.5-6.0445-13.5-13.5 0-7.4557 6.0443-13.5 13.5-13.5 7.4552 0 13.5 6.0438 13.5 13.5z" color="#000000" fill="none" opacity=".5" stroke="url(#d)" stroke-linecap="round" stroke-linejoin="round"/><path d="m16 1.5018c-7.9996 0-14.498 6.4986-14.498 14.498 0 7.9996 6.4986 14.498 14.498 14.498 7.9996 0 14.498-6.4986 14.498-14.498 0-7.9996-6.4986-14.498-14.498-14.498z" color="#000000" fill="none" opacity=".5" stroke="#6f0000" stroke-linecap="round" stroke-linejoin="round"/><g shape-rendering="auto"><path transform="matrix(.99482 0 0 .98462 .082902 .26154)" d="m8 13.953a1.0468 1.0468 0 0 0-1.0469 1.0469v4a1.0468 1.0468 0 0 0 1.0469 1.0469h16a1.0468 1.0468 0 0 0 1.0469-1.0469v-4a1.0468 1.0468 0 0 0-1.0469-1.0469z" color="#000000" color-rendering="auto" fill="#661215" fill-rule="evenodd" image-rendering="auto" opacity=".15" solid-color="#000000" style="isolation:auto;mix-blend-mode:normal"/><path d="m8 15v4h16v-4z" color="#000000" color-rendering="auto" fill="#661215" fill-rule="evenodd" image-rendering="auto" opacity=".3" solid-color="#000000" style="isolation:auto;mix-blend-mode:normal"/><path d="m8 14v4h16v-4z" color="#000000" color-rendering="auto" fill="url(#c)" image-rendering="auto" solid-color="#000000" style="isolation:auto;mix-blend-mode:normal"/></g></g></svg>
