<?xml version="1.0" encoding="UTF-8"?>
<svg width="48mm" height="48mm" version="1.1" viewBox="0 0 48 48" xml:space="preserve" xmlns="http://www.w3.org/2000/svg"><g><rect x="1" y="18.849" width="46" height="10.302" rx="4.6" ry="5.1512" fill="#fdb93c" stroke-width=".60854"/><g fill="#fdb93f"><rect transform="matrix(.45825 .88882 -.83977 .54294 0 0)" x="8.2494" y="-15.127" width="50.191" height="9.4876" rx="5.0191" ry="4.7438" stroke-width=".61"/><rect transform="matrix(-.45825 .88882 -.83977 -.54294 0 0)" x="-17.937" y="-37.229" width="50.191" height="9.4876" rx="5.0191" ry="4.7438" stroke-width=".61"/><ellipse cx="24" cy="24" rx="8.05" ry="9.0146" stroke-width=".60848"/></g></g><g transform="matrix(1.3334 0 0 1.3333 -14.334 -14.809)"><rect x="34.117" y="34.476" width="11.765" height="11.765" fill="#fff" stroke-width=".11765"/><rect x="34.117" y="34.476" width="11.765" height="11.765" fill="none" stroke="#000" stroke-width=".23529"/><polygon transform="matrix(.11765 0 0 .11765 34.117 34.476)" points="0 100 0 0 100 0"/></g></svg>
