<?xml version="1.0" encoding="UTF-8"?>
<svg width="48" height="48" version="1.0" xml:space="preserve" xmlns="http://www.w3.org/2000/svg" xmlns:cc="http://creativecommons.org/ns#" xmlns:dc="http://purl.org/dc/elements/1.1/" xmlns:rdf="http://www.w3.org/1999/02/22-rdf-syntax-ns#"><metadata><rdf:RDF><cc:Work rdf:about=""><dc:format>image/svg+xml</dc:format><dc:type rdf:resource="http://purl.org/dc/dcmitype/StillImage"/></cc:Work></rdf:RDF></metadata><defs><radialGradient id="a" cx="62.625" cy="4.625" r="10.625" gradientTransform="matrix(2.1647 0 0 .75294 -111.56 36.518)" gradientUnits="userSpaceOnUse"><stop offset="0"/><stop stop-opacity="0" offset="1"/></radialGradient><linearGradient id="b" x1="37.201" x2="37.201" y1="1" y2="45" gradientUnits="userSpaceOnUse"><stop stop-color="#5090c2" offset="0"/><stop stop-color="#8c8c8c" offset="1"/></linearGradient><linearGradient id="c" x1="20.759" x2="20.759" y1="1" y2="45.017" gradientUnits="userSpaceOnUse"><stop stop-color="#66b0e2" offset="0"/><stop stop-color="#d2d2d2" offset="1"/></linearGradient><linearGradient id="d" x1="86.133" x2="84.639" y1="105.1" y2="20.895" gradientTransform="matrix(.32448 0 0 .32448 3.2333 2.5577)" gradientUnits="userSpaceOnUse"><stop stop-color="#e5e5e5" offset="0"/><stop stop-color="#ababab" offset="1"/></linearGradient></defs><path d="m47 40c0 4.4183-10.297 8-23 8s-23-3.5817-23-8 10.297-8 23-8 23 3.5817 23 8z" fill="url(#a)" fill-rule="evenodd" opacity=".3"/><path d="m24 9.5c-7.4439 0-13.5 6.0561-13.5 13.5s6.0561 13.5 13.5 13.5 13.5-6.0561 13.5-13.5-6.0561-13.5-13.5-13.5z" fill="none" stroke="url(#d)"/><path d="m21.031 1.5c-0.84613 0-1.5312 0.70191-1.5312 1.5625v3.0312c-1.5129 0.40311-2.9586 1.012-4.2812 1.7812l-2.1562-2.1562c-0.30427-0.30427-0.66875-0.46541-1.0625-0.46875s-0.7946 0.13835-1.0938 0.4375l-4.2188 4.2188c-0.5983 0.5983-0.57728 1.5477 0.03125 2.1562l2.1562 2.1562c-0.76926 1.3227-1.3781 2.7683-1.7812 4.2812h-3.0312c-0.86059 0-1.5625 0.68512-1.5625 1.5312v5.9375c0 0.84613 0.70191 1.5312 1.5625 1.5312h3.0312c0.40311 1.5129 1.012 2.9586 1.7812 4.2812l-2.1562 2.1562c-0.60853 0.60853-0.62955 1.5579-0.03125 2.1562l4.2188 4.2188c0.5983 0.5983 1.5477 0.57728 2.1562-0.03125l2.1562-2.1562c1.3227 0.76926 2.7683 1.3781 4.2812 1.7812v3.0312c0 0.86059 0.68512 1.5625 1.5312 1.5625h5.9375c0.84613 0 1.5312-0.70191 1.5312-1.5625v-3.0312c1.5129-0.40311 2.9586-1.012 4.2812-1.7812l2.1562 2.1562c0.60853 0.60853 1.5579 0.62956 2.1562 0.03125l4.2188-4.2188c0.5983-0.5983 0.57728-1.5477-0.03125-2.1562l-2.1562-2.1562c0.76926-1.3227 1.3781-2.7683 1.7812-4.2812h3.0312c0.86059 0 1.5625-0.68512 1.5625-1.5312v-5.9375c0-0.84613-0.70191-1.5312-1.5625-1.5312h-3.0312c-0.40311-1.5129-1.012-2.9586-1.7812-4.2812l2.1562-2.1562c0.60853-0.60853 0.62956-1.5579 0.03125-2.1562l-4.2188-4.2188c-0.5983-0.5983-1.5477-0.57728-2.1562 0.03125l-2.1562 2.1562c-1.3227-0.76926-2.7683-1.3781-4.2812-1.7812v-3.0312c0-0.86059-0.68512-1.5625-1.5312-1.5625zm2.9688 15c3.588 0 6.5 2.912 6.5 6.5s-2.912 6.5-6.5 6.5-6.5-2.912-6.5-6.5 2.912-6.5 6.5-6.5z" display="block" fill="url(#c)" stroke="url(#b)" stroke-linejoin="round"/><path d="m24 10c-7.1683-5e-7 -13 5.8317-13 13s5.8317 13 13 13c7.1683-1e-6 13-5.8317 13-13s-5.8317-13-13-13zm0 6c3.864 0 7 3.136 7 7s-3.136 7-7 7-7-3.136-7-7 3.136-7 7-7z" opacity=".05"/></svg>
