<?xml version="1.0" encoding="UTF-8"?>
<svg width="48" height="48" version="1.1" xml:space="preserve" xmlns="http://www.w3.org/2000/svg" xmlns:cc="http://creativecommons.org/ns#" xmlns:dc="http://purl.org/dc/elements/1.1/" xmlns:rdf="http://www.w3.org/1999/02/22-rdf-syntax-ns#" xmlns:xlink="http://www.w3.org/1999/xlink"><defs><radialGradient id="b" cx="4.993" cy="43.5" r="2.5" gradientTransform="matrix(2.0038 0 0 1.4 27.988 -17.4)" gradientUnits="userSpaceOnUse"><stop stop-color="#181818" offset="0"/><stop stop-color="#181818" stop-opacity="0" offset="1"/></radialGradient><radialGradient id="a" cx="4.993" cy="43.5" r="2.5" gradientTransform="matrix(2.0038 0 0 1.4 -20.012 -104.4)" gradientUnits="userSpaceOnUse"><stop stop-color="#181818" offset="0"/><stop stop-color="#181818" stop-opacity="0" offset="1"/></radialGradient><linearGradient id="h" x1="25.058" x2="25.058" y1="47.028" y2="39.999" gradientUnits="userSpaceOnUse"><stop stop-color="#181818" stop-opacity="0" offset="0"/><stop stop-color="#181818" offset=".5"/><stop stop-color="#181818" stop-opacity="0" offset="1"/></linearGradient><linearGradient id="g" x1="24" x2="24" y1="5" y2="43" gradientTransform="matrix(1.15 0 0 1.1509 -3.6 -3.6396)" gradientUnits="userSpaceOnUse"><stop stop-color="#fff" offset="0"/><stop stop-color="#fff" stop-opacity=".23529" offset=".063165"/><stop stop-color="#fff" stop-opacity=".15686" offset=".95056"/><stop stop-color="#fff" stop-opacity=".39216" offset="1"/></linearGradient><linearGradient id="f" x1="24.17" x2="24.17" y1="-12.242" y2="48.934" gradientTransform="matrix(.85091 0 0 .85091 -3.2291 -3.2284)" gradientUnits="userSpaceOnUse"><stop stop-color="#92c5de" offset="0"/><stop stop-color="#5ca7cd" offset=".26238"/><stop stop-color="#50a1ca" offset=".66094"/><stop stop-color="#1781b6" offset="1"/></linearGradient><linearGradient id="e" x1="23.954" x2="23.954" y1="15.999" y2="19.963" gradientTransform="matrix(1.2 0 0 .45 -4.8 4.8007)" gradientUnits="userSpaceOnUse"><stop offset="0"/><stop stop-opacity="0" offset="1"/></linearGradient><linearGradient id="d" x1="25.132" x2="25.132" y1="15.5" y2="48.396" gradientTransform="matrix(1.0253 0 0 .98389 -.6065 -2.8725)" gradientUnits="userSpaceOnUse"><stop stop-color="#fafafa" offset="0"/><stop stop-color="#e2e1de" offset="1"/></linearGradient><linearGradient id="c" x1="24" x2="24" y1="5" y2="43" gradientTransform="matrix(1.2 0 0 1.2 -4.8 -4.7993)" gradientUnits="userSpaceOnUse"><stop stop-color="#fff" offset="0"/><stop stop-color="#fff" stop-opacity=".23529" offset=".063165"/><stop stop-color="#fff" stop-opacity=".15686" offset=".95056"/><stop stop-color="#fff" stop-opacity=".39216" offset="1"/></linearGradient></defs><metadata><rdf:RDF><cc:Work rdf:about=""><dc:format>image/svg+xml</dc:format><dc:type rdf:resource="http://purl.org/dc/dcmitype/StillImage"/></cc:Work></rdf:RDF></metadata><g transform="matrix(1.1096 0 0 .61656 -2.6316 16.343)" opacity=".35"><rect x="38" y="40" width="5" height="7" fill="url(#b)"/><rect transform="scale(-1)" x="-10" y="-47" width="5" height="7" fill="url(#a)"/><rect x="10" y="40" width="28" height="7" fill="url(#h)"/></g><rect x="2.15" y="2.1149" width="43.7" height="43.735" rx="2.3" ry="2.3018" color="#000000" fill="url(#d)"/><rect x="2.725" y="2.6904" width="42.55" height="42.584" rx="1.15" ry="1.1509" fill="none" stroke="url(#g)" stroke-linecap="round" stroke-linejoin="round" stroke-width="1.1505"/><path d="m1.5876 10.938v32.916c0 1.4172 1.0905 2.5581 2.445 2.5581h39.935c1.3545 0 2.445-1.1409 2.445-2.5581v-32.916" fill="none" opacity=".3" stroke="#000" stroke-width="1.1756"/><g transform="matrix(.95833 0 0 .83395 1 .99957)"><path d="m3 1.8007c-0.6648 0-1.2 0.5352-1.2 1.2v7.2h44.4v-7.2c0-0.6648-0.5352-1.2-1.2-1.2z" fill="none" opacity=".5" stroke="url(#c)" stroke-linecap="round" stroke-linejoin="round" stroke-width="1.2"/><g><rect y="12.001" width="48" height="1.8" rx="0" ry="0" fill="url(#e)" opacity=".15"/><path d="m3.1527 0.6c-1.4142 0-2.5527 1.1385-2.5527 2.5527v8.2473h46.8v-8.2473c0-1.4142-1.1385-2.5527-2.5527-2.5527z" color="#000000" fill="none" opacity=".4" stroke="#1d86ba" stroke-linecap="round" stroke-width="1.2"/><path d="m3.1527 0.60067c-1.4142 0-2.5527 1.1385-2.5527 2.5527v8.2473h46.8v-8.2473c0-1.4142-1.1385-2.5527-2.5527-2.5527z" color="#000000" fill="url(#f)"/></g></g><g fill="none"><rect x="8.7353" y="14.235" width="11.529" height="11.529" rx="1.6471" stroke="#98b32c" stroke-width="2.4706"/><g stroke-width="2.4706"><rect x="28.735" y="14.235" width="11.529" height="11.529" rx="1.6471" stroke="#4f9cdf"/><rect x="8.7353" y="31.235" width="11.529" height="11.529" rx="1.6471" stroke="#f97248"/><rect x="28.735" y="31.235" width="11.529" height="11.529" rx="1.6471" stroke="#9e84ff"/></g></g></svg>
