<?xml version="1.0" encoding="UTF-8"?>
<svg width="24" height="24" version="1.2" xmlns="http://www.w3.org/2000/svg" xmlns:cc="http://creativecommons.org/ns#" xmlns:dc="http://purl.org/dc/elements/1.1/" xmlns:rdf="http://www.w3.org/1999/02/22-rdf-syntax-ns#" xmlns:xlink="http://www.w3.org/1999/xlink">
 <defs>
  <linearGradient id="linearGradient12398-3" x1="71.204" x2="71.204" y1="6.2376" y2="44.341" gradientTransform="matrix(.51351 0 0 .51351 -24.836 -1.0213)" gradientUnits="userSpaceOnUse">
   <stop stop-color="#fff" offset="0"/>
   <stop stop-color="#fff" stop-opacity=".23529" offset=".50776"/>
   <stop stop-color="#fff" stop-opacity=".15686" offset=".83457"/>
   <stop stop-color="#fff" stop-opacity=".39216" offset="1"/>
  </linearGradient>
  <linearGradient id="linearGradient11527-6-5" x1="2035.2" x2="2035.2" y1="3208.1" y2="3242" gradientTransform="matrix(.80479 0 0 .60166 -1628.8 -1928.1)" gradientUnits="userSpaceOnUse">
   <stop stop-color="#cd9ef7" offset="0"/>
   <stop stop-color="#a56de2" offset="1"/>
  </linearGradient>
  <radialGradient id="radialGradient3108" cx="99.157" cy="186.17" r="62.769" gradientTransform="matrix(.11152 0 0 .035484 .94203 15.167)" gradientUnits="userSpaceOnUse">
   <stop stop-color="#3d3d3d" offset="0"/>
   <stop stop-color="#686868" stop-opacity=".49804" offset=".5"/>
   <stop stop-color="#686868" stop-opacity="0" offset="1"/>
  </radialGradient>
 </defs>
 <metadata>
  <rdf:RDF>
   <cc:Work rdf:about="">
    <dc:format>image/svg+xml</dc:format>
    <dc:type rdf:resource="http://purl.org/dc/dcmitype/StillImage"/>
    <dc:title/>
   </cc:Work>
  </rdf:RDF>
 </metadata>
 <path d="m19 21.773a7 2.2273 0 0 1-14 0 7 2.2273 0 1 1 14 0z" fill="url(#radialGradient3108)"/>
 <g>
  <path d="m12 1.5c-5.7935 0-10.5 4.7065-10.5 10.5 0 5.7935 4.7065 10.5 10.5 10.5 5.7935 0 10.5-4.7065 10.5-10.5 0-5.7935-4.7065-10.5-10.5-10.5z" color="#000000" fill="url(#linearGradient11527-6-5)" opacity=".99"/>
  <path d="m12 1.5c-5.7935 0-10.5 4.7065-10.5 10.5 0 5.7935 4.7065 10.5 10.5 10.5 5.7935 0 10.5-4.7065 10.5-10.5 0-5.7935-4.7065-10.5-10.5-10.5z" color="#000000" fill="none" opacity=".5" stroke="#7239b3" stroke-linecap="round" stroke-width="1px" style="font-variation-settings:normal"/>
  <path d="m21.5 12c0 5.2469-4.2536 9.5003-9.4999 9.5003-5.2468 0-9.5001-4.2535-9.5001-9.5003 0-5.2466 4.2534-9.4997 9.5001-9.4997 5.2463 0 9.4999 4.253 9.4999 9.4997z" color="#000000" fill="none" opacity=".4" stroke="url(#linearGradient12398-3)" stroke-linecap="round" stroke-linejoin="round"/>
 </g>
</svg>
