<?xml version="1.0" encoding="UTF-8"?>
<svg width="48px" height="48px" xmlns="http://www.w3.org/2000/svg" xmlns:cc="http://creativecommons.org/ns#" xmlns:dc="http://purl.org/dc/elements/1.1/" xmlns:rdf="http://www.w3.org/1999/02/22-rdf-syntax-ns#" xmlns:xlink="http://www.w3.org/1999/xlink">
 <defs>
  <radialGradient id="radialGradient5031" cx="605.71" cy="486.65" r="117.14" gradientTransform="matrix(-2.7744 0 0 1.9697 112.76 -872.89)" gradientUnits="userSpaceOnUse" xlink:href="#linearGradient5060"/>
  <linearGradient id="linearGradient5060">
   <stop offset="0"/>
   <stop stop-opacity="0" offset="1"/>
  </linearGradient>
  <radialGradient id="radialGradient5029" cx="605.71" cy="486.65" r="117.14" gradientTransform="matrix(2.7744 0 0 1.9697 -1891.6 -872.89)" gradientUnits="userSpaceOnUse" xlink:href="#linearGradient5060"/>
  <linearGradient id="linearGradient5027" x1="302.86" x2="302.86" y1="366.65" y2="609.51" gradientTransform="matrix(2.7744 0 0 1.9697 -1892.2 -872.89)" gradientUnits="userSpaceOnUse">
   <stop stop-opacity="0" offset="0"/>
   <stop offset=".5"/>
   <stop stop-opacity="0" offset="1"/>
  </linearGradient>
  <linearGradient id="linearGradient2240" x1="20.794" x2="35.596" y1="18.379" y2="39.6" gradientTransform="matrix(1.3427 0 0 1.2354 -8.2196 -7.5495)" gradientUnits="userSpaceOnUse">
   <stop stop-color="#f8f8f7" offset="0"/>
   <stop stop-color="#e8e8e8" offset=".59929"/>
   <stop stop-color="#e2e2de" offset="1"/>
  </linearGradient>
 </defs>
 <metadata>
  <rdf:RDF>
   <cc:Work rdf:about="">
    <dc:format>image/svg+xml</dc:format>
    <dc:type rdf:resource="http://purl.org/dc/dcmitype/StillImage"/>
    <dc:title>Select All</dc:title>
    <dc:date/>
    <dc:creator>
     <cc:Agent>
      <dc:title>Andreas Nilsson</dc:title>
     </cc:Agent>
    </dc:creator>
    <dc:subject>
     <rdf:Bag>
      <rdf:li>select</rdf:li>
      <rdf:li>all</rdf:li>
     </rdf:Bag>
    </dc:subject>
    <cc:license rdf:resource="http://creativecommons.org/licenses/publicdomain/"/>
   </cc:Work>
   <cc:License rdf:about="http://creativecommons.org/licenses/publicdomain/">
    <cc:permits rdf:resource="http://creativecommons.org/ns#Reproduction"/>
    <cc:permits rdf:resource="http://creativecommons.org/ns#Distribution"/>
    <cc:permits rdf:resource="http://creativecommons.org/ns#DerivativeWorks"/>
   </cc:License>
  </rdf:RDF>
 </metadata>
 <g transform="matrix(.023828 0 0 .014488 44.944 43.779)">
  <rect x="-1559.3" y="-150.7" width="1339.6" height="478.36" color="black" fill="url(#linearGradient5027)" opacity=".40206"/>
  <path d="m-219.62-150.68v478.33c142.87 0.90045 345.4-107.17 345.4-239.2 0-132.03-159.44-239.13-345.4-239.13z" color="black" fill="url(#radialGradient5029)" opacity=".40206"/>
  <path d="m-1559.3-150.68v478.33c-142.87 0.90045-345.4-107.17-345.4-239.2 0-132.03 159.44-239.13 345.4-239.13z" color="black" fill="url(#radialGradient5031)" opacity=".40206"/>
 </g>
 <rect x="4.5016" y=".52463" width="38.997" height="45.003" rx=".56651" ry=".56651" fill="url(#linearGradient2240)" fill-rule="evenodd" stroke="#888a85"/>
 <g fill="#999" fill-rule="evenodd">
  <rect x="22" y="9.0277" width="14" height="2" color="black"/>
  <rect x="22" y="15.028" width="12" height="2" color="black"/>
  <rect x="9" y="21.028" width="22.972" height="2" color="black"/>
  <rect x="9" y="27.028" width="27" height="2" color="black"/>
  <rect x="9" y="33.028" width="17" height="2" color="black"/>
 </g>
 <rect x="5.4997" y="1.5274" width="37" height="43.022" rx="0" ry="0" fill="none" stroke="#fff"/>
 <rect x="9" y="9.0277" width="11" height="10" fill="#999"/>
 <g fill="#729fcf">
  <rect x="8" y="13.028" width="29" height="6" color="black" opacity=".5"/>
  <rect x="8" y="7.0277" width="31" height="6" color="black" opacity=".5"/>
  <rect x="8" y="19.028" width="25" height="6" color="black" opacity=".5"/>
  <rect x="8" y="25.028" width="29" height="6" color="black" opacity=".5"/>
  <rect x="8" y="31.028" width="19" height="6" color="black" opacity=".5"/>
 </g>
 <g>
  <rect x="28" y="31.028" width="1" height="7" color="black"/>
  <rect x="27" y="30.028" width="1" height="1" color="black"/>
  <rect x="29" y="30.028" width="1" height="1" color="black"/>
  <rect x="29" y="38.028" width="1" height="1" color="black"/>
  <rect x="27" y="38.028" width="1" height="1" color="black"/>
 </g>
</svg>
