<?xml version="1.0" encoding="UTF-8"?>
<svg width="48px" height="48px" xmlns="http://www.w3.org/2000/svg" xmlns:cc="http://creativecommons.org/ns#" xmlns:dc="http://purl.org/dc/elements/1.1/" xmlns:rdf="http://www.w3.org/1999/02/22-rdf-syntax-ns#" xmlns:xlink="http://www.w3.org/1999/xlink">
 <defs>
  <linearGradient id="linearGradient15218">
   <stop stop-color="#f0f0ef" offset="0"/>
   <stop stop-color="#e8e8e8" offset=".59929"/>
   <stop stop-color="#fff" offset=".82759"/>
   <stop stop-color="#d8d8d3" offset="1"/>
  </linearGradient>
  <linearGradient id="linearGradient2259">
   <stop stop-color="#fff" offset="0"/>
   <stop stop-color="#fff" stop-opacity="0" offset="1"/>
  </linearGradient>
  <linearGradient id="linearGradient2230" x1="35.997" x2="33.665" y1="40.458" y2="37.771" gradientTransform="translate(6.1618 4.0334)" gradientUnits="userSpaceOnUse">
   <stop stop-color="#7c7c7c" offset="0"/>
   <stop stop-color="#b8b8b8" offset="1"/>
  </linearGradient>
  <linearGradient id="linearGradient2257" x1="33.396" x2="34.17" y1="36.921" y2="38.07" gradientTransform="translate(6.1618 3.6584)" gradientUnits="userSpaceOnUse">
   <stop stop-color="#fff" offset="0"/>
   <stop stop-color="#fff" stop-opacity="0" offset="1"/>
  </linearGradient>
  <linearGradient id="linearGradient4258" x1="22.308" x2="35.785" y1="18.992" y2="39.498" gradientTransform="matrix(1.0657 0 0 .9876 -8.5483 -4.8917)" gradientUnits="userSpaceOnUse" xlink:href="#linearGradient15218"/>
  <linearGradient id="linearGradient4260" x1="26.076" x2="30.811" y1="26.697" y2="42.007" gradientTransform="matrix(.9985 0 0 .99825 -6.9704 -4.8929)" gradientUnits="userSpaceOnUse" xlink:href="#linearGradient2259"/>
  <linearGradient id="linearGradient13651" x1="26.076" x2="30.811" y1="26.697" y2="42.007" gradientTransform="matrix(.99942 0 0 1 5.9913 4.0334)" gradientUnits="userSpaceOnUse" xlink:href="#linearGradient2259"/>
  <linearGradient id="linearGradient13653" x1="22.308" x2="35.785" y1="18.992" y2="39.498" gradientTransform="matrix(1.0672 0 0 .98928 4.3917 4.0352)" gradientUnits="userSpaceOnUse" xlink:href="#linearGradient15218"/>
 </defs>
 <metadata>
  <rdf:RDF>
   <cc:Work rdf:about="">
    <dc:format>image/svg+xml</dc:format>
    <dc:type rdf:resource="http://purl.org/dc/dcmitype/StillImage"/>
    <dc:title>Edit Copy</dc:title>
    <dc:date>2005-10-15</dc:date>
    <dc:creator>
     <cc:Agent>
      <dc:title>Andreas Nilsson</dc:title>
     </cc:Agent>
    </dc:creator>
    <dc:subject>
     <rdf:Bag>
      <rdf:li>edit</rdf:li>
      <rdf:li>copy</rdf:li>
     </rdf:Bag>
    </dc:subject>
    <cc:license rdf:resource="http://creativecommons.org/licenses/publicdomain/"/>
    <dc:contributor>
     <cc:Agent>
      <dc:title>Jakub Steiner</dc:title>
     </cc:Agent>
    </dc:contributor>
   </cc:Work>
   <cc:License rdf:about="http://creativecommons.org/licenses/publicdomain/">
    <cc:permits rdf:resource="http://creativecommons.org/ns#Reproduction"/>
    <cc:permits rdf:resource="http://creativecommons.org/ns#Distribution"/>
    <cc:permits rdf:resource="http://creativecommons.org/ns#DerivativeWorks"/>
   </cc:License>
  </rdf:RDF>
 </metadata>
 <g transform="matrix(1.0015 0 0 1.0006 -.050022 -.063049)" opacity=".5">
  <rect x="20.162" y="34.033" width="13" height="2" color="#000000" fill-rule="evenodd" opacity=".17045"/>
  <rect x="1.5484" y="1.5629" width="30.952" height="35.977" rx=".56566" ry=".56616" fill="url(#linearGradient4258)" fill-rule="evenodd" opacity="1" stroke="#888a85" stroke-width=".99894"/>
  <rect x="2.5325" y="2.5606" width="28.971" height="33.981" rx="0" ry="0" fill="none" opacity="1" stroke="url(#linearGradient4260)" stroke-width=".99894"/>
  <g fill-rule="evenodd">
   <rect x="7.0161" y="10.033" width="21" height="2" color="#000000" opacity=".17045"/>
   <rect x="7.0161" y="14.033" width="20" height="2" color="#000000" opacity=".17045"/>
   <rect x="7.0161" y="18.033" width="18" height="2" color="#000000" opacity=".17045"/>
   <rect x="7.0161" y="22.033" width="21" height="2" color="#000000" opacity=".17045"/>
   <rect x="7.0161" y="26.033" width="13" height="2" color="#000000" opacity=".17045"/>
  </g>
 </g>
 <path d="m15.073 10.501h29.856c0.31574 0 0.56993 0.25309 0.56993 0.56747v27.167c0 2.4765-6.8798 8.3031-9.2679 8.3031h-21.158c-0.31574 0-0.56993-0.25309-0.56993-0.56747v-34.903c0-0.31438 0.25419-0.56747 0.56993-0.56747z" fill="url(#linearGradient13653)" fill-rule="evenodd" stroke="#888a85"/>
 <g>
  <rect x="15.503" y="11.5" width="28.997" height="34.041" rx="0" ry="0" fill="none" stroke="url(#linearGradient13651)"/>
  <path d="m36.221 46.537c2.0304 0.3299 9.5888-4.5299 9.2844-8.4978-1.5633 2.4231-4.7585 1.2867-8.8673 1.4457 0 0 0.39537 6.5521-0.41713 7.0521z" color="#000000" fill="url(#linearGradient2230)" fill-rule="evenodd" stroke="#868a84"/>
  <path d="m37.671 44.345c1.3698-0.68383 4.4282-2.1465 5.7276-4.0275-1.5961 0.68006-2.9478 0.2095-5.7023 0.1904 0 0 0.16232 3.0621-0.025296 3.8371z" color="#000000" fill="none" opacity=".36932" stroke="url(#linearGradient2257)"/>
 </g>
 <g fill-rule="evenodd">
  <rect x="20" y="19.033" width="21" height="2" color="#000000" opacity=".17045"/>
  <rect x="20" y="23.033" width="19.992" height="2" color="#000000" opacity=".17045"/>
  <rect x="20" y="27.033" width="17.977" height="2" color="#000000" opacity=".17045"/>
  <rect x="20" y="31.033" width="21" height="2" color="#000000" opacity=".17045"/>
 </g>
</svg>
