<?xml version="1.0" encoding="UTF-8"?>
<svg width="48px" height="48px" xmlns="http://www.w3.org/2000/svg" xmlns:cc="http://creativecommons.org/ns#" xmlns:dc="http://purl.org/dc/elements/1.1/" xmlns:rdf="http://www.w3.org/1999/02/22-rdf-syntax-ns#" xmlns:xlink="http://www.w3.org/1999/xlink">
 <defs>
  <linearGradient id="linearGradient2309">
   <stop stop-color="#73d216" offset="0"/>
   <stop stop-color="#4e9a06" offset="1"/>
  </linearGradient>
  <radialGradient id="radialGradient7994" cx="16.621" cy="-29.735" r="16.5" gradientTransform="matrix(-2.1932 -.00053722 -.00026268 .91667 44.5 59.3)" gradientUnits="userSpaceOnUse" xlink:href="#linearGradient8650"/>
  <linearGradient id="linearGradient8650">
   <stop stop-color="#fff" offset="0"/>
   <stop stop-color="#fff" stop-opacity="0" offset="1"/>
  </linearGradient>
  <radialGradient id="radialGradient1441" cx="34.664" cy="20.321" r="16.956" gradientTransform="matrix(-1.8719e-16 .84302 -1.0202 -2.2652e-16 46.394 1.4139)" gradientUnits="userSpaceOnUse" xlink:href="#linearGradient2309"/>
  <radialGradient id="radialGradient1444" cx="24.837" cy="36.421" r="15.645" gradientTransform="matrix(1 0 0 .53672 -1.5178e-15 16.873)" gradientUnits="userSpaceOnUse">
   <stop offset="0"/>
   <stop stop-opacity="0" offset="1"/>
  </radialGradient>
  <radialGradient id="radialGradient10491" cx="15.987" cy="1.535" r="17.171" gradientTransform="matrix(-3.7494e-16 2.0467 1.5576 2.8534e-16 2.913 -22.934)" gradientUnits="userSpaceOnUse" xlink:href="#linearGradient8650"/>
  <radialGradient id="radialGradient11961" cx="13.905" cy="36.436" r="16.506" gradientTransform="matrix(.99967 -.0047829 .0037853 .79167 -.22186 10.414)" gradientUnits="userSpaceOnUse" xlink:href="#linearGradient2309"/>
 </defs>
 <metadata>
  <rdf:RDF>
   <cc:Work rdf:about="">
    <dc:format>image/svg+xml</dc:format>
    <dc:type rdf:resource="http://purl.org/dc/dcmitype/StillImage"/>
    <dc:creator>
     <cc:Agent>
      <dc:title>Jakub Steiner</dc:title>
     </cc:Agent>
    </dc:creator>
    <dc:source>http://jimmac.musichall.cz</dc:source>
    <cc:license rdf:resource="http://creativecommons.org/licenses/publicdomain/"/>
    <dc:title>Go to Bottom</dc:title>
    <dc:subject>
     <rdf:Bag>
      <rdf:li>go</rdf:li>
      <rdf:li>bottom</rdf:li>
     </rdf:Bag>
    </dc:subject>
    <dc:contributor>
     <cc:Agent>
      <dc:title>Andreas Nilsson</dc:title>
     </cc:Agent>
    </dc:contributor>
   </cc:Work>
   <cc:License rdf:about="http://creativecommons.org/licenses/publicdomain/">
    <cc:permits rdf:resource="http://creativecommons.org/ns#Reproduction"/>
    <cc:permits rdf:resource="http://creativecommons.org/ns#Distribution"/>
    <cc:permits rdf:resource="http://creativecommons.org/ns#DerivativeWorks"/>
   </cc:License>
  </rdf:RDF>
 </metadata>
 <g fill-rule="evenodd">
  <path transform="matrix(1.2145 0 0 .59546 -6.1638 20.188)" d="m40.482 36.421a15.645 8.3969 0 1 1-31.289 0 15.645 8.3969 0 1 1 31.289 0z" color="#000000" fill="url(#radialGradient1444)" opacity=".20455"/>
  <path d="m40.5 42.5v-5.9962h-15.125l15.094-18.004-7.9688-0.0625v-12.938h-17.969v12.938h-8.0312l15.375 18.066h-15.373v5.9962h33.998z" color="#000000" fill="url(#radialGradient1441)" stroke="#3b7502" stroke-linecap="round" stroke-linejoin="round" stroke-miterlimit="10"/>
  <path d="m7.5987 19.006 7.4064-0.011719-0.002681-12.993 15.379 0.009153c-0.76992 18.341-10.723 10.993-15.382 21.647l-7.4006-8.6515z" color="#000000" fill="url(#radialGradient10491)" opacity=".50802"/>
 </g>
 <path d="m31.53 6.5h-16.01v12.993h-6.8311l14.458 17.005 0.91235 0.012228 14.22-16.972-6.7983-0.066291 0.049092-12.972z" color="#000000" fill="none" opacity=".48128" stroke="#fff" stroke-miterlimit="10"/>
 <rect x="7.4998" y="37.5" width="32.002" height="4.0095" fill="url(#radialGradient11961)" fill-rule="evenodd" opacity=".481" stroke="#fff"/>
 <path d="m40 40.786c-12.061-4.0532-29.403 1.2991-32.978-1.2515l0.015573-2.5066 32.962-0.023208v3.7812z" fill="url(#radialGradient7994)" fill-rule="evenodd" opacity=".17614"/>
</svg>
