<?xml version="1.0" encoding="UTF-8"?>
<svg width="48px" height="48px" xmlns="http://www.w3.org/2000/svg" xmlns:cc="http://creativecommons.org/ns#" xmlns:dc="http://purl.org/dc/elements/1.1/" xmlns:rdf="http://www.w3.org/1999/02/22-rdf-syntax-ns#" xmlns:xlink="http://www.w3.org/1999/xlink">
 <defs>
  <radialGradient id="radialGradient1444" cx="24.837" cy="36.421" r="15.645" gradientTransform="matrix(1 0 0 .53672 1.6147e-15 16.873)" gradientUnits="userSpaceOnUse">
   <stop offset="0"/>
   <stop stop-opacity="0" offset="1"/>
  </radialGradient>
  <radialGradient id="radialGradient1469" cx="35.293" cy="20.494" r="16.956" gradientTransform="matrix(1.8719e-16 -.84302 1.0202 2.2652e-16 .60644 42.586)" gradientUnits="userSpaceOnUse">
   <stop stop-color="#73d216" offset="0"/>
   <stop stop-color="#4e9a06" offset="1"/>
  </radialGradient>
  <radialGradient id="radialGradient1471" cx="15.987" cy="1.535" r="17.171" gradientTransform="matrix(3.7494e-16 -2.0467 -1.5576 -2.8534e-16 44.116 66.933)" gradientUnits="userSpaceOnUse">
   <stop stop-color="#fff" offset="0"/>
   <stop stop-color="#fff" stop-opacity="0" offset="1"/>
  </radialGradient>
 </defs>
 <metadata>
  <rdf:RDF>
   <cc:Work rdf:about="">
    <dc:format>image/svg+xml</dc:format>
    <dc:type rdf:resource="http://purl.org/dc/dcmitype/StillImage"/>
    <dc:creator>
     <cc:Agent>
      <dc:title>Jakub Steiner</dc:title>
     </cc:Agent>
    </dc:creator>
    <dc:source>http://jimmac.musichall.cz</dc:source>
    <cc:license rdf:resource="http://creativecommons.org/licenses/publicdomain/"/>
    <dc:title>Go Down</dc:title>
    <dc:subject>
     <rdf:Bag>
      <rdf:li>go</rdf:li>
      <rdf:li>lower</rdf:li>
      <rdf:li>down</rdf:li>
      <rdf:li>arrow</rdf:li>
      <rdf:li>pointer</rdf:li>
      <rdf:li>&gt;</rdf:li>
     </rdf:Bag>
    </dc:subject>
    <dc:contributor>
     <cc:Agent>
      <dc:title>Andreas Nilsson</dc:title>
     </cc:Agent>
    </dc:contributor>
   </cc:Work>
   <cc:License rdf:about="http://creativecommons.org/licenses/publicdomain/">
    <cc:permits rdf:resource="http://creativecommons.org/ns#Reproduction"/>
    <cc:permits rdf:resource="http://creativecommons.org/ns#Distribution"/>
    <cc:permits rdf:resource="http://creativecommons.org/ns#DerivativeWorks"/>
   </cc:License>
  </rdf:RDF>
 </metadata>
 <g>
  <path transform="matrix(1.2145 0 0 .59546 -6.1638 16.313)" d="m40.482 36.421a15.645 8.3969 0 1 1-31.289 0 15.645 8.3969 0 1 1 31.289 0z" color="#000000" fill="url(#radialGradient1444)" fill-rule="evenodd" opacity=".20455"/>
  <g transform="matrix(-1 0 0 -1 47.029 43.999)">
   <path d="m14.519 38.5 18.005-0.003906v-12.992l7.9954-0.007812-17.145-19.997-16.846 19.998 7.9959 0.00379-0.005304 12.999z" color="#000000" fill="url(#radialGradient1469)" fill-rule="evenodd" stroke="#3a7304" stroke-linecap="round" stroke-linejoin="round" stroke-miterlimit="10"/>
   <path d="m39.43 24.993-7.4064 0.011719 0.002681 12.993-15.379-0.009153c0.76992-18.341 10.723-10.993 15.382-21.647l7.4006 8.6515z" color="#000000" fill="url(#radialGradient1471)" fill-rule="evenodd" opacity=".50802"/>
   <path d="m15.521 37.496 16.001 0.003906v-12.993l6.8168-0.015625-14.954-17.453-14.707 17.457 6.8399 0.005247 0.002686 12.995z" color="#000000" fill="none" opacity=".48128" stroke="#fff" stroke-miterlimit="10"/>
  </g>
 </g>
</svg>
