<?xml version="1.0" encoding="UTF-8"?>
<svg width="48" height="48" version="1.1" xmlns="http://www.w3.org/2000/svg" xmlns:cc="http://creativecommons.org/ns#" xmlns:dc="http://purl.org/dc/elements/1.1/" xmlns:rdf="http://www.w3.org/1999/02/22-rdf-syntax-ns#" xmlns:xlink="http://www.w3.org/1999/xlink">
 <defs>
  <linearGradient id="linearGradient3101" x1="68.313" x2="68.313" y1="52.925" y2="65.922" gradientTransform="matrix(.35013 0 0 .35013 .57143 -.53165)" gradientUnits="userSpaceOnUse">
   <stop stop-color="#fff" offset="0"/>
   <stop stop-color="#fff" stop-opacity="0" offset="1"/>
  </linearGradient>
  <linearGradient id="linearGradient3031" x1="71.204" x2="71.204" y1="6.2376" y2="44.341" gradientTransform="matrix(.35135 0 0 .35135 -1.2041 15.09)" gradientUnits="userSpaceOnUse">
   <stop stop-color="#fff" offset="0"/>
   <stop stop-color="#fff" stop-opacity=".23529" offset=".50776"/>
   <stop stop-color="#fff" stop-opacity=".15686" offset=".83457"/>
   <stop stop-color="#fff" stop-opacity=".39216" offset="1"/>
  </linearGradient>
  <linearGradient id="linearGradient3039" x1="7.0776" x2="7.0776" y1="3.0816" y2="45.369" gradientTransform="matrix(.36857 0 0 .36857 15.154 15.153)" gradientUnits="userSpaceOnUse">
   <stop stop-color="#7a0000" offset="0"/>
   <stop stop-color="#c6262e" offset="1"/>
  </linearGradient>
  <linearGradient id="linearGradient3820-7-2">
   <stop offset="0"/>
   <stop stop-opacity="0" offset="1"/>
  </linearGradient>
  <radialGradient id="radialGradient3300-8-3" cx="99.189" cy="185.3" r="62.769" gradientTransform="matrix(.38235 7.5556e-8 -1.8372e-8 .11152 -5.9254 36.336)" gradientUnits="userSpaceOnUse" xlink:href="#linearGradient3820-7-2"/>
  <radialGradient id="radialGradient4192-6-5" cx="99.189" cy="185.3" r="62.769" gradientTransform="matrix(.2549 5.3967e-8 -1.2248e-8 .079655 6.7164 44.241)" gradientUnits="userSpaceOnUse" xlink:href="#linearGradient3820-7-2"/>
  <linearGradient id="linearGradient3932-9" x1="6.6575" x2="39.442" y1="23" y2="23" gradientTransform="matrix(0 1.4643 -1.4643 0 57.679 -9.6786)" gradientUnits="userSpaceOnUse">
   <stop stop-color="#fafafa" offset="0"/>
   <stop stop-color="#abacae" offset="1"/>
  </linearGradient>
  <linearGradient id="linearGradient3111-7" x1="71.204" x2="71.204" y1="7.6176" y2="43.283" gradientTransform="matrix(1.0541 0 0 1.0541 -51.611 -2.7282)" gradientUnits="userSpaceOnUse" xlink:href="#linearGradient4011"/>
  <linearGradient id="linearGradient4011">
   <stop stop-color="#fff" offset="0"/>
   <stop stop-color="#fff" stop-opacity=".23529" offset=".50776"/>
   <stop stop-color="#fff" stop-opacity=".15686" offset=".83457"/>
   <stop stop-color="#fff" stop-opacity=".39216" offset="1"/>
  </linearGradient>
  <linearGradient id="linearGradient3993-0-6-0-8-5" x1="71.204" x2="71.204" y1="6.2376" y2="44.341" gradientTransform="matrix(.45946 0 0 -.45946 -8.9586 35.65)" gradientUnits="userSpaceOnUse" xlink:href="#linearGradient4011"/>
  <linearGradient id="linearGradient1006" x1="24" x2="24" y1="16.501" y2="31.576" gradientUnits="userSpaceOnUse">
   <stop stop-color="#ed5353" offset="0"/>
   <stop stop-color="#c6262e" offset="1"/>
  </linearGradient>
 </defs>
 <metadata>
  <rdf:RDF>
   <cc:Work rdf:about="">
    <dc:format>image/svg+xml</dc:format>
    <dc:type rdf:resource="http://purl.org/dc/dcmitype/StillImage"/>
   </cc:Work>
  </rdf:RDF>
 </metadata>
 <g transform="matrix(.70833 0 0 .71428 1.3333 .7846)" stroke-width="1.4059">
  <path d="m56 57.002a24 6.9986 0 1 1-48 0 24 6.9986 0 1 1 48 0z" fill="url(#radialGradient3300-8-3)" opacity=".2"/>
  <path d="m48 59.002a16 4.9989 0 1 1-32 0 16 4.9989 0 1 1 32 0z" fill="url(#radialGradient4192-6-5)" opacity=".4"/>
 </g>
 <path d="m24.001 3.5c-11.322 0-20.501 9.1788-20.501 20.5 0 11.322 9.1786 20.5 20.501 20.5 11.322 0 20.499-9.1783 20.499-20.5 0-11.321-9.1776-20.5-20.499-20.5z" fill="url(#linearGradient3932-9)"/>
 <g fill="none" stroke-linecap="round" stroke-linejoin="round">
  <path d="m43.5 23.999c0 10.77-8.7311 19.501-19.5 19.501-10.77 0-19.5-8.7309-19.5-19.501 0-10.769 8.7306-19.499 19.5-19.499 10.769 0 19.5 8.7299 19.5 19.499z" color="#000000" stroke="url(#linearGradient3111-7)"/>
  <path d="m32.5 23.999c0-4.6946-3.8059-8.5003-8.4999-8.5003-4.6945 0-8.5001 3.8058-8.5001 8.5003 0 4.6944 3.8056 8.4997 8.5001 8.4997 4.694 0 8.4999-3.8053 8.4999-8.4997z" color="#000000" opacity=".5" stroke="url(#linearGradient3993-0-6-0-8-5)"/>
  <path d="m24 3.4997c-11.311 0-20.5 9.1888-20.5 20.5s9.1888 20.5 20.5 20.5c11.311 0 20.5-9.1888 20.5-20.5 0-11.311-9.1888-20.5-20.5-20.5z" color="#000000" opacity=".6" stroke="#555761"/>
 </g>
 <path d="m24 16.501c-4.1372 0-7.4982 3.361-7.4982 7.4982s3.361 7.4982 7.4982 7.4982 7.4982-3.361 7.4982-7.4982-3.361-7.4982-7.4982-7.4982z" fill="url(#linearGradient1006)" stroke="url(#linearGradient3039)" stroke-linecap="round" stroke-linejoin="round" stroke-width="1.0036"/>
 <path d="m30.5 23.999c0 3.5896-2.9104 6.5-6.5 6.5-3.5898 0-6.5-2.9104-6.5-6.5 0-3.59 2.9102-6.5 6.5-6.5 3.5896 0 6.5 2.91 6.5 6.5z" color="#000000" fill="none" opacity=".5" stroke="url(#linearGradient3031)" stroke-linecap="round" stroke-linejoin="round"/>
 <path d="m28 21.999a4 4 0 1 1-8 0 4 4 0 1 1 8 0z" color="#000000" fill="url(#linearGradient3101)" opacity=".4"/>
</svg>
