<?xml version="1.0" encoding="UTF-8"?>
<svg width="48px" height="48px" xmlns="http://www.w3.org/2000/svg" xmlns:cc="http://creativecommons.org/ns#" xmlns:dc="http://purl.org/dc/elements/1.1/" xmlns:rdf="http://www.w3.org/1999/02/22-rdf-syntax-ns#" xmlns:xlink="http://www.w3.org/1999/xlink">
 <defs>
  <linearGradient id="linearGradient5075">
   <stop stop-color="#adb0a8" offset="0"/>
   <stop stop-color="#464744" offset="1"/>
  </linearGradient>
  <linearGradient id="linearGradient2679">
   <stop stop-color="#fff" offset="0"/>
   <stop stop-color="#d3d7cf" offset="1"/>
  </linearGradient>
  <linearGradient id="linearGradient1401" x1="55.886" x2="55.936" y1="157.71" y2="142.94" gradientTransform="translate(-46 -121)" gradientUnits="userSpaceOnUse" xlink:href="#linearGradient5075"/>
  <linearGradient id="linearGradient1426" x1="49.43" x2="49.667" y1="112.95" y2="115.14" gradientTransform="translate(-42.991 -97.262)" gradientUnits="userSpaceOnUse">
   <stop offset="0"/>
   <stop stop-color="#fff" stop-opacity="0" offset="1"/>
  </linearGradient>
  <radialGradient id="radialGradient1436" cx="64.227" cy="147.99" r="8.75" gradientTransform="matrix(.22266 -.99627 2.13 .47604 -288.95 20.852)" gradientUnits="userSpaceOnUse" xlink:href="#linearGradient2679"/>
  <radialGradient id="radialGradient1439" cx="64.227" cy="147.99" r="8.75" gradientTransform="matrix(.22266 -.99627 2.13 .47604 -306.95 20.852)" gradientUnits="userSpaceOnUse" xlink:href="#linearGradient2679"/>
  <radialGradient id="radialGradient4375" cx="64.227" cy="147.99" r="8.75" gradientTransform="matrix(.22266 -.99627 2.13 .47604 -323.95 20.852)" gradientUnits="userSpaceOnUse" xlink:href="#linearGradient2679"/>
  <linearGradient id="linearGradient4413" x1="54" x2="54" y1="131.27" y2="145" gradientTransform="matrix(1 4.681e-17 4.681e-17 -1 -45 169)" gradientUnits="userSpaceOnUse" xlink:href="#linearGradient5075"/>
  <linearGradient id="linearGradient5293" x1="24.476" x2="23.75" y1="13.659" y2="36" gradientTransform="translate(1.9997)" gradientUnits="userSpaceOnUse">
   <stop offset="0"/>
   <stop stop-color="#fff" stop-opacity=".65979" offset="1"/>
  </linearGradient>
 </defs>
 <metadata>
  <rdf:RDF>
   <cc:Work rdf:about="">
    <dc:format>image/svg+xml</dc:format>
    <dc:type rdf:resource="http://purl.org/dc/dcmitype/StillImage"/>
    <dc:title>Media Skip Backward</dc:title>
    <dc:creator>
     <cc:Agent>
      <dc:title>Lapo Calamandrei</dc:title>
     </cc:Agent>
    </dc:creator>
    <cc:license rdf:resource="http://creativecommons.org/licenses/publicdomain/"/>
    <dc:contributor>
     <cc:Agent>
      <dc:title>Jakub Steiner</dc:title>
     </cc:Agent>
    </dc:contributor>
   </cc:Work>
   <cc:License rdf:about="http://creativecommons.org/licenses/publicdomain/">
    <cc:permits rdf:resource="http://creativecommons.org/ns#Reproduction"/>
    <cc:permits rdf:resource="http://creativecommons.org/ns#Distribution"/>
    <cc:permits rdf:resource="http://creativecommons.org/ns#DerivativeWorks"/>
   </cc:License>
  </rdf:RDF>
 </metadata>
 <g>
  <path d="m43.5 13.5v21l-17.5-10.5 17.5-10.5zm-18 0v21l-17-10.188v10.188h-5v-21h5v10.188l17-10.188z" color="#000000" fill="none" opacity=".15" stroke="url(#linearGradient5293)" stroke-linecap="square" stroke-linejoin="round" stroke-width="3"/>
  <g fill-rule="evenodd">
   <path d="m25.5 13.5-17.5 10.5 17.5 10.5v-21z" color="#000000" fill="url(#radialGradient1439)"/>
   <path d="m43.5 13.5-17.5 10.5 17.5 10.5v-21z" color="#000000" fill="url(#radialGradient1436)"/>
   <path d="m43.5 13.5-1.1875 0.71875 1.1875-0.125v-0.59375zm-18 0.25-0.46875 0.03125-3.9688 2.375 4.4375-0.40625v-2z" color="#000000" fill="url(#linearGradient1426)" opacity=".07027"/>
  </g>
  <path d="m25.5 13.5-17.5 10.5 17.5 10.5v-21zm18 0-17.5 10.5 17.5 10.5v-21z" color="#000000" fill="none" stroke="url(#linearGradient1401)" stroke-linecap="square" stroke-linejoin="round"/>
  <g fill="#fff" fill-rule="evenodd">
   <path d="m25 14.375-16.031 9.625 16.031 9.625v-19.25zm18 0-16.031 9.625 16.031 9.625v-19.25zm-19 1.7812v15.688l-13.094-7.8438 13.094-7.8438zm18 0v15.688l-13.094-7.8438 13.094-7.8438z" color="#000000"/>
   <path d="m12.412 23.159 11.588-6.9715v6.0429l-11.588 0.92862z" color="#000000" opacity=".56111"/>
   <path d="m31.971 22.145 10.028-5.9571v5.5588l-10.028 0.39829z" color="#000000" opacity=".56111"/>
  </g>
  <path d="m8.5 13.5h-5v21h5v-21z" color="#000000" fill="url(#radialGradient4375)" fill-rule="evenodd"/>
  <rect transform="scale(1,-1)" x="4.4996" y="-33.5" width="3" height="19" color="#000000" fill="none" stroke="#fff" stroke-linecap="square"/>
  <path d="m3.4996 34.5v-21h5v21h-5z" color="#000000" fill="none" stroke="url(#linearGradient4413)" stroke-linecap="square" stroke-linejoin="round"/>
  <path d="m7 24.312-1.9567 0.33705v-9.6184h2.0329l-0.076195 9.2814z" color="#000000" fill="#fff" fill-rule="evenodd" opacity=".56111"/>
 </g>
</svg>
