<?xml version="1.0" encoding="UTF-8" standalone="no"?>
<svg
   height="16px"
   viewBox="0 0 16 16"
   width="16px"
   version="1.1"
   id="svg8"
   sodipodi:docname="view-restore.svg"
   inkscape:version="1.1 (c68e22c387, 2021-05-23)"
   xmlns:inkscape="http://www.inkscape.org/namespaces/inkscape"
   xmlns:sodipodi="http://sodipodi.sourceforge.net/DTD/sodipodi-0.dtd"
   xmlns="http://www.w3.org/2000/svg"
   xmlns:svg="http://www.w3.org/2000/svg">
  <defs
     id="defs12" />
  <sodipodi:namedview
     id="namedview10"
     pagecolor="#ffffff"
     bordercolor="#666666"
     borderopacity="1.0"
     inkscape:pageshadow="2"
     inkscape:pageopacity="0.0"
     inkscape:pagecheckerboard="0"
     showgrid="false"
     inkscape:zoom="49.375"
     inkscape:cx="7.9898734"
     inkscape:cy="8.0101266"
     inkscape:window-width="1920"
     inkscape:window-height="976"
     inkscape:window-x="1912"
     inkscape:window-y="-8"
     inkscape:window-maximized="1"
     inkscape:current-layer="svg8" />
  <g
     fill="#2e3436"
     id="g6"
     style="fill:#398fe7;fill-opacity:1">
    <path
       d="M 2,8 C 1.449219,8 1,8.449219 1,9 c 0,0.550781 0.449219,1 1,1 h 2.585938 l -3.292969,3.292969 c -0.390625,0.390625 -0.390625,1.023437 0,1.414062 0.390625,0.390625 1.023437,0.390625 1.414062,0 L 6,11.414062 V 14 c 0,0.550781 0.449219,1 1,1 0.550781,0 1,-0.449219 1,-1 V 8 Z m 0,0"
       id="path2"
       style="fill:#398fe7;fill-opacity:1" />
    <path
       d="M 14,8 C 14.550781,8 15,7.550781 15,7 15,6.449219 14.550781,6 14,6 h -2.585938 l 3.292969,-3.292969 c 0.390625,-0.390625 0.390625,-1.023437 0,-1.414062 -0.390625,-0.390625 -1.023437,-0.390625 -1.414062,0 L 10,4.585938 V 2 C 10,1.449219 9.550781,1 9,1 8.449219,1 8,1.449219 8,2 v 6 z m 0,0"
       id="path4"
       style="fill:#398fe7;fill-opacity:1" />
  </g>
</svg>
