<?xml version="1.0" encoding="UTF-8" standalone="no"?>
<svg
   sodipodi:docname="view-fullscreen-symbolic.svg"
   id="svg8"
   version="1.1"
   width="16px"
   viewBox="0 0 16 16"
   height="16px"
   inkscape:version="1.1 (c68e22c387, 2021-05-23)"
   xmlns:inkscape="http://www.inkscape.org/namespaces/inkscape"
   xmlns:sodipodi="http://sodipodi.sourceforge.net/DTD/sodipodi-0.dtd"
   xmlns="http://www.w3.org/2000/svg"
   xmlns:svg="http://www.w3.org/2000/svg">
  <defs
     id="defs12" />
  <sodipodi:namedview
     id="namedview10"
     pagecolor="#ffffff"
     bordercolor="#666666"
     borderopacity="1.0"
     inkscape:pageshadow="2"
     inkscape:pageopacity="0.0"
     inkscape:pagecheckerboard="0"
     showgrid="false"
     inkscape:zoom="12.34375"
     inkscape:cx="-15.027848"
     inkscape:cy="3.6455696"
     inkscape:window-width="1920"
     inkscape:window-height="1017"
     inkscape:window-x="-8"
     inkscape:window-y="-8"
     inkscape:window-maximized="1"
     inkscape:current-layer="svg8" />
  <g
     fill="#2e3436"
     id="g6"
     style="fill:#398fe7;fill-opacity:1">
    <path
       d="M 1,9 C 0.449219,9 0,9.449219 0,10 v 6 H 6 C 6.550781,16 7,15.550781 7,15 7,14.449219 6.550781,14 6,14 H 3.414062 l 3.292969,-3.292969 c 0.390625,-0.390625 0.390625,-1.023437 0,-1.414062 C 6.519531,9.105469 6.265625,9 6,9 5.734375,9 5.480469,9.105469 5.292969,9.292969 L 2,12.585938 V 10 C 2,9.449219 1.550781,9 1,9 Z m 0,0"
       id="path2"
       style="fill:#398fe7;fill-opacity:1" />
    <path
       d="m 15,7 c 0.550781,0 1,-0.449219 1,-1 V 0 H 10 C 9.449219,0 9,0.449219 9,1 9,1.550781 9.449219,2 10,2 h 2.585938 L 9.292969,5.292969 c -0.390625,0.390625 -0.390625,1.023437 0,1.414062 C 9.480469,6.894531 9.734375,7 10,7 10.265625,7 10.519531,6.894531 10.707031,6.707031 L 14,3.414062 V 6 c 0,0.550781 0.449219,1 1,1 z m 0,0"
       id="path4"
       style="fill:#398fe7;fill-opacity:1" />
  </g>
</svg>
